G04 #@! TF.GenerationSoftware,KiCad,Pcbnew,(6.0.5)*
G04 #@! TF.CreationDate,2022-11-10T21:30:45-03:00*
G04 #@! TF.ProjectId,m2sata,6d327361-7461-42e6-9b69-6361645f7063,rev?*
G04 #@! TF.SameCoordinates,Original*
G04 #@! TF.FileFunction,Soldermask,Bot*
G04 #@! TF.FilePolarity,Negative*
%FSLAX46Y46*%
G04 Gerber Fmt 4.6, Leading zero omitted, Abs format (unit mm)*
G04 Created by KiCad (PCBNEW (6.0.5)) date 2022-11-10 21:30:45*
%MOMM*%
%LPD*%
G01*
G04 APERTURE LIST*
%ADD10C,0.100000*%
%ADD11O,1.202000X1.402000*%
%ADD12C,2.602000*%
G04 APERTURE END LIST*
G36*
X100125000Y-109925000D02*
G01*
X97625000Y-109925000D01*
X97625000Y-94475000D01*
X100125000Y-94475000D01*
X100125000Y-109925000D01*
G37*
D10*
X100125000Y-109925000D02*
X97625000Y-109925000D01*
X97625000Y-94475000D01*
X100125000Y-94475000D01*
X100125000Y-109925000D01*
G36*
X100125000Y-93275000D02*
G01*
X97625000Y-93275000D01*
X97625000Y-90075000D01*
X100125000Y-90075000D01*
X100125000Y-93275000D01*
G37*
X100125000Y-93275000D02*
X97625000Y-93275000D01*
X97625000Y-90075000D01*
X100125000Y-90075000D01*
X100125000Y-93275000D01*
G36*
X100125000Y-109925000D02*
G01*
X97625000Y-109925000D01*
X97625000Y-94475000D01*
X100125000Y-94475000D01*
X100125000Y-109925000D01*
G37*
X100125000Y-109925000D02*
X97625000Y-109925000D01*
X97625000Y-94475000D01*
X100125000Y-94475000D01*
X100125000Y-109925000D01*
G36*
X100125000Y-93275000D02*
G01*
X97625000Y-93275000D01*
X97625000Y-90075000D01*
X100125000Y-90075000D01*
X100125000Y-93275000D01*
G37*
X100125000Y-93275000D02*
X97625000Y-93275000D01*
X97625000Y-90075000D01*
X100125000Y-90075000D01*
X100125000Y-93275000D01*
D11*
X162447238Y-93473494D03*
X163717238Y-94473494D03*
X164987238Y-94473494D03*
X166257238Y-93473494D03*
X167527238Y-94473494D03*
X168797238Y-94473494D03*
X170067238Y-93473494D03*
D12*
X172737238Y-93973494D03*
X159777238Y-93973494D03*
D11*
X107950000Y-93480000D03*
X109220000Y-94480000D03*
X110490000Y-94480000D03*
X111760000Y-93480000D03*
X113030000Y-94480000D03*
X114300000Y-94480000D03*
X115570000Y-93480000D03*
D12*
X118240000Y-93980000D03*
X105280000Y-93980000D03*
D11*
X144281492Y-93480000D03*
X145551492Y-94480000D03*
X146821492Y-94480000D03*
X148091492Y-93480000D03*
X149361492Y-94480000D03*
X150631492Y-94480000D03*
X151901492Y-93480000D03*
D12*
X154571492Y-93980000D03*
X141611492Y-93980000D03*
D11*
X126115746Y-93480000D03*
X127385746Y-94480000D03*
X128655746Y-94480000D03*
X129925746Y-93480000D03*
X131195746Y-94480000D03*
X132465746Y-94480000D03*
X133735746Y-93480000D03*
D12*
X136405746Y-93980000D03*
X123445746Y-93980000D03*
G36*
X131725938Y-94097808D02*
G01*
X131729037Y-94102535D01*
X131782016Y-94147602D01*
X131850656Y-94156833D01*
X131913486Y-94127443D01*
X131934577Y-94100262D01*
X131936429Y-94099507D01*
X131938009Y-94100733D01*
X131938005Y-94102253D01*
X131887174Y-94224972D01*
X131866746Y-94380132D01*
X131866746Y-94579868D01*
X131887174Y-94735028D01*
X131939075Y-94860330D01*
X131938814Y-94862313D01*
X131936966Y-94863078D01*
X131935554Y-94862192D01*
X131932455Y-94857465D01*
X131879476Y-94812398D01*
X131810836Y-94803167D01*
X131748006Y-94832557D01*
X131726915Y-94859738D01*
X131725063Y-94860493D01*
X131723483Y-94859267D01*
X131723487Y-94857747D01*
X131774318Y-94735028D01*
X131794746Y-94579868D01*
X131794746Y-94380132D01*
X131774318Y-94224972D01*
X131722417Y-94099670D01*
X131722678Y-94097687D01*
X131724526Y-94096922D01*
X131725938Y-94097808D01*
G37*
G36*
X146081684Y-94097808D02*
G01*
X146084783Y-94102535D01*
X146137762Y-94147602D01*
X146206402Y-94156833D01*
X146269232Y-94127443D01*
X146290323Y-94100262D01*
X146292175Y-94099507D01*
X146293755Y-94100733D01*
X146293751Y-94102253D01*
X146242920Y-94224972D01*
X146222492Y-94380132D01*
X146222492Y-94579868D01*
X146242920Y-94735028D01*
X146294821Y-94860330D01*
X146294560Y-94862313D01*
X146292712Y-94863078D01*
X146291300Y-94862192D01*
X146288201Y-94857465D01*
X146235222Y-94812398D01*
X146166582Y-94803167D01*
X146103752Y-94832557D01*
X146082661Y-94859738D01*
X146080809Y-94860493D01*
X146079229Y-94859267D01*
X146079233Y-94857747D01*
X146130064Y-94735028D01*
X146150492Y-94579868D01*
X146150492Y-94380132D01*
X146130064Y-94224972D01*
X146078163Y-94099670D01*
X146078424Y-94097687D01*
X146080272Y-94096922D01*
X146081684Y-94097808D01*
G37*
G36*
X113560192Y-94097808D02*
G01*
X113563291Y-94102535D01*
X113616270Y-94147602D01*
X113684910Y-94156833D01*
X113747740Y-94127443D01*
X113768831Y-94100262D01*
X113770683Y-94099507D01*
X113772263Y-94100733D01*
X113772259Y-94102253D01*
X113721428Y-94224972D01*
X113701000Y-94380132D01*
X113701000Y-94579868D01*
X113721428Y-94735028D01*
X113773329Y-94860330D01*
X113773068Y-94862313D01*
X113771220Y-94863078D01*
X113769808Y-94862192D01*
X113766709Y-94857465D01*
X113713730Y-94812398D01*
X113645090Y-94803167D01*
X113582260Y-94832557D01*
X113561169Y-94859738D01*
X113559317Y-94860493D01*
X113557737Y-94859267D01*
X113557741Y-94857747D01*
X113608572Y-94735028D01*
X113629000Y-94579868D01*
X113629000Y-94380132D01*
X113608572Y-94224972D01*
X113556671Y-94099670D01*
X113556932Y-94097687D01*
X113558780Y-94096922D01*
X113560192Y-94097808D01*
G37*
G36*
X109750192Y-94097808D02*
G01*
X109753291Y-94102535D01*
X109806270Y-94147602D01*
X109874910Y-94156833D01*
X109937740Y-94127443D01*
X109958831Y-94100262D01*
X109960683Y-94099507D01*
X109962263Y-94100733D01*
X109962259Y-94102253D01*
X109911428Y-94224972D01*
X109891000Y-94380132D01*
X109891000Y-94579868D01*
X109911428Y-94735028D01*
X109963329Y-94860330D01*
X109963068Y-94862313D01*
X109961220Y-94863078D01*
X109959808Y-94862192D01*
X109956709Y-94857465D01*
X109903730Y-94812398D01*
X109835090Y-94803167D01*
X109772260Y-94832557D01*
X109751169Y-94859738D01*
X109749317Y-94860493D01*
X109747737Y-94859267D01*
X109747741Y-94857747D01*
X109798572Y-94735028D01*
X109819000Y-94579868D01*
X109819000Y-94380132D01*
X109798572Y-94224972D01*
X109746671Y-94099670D01*
X109746932Y-94097687D01*
X109748780Y-94096922D01*
X109750192Y-94097808D01*
G37*
G36*
X127915938Y-94097808D02*
G01*
X127919037Y-94102535D01*
X127972016Y-94147602D01*
X128040656Y-94156833D01*
X128103486Y-94127443D01*
X128124577Y-94100262D01*
X128126429Y-94099507D01*
X128128009Y-94100733D01*
X128128005Y-94102253D01*
X128077174Y-94224972D01*
X128056746Y-94380132D01*
X128056746Y-94579868D01*
X128077174Y-94735028D01*
X128129075Y-94860330D01*
X128128814Y-94862313D01*
X128126966Y-94863078D01*
X128125554Y-94862192D01*
X128122455Y-94857465D01*
X128069476Y-94812398D01*
X128000836Y-94803167D01*
X127938006Y-94832557D01*
X127916915Y-94859738D01*
X127915063Y-94860493D01*
X127913483Y-94859267D01*
X127913487Y-94857747D01*
X127964318Y-94735028D01*
X127984746Y-94579868D01*
X127984746Y-94380132D01*
X127964318Y-94224972D01*
X127912417Y-94099670D01*
X127912678Y-94097687D01*
X127914526Y-94096922D01*
X127915938Y-94097808D01*
G37*
G36*
X149891684Y-94097808D02*
G01*
X149894783Y-94102535D01*
X149947762Y-94147602D01*
X150016402Y-94156833D01*
X150079232Y-94127443D01*
X150100323Y-94100262D01*
X150102175Y-94099507D01*
X150103755Y-94100733D01*
X150103751Y-94102253D01*
X150052920Y-94224972D01*
X150032492Y-94380132D01*
X150032492Y-94579868D01*
X150052920Y-94735028D01*
X150104821Y-94860330D01*
X150104560Y-94862313D01*
X150102712Y-94863078D01*
X150101300Y-94862192D01*
X150098201Y-94857465D01*
X150045222Y-94812398D01*
X149976582Y-94803167D01*
X149913752Y-94832557D01*
X149892661Y-94859738D01*
X149890809Y-94860493D01*
X149889229Y-94859267D01*
X149889233Y-94857747D01*
X149940064Y-94735028D01*
X149960492Y-94579868D01*
X149960492Y-94380132D01*
X149940064Y-94224972D01*
X149888163Y-94099670D01*
X149888424Y-94097687D01*
X149890272Y-94096922D01*
X149891684Y-94097808D01*
G37*
G36*
X164247430Y-94091302D02*
G01*
X164250529Y-94096029D01*
X164303508Y-94141096D01*
X164372148Y-94150327D01*
X164434978Y-94120937D01*
X164456069Y-94093756D01*
X164457921Y-94093001D01*
X164459501Y-94094227D01*
X164459497Y-94095747D01*
X164408666Y-94218466D01*
X164388238Y-94373626D01*
X164388238Y-94573362D01*
X164408666Y-94728522D01*
X164460567Y-94853824D01*
X164460306Y-94855807D01*
X164458458Y-94856572D01*
X164457046Y-94855686D01*
X164453947Y-94850959D01*
X164400968Y-94805892D01*
X164332328Y-94796661D01*
X164269498Y-94826051D01*
X164248407Y-94853232D01*
X164246555Y-94853987D01*
X164244975Y-94852761D01*
X164244979Y-94851241D01*
X164295810Y-94728522D01*
X164316238Y-94573362D01*
X164316238Y-94373626D01*
X164295810Y-94218466D01*
X164243909Y-94093164D01*
X164244170Y-94091181D01*
X164246018Y-94090416D01*
X164247430Y-94091302D01*
G37*
G36*
X168057430Y-94091302D02*
G01*
X168060529Y-94096029D01*
X168113508Y-94141096D01*
X168182148Y-94150327D01*
X168244978Y-94120937D01*
X168266069Y-94093756D01*
X168267921Y-94093001D01*
X168269501Y-94094227D01*
X168269497Y-94095747D01*
X168218666Y-94218466D01*
X168198238Y-94373626D01*
X168198238Y-94573362D01*
X168218666Y-94728522D01*
X168270567Y-94853824D01*
X168270306Y-94855807D01*
X168268458Y-94856572D01*
X168267046Y-94855686D01*
X168263947Y-94850959D01*
X168210968Y-94805892D01*
X168142328Y-94796661D01*
X168079498Y-94826051D01*
X168058407Y-94853232D01*
X168056555Y-94853987D01*
X168054975Y-94852761D01*
X168054979Y-94851241D01*
X168105810Y-94728522D01*
X168126238Y-94573362D01*
X168126238Y-94373626D01*
X168105810Y-94218466D01*
X168053909Y-94093164D01*
X168054170Y-94091181D01*
X168056018Y-94090416D01*
X168057430Y-94091302D01*
G37*
M02*
