G04 #@! TF.GenerationSoftware,KiCad,Pcbnew,(6.0.5)*
G04 #@! TF.CreationDate,2022-11-10T21:29:13-03:00*
G04 #@! TF.ProjectId,m2sata,6d327361-7461-42e6-9b69-6361645f7063,rev?*
G04 #@! TF.SameCoordinates,Original*
G04 #@! TF.FileFunction,Legend,Top*
G04 #@! TF.FilePolarity,Positive*
%FSLAX46Y46*%
G04 Gerber Fmt 4.6, Leading zero omitted, Abs format (unit mm)*
G04 Created by KiCad (PCBNEW (6.0.5)) date 2022-11-10 21:29:13*
%MOMM*%
%LPD*%
G01*
G04 APERTURE LIST*
%ADD10C,0.150000*%
%ADD11C,0.300000*%
%ADD12C,0.120000*%
%ADD13C,0.100000*%
%ADD14O,1.202000X1.402000*%
%ADD15C,2.602000*%
G04 APERTURE END LIST*
D10*
X164376285Y-99512380D02*
X163900095Y-99512380D01*
X163900095Y-98512380D01*
X165138190Y-99512380D02*
X165138190Y-98988571D01*
X165090571Y-98893333D01*
X164995333Y-98845714D01*
X164804857Y-98845714D01*
X164709618Y-98893333D01*
X165138190Y-99464761D02*
X165042952Y-99512380D01*
X164804857Y-99512380D01*
X164709618Y-99464761D01*
X164661999Y-99369523D01*
X164661999Y-99274285D01*
X164709618Y-99179047D01*
X164804857Y-99131428D01*
X165042952Y-99131428D01*
X165138190Y-99083809D01*
X165614380Y-98845714D02*
X165614380Y-99512380D01*
X165614380Y-98940952D02*
X165661999Y-98893333D01*
X165757238Y-98845714D01*
X165900095Y-98845714D01*
X165995333Y-98893333D01*
X166042952Y-98988571D01*
X166042952Y-99512380D01*
X166900095Y-99464761D02*
X166804857Y-99512380D01*
X166614380Y-99512380D01*
X166519142Y-99464761D01*
X166471523Y-99369523D01*
X166471523Y-98988571D01*
X166519142Y-98893333D01*
X166614380Y-98845714D01*
X166804857Y-98845714D01*
X166900095Y-98893333D01*
X166947714Y-98988571D01*
X166947714Y-99083809D01*
X166471523Y-99179047D01*
X168042952Y-98512380D02*
X168661999Y-98512380D01*
X168328666Y-98893333D01*
X168471523Y-98893333D01*
X168566761Y-98940952D01*
X168614380Y-98988571D01*
X168661999Y-99083809D01*
X168661999Y-99321904D01*
X168614380Y-99417142D01*
X168566761Y-99464761D01*
X168471523Y-99512380D01*
X168185809Y-99512380D01*
X168090571Y-99464761D01*
X168042952Y-99417142D01*
X128044793Y-99512380D02*
X127568603Y-99512380D01*
X127568603Y-98512380D01*
X128806698Y-99512380D02*
X128806698Y-98988571D01*
X128759079Y-98893333D01*
X128663841Y-98845714D01*
X128473365Y-98845714D01*
X128378126Y-98893333D01*
X128806698Y-99464761D02*
X128711460Y-99512380D01*
X128473365Y-99512380D01*
X128378126Y-99464761D01*
X128330507Y-99369523D01*
X128330507Y-99274285D01*
X128378126Y-99179047D01*
X128473365Y-99131428D01*
X128711460Y-99131428D01*
X128806698Y-99083809D01*
X129282888Y-98845714D02*
X129282888Y-99512380D01*
X129282888Y-98940952D02*
X129330507Y-98893333D01*
X129425746Y-98845714D01*
X129568603Y-98845714D01*
X129663841Y-98893333D01*
X129711460Y-98988571D01*
X129711460Y-99512380D01*
X130568603Y-99464761D02*
X130473365Y-99512380D01*
X130282888Y-99512380D01*
X130187650Y-99464761D01*
X130140031Y-99369523D01*
X130140031Y-98988571D01*
X130187650Y-98893333D01*
X130282888Y-98845714D01*
X130473365Y-98845714D01*
X130568603Y-98893333D01*
X130616222Y-98988571D01*
X130616222Y-99083809D01*
X130140031Y-99179047D01*
X132330507Y-99512380D02*
X131759079Y-99512380D01*
X132044793Y-99512380D02*
X132044793Y-98512380D01*
X131949555Y-98655238D01*
X131854317Y-98750476D01*
X131759079Y-98798095D01*
X146210539Y-99512380D02*
X145734349Y-99512380D01*
X145734349Y-98512380D01*
X146972444Y-99512380D02*
X146972444Y-98988571D01*
X146924825Y-98893333D01*
X146829587Y-98845714D01*
X146639111Y-98845714D01*
X146543872Y-98893333D01*
X146972444Y-99464761D02*
X146877206Y-99512380D01*
X146639111Y-99512380D01*
X146543872Y-99464761D01*
X146496253Y-99369523D01*
X146496253Y-99274285D01*
X146543872Y-99179047D01*
X146639111Y-99131428D01*
X146877206Y-99131428D01*
X146972444Y-99083809D01*
X147448634Y-98845714D02*
X147448634Y-99512380D01*
X147448634Y-98940952D02*
X147496253Y-98893333D01*
X147591492Y-98845714D01*
X147734349Y-98845714D01*
X147829587Y-98893333D01*
X147877206Y-98988571D01*
X147877206Y-99512380D01*
X148734349Y-99464761D02*
X148639111Y-99512380D01*
X148448634Y-99512380D01*
X148353396Y-99464761D01*
X148305777Y-99369523D01*
X148305777Y-98988571D01*
X148353396Y-98893333D01*
X148448634Y-98845714D01*
X148639111Y-98845714D01*
X148734349Y-98893333D01*
X148781968Y-98988571D01*
X148781968Y-99083809D01*
X148305777Y-99179047D01*
X149924825Y-98607619D02*
X149972444Y-98560000D01*
X150067682Y-98512380D01*
X150305777Y-98512380D01*
X150401015Y-98560000D01*
X150448634Y-98607619D01*
X150496253Y-98702857D01*
X150496253Y-98798095D01*
X150448634Y-98940952D01*
X149877206Y-99512380D01*
X150496253Y-99512380D01*
X109879047Y-99512380D02*
X109402857Y-99512380D01*
X109402857Y-98512380D01*
X110640952Y-99512380D02*
X110640952Y-98988571D01*
X110593333Y-98893333D01*
X110498095Y-98845714D01*
X110307619Y-98845714D01*
X110212380Y-98893333D01*
X110640952Y-99464761D02*
X110545714Y-99512380D01*
X110307619Y-99512380D01*
X110212380Y-99464761D01*
X110164761Y-99369523D01*
X110164761Y-99274285D01*
X110212380Y-99179047D01*
X110307619Y-99131428D01*
X110545714Y-99131428D01*
X110640952Y-99083809D01*
X111117142Y-98845714D02*
X111117142Y-99512380D01*
X111117142Y-98940952D02*
X111164761Y-98893333D01*
X111260000Y-98845714D01*
X111402857Y-98845714D01*
X111498095Y-98893333D01*
X111545714Y-98988571D01*
X111545714Y-99512380D01*
X112402857Y-99464761D02*
X112307619Y-99512380D01*
X112117142Y-99512380D01*
X112021904Y-99464761D01*
X111974285Y-99369523D01*
X111974285Y-98988571D01*
X112021904Y-98893333D01*
X112117142Y-98845714D01*
X112307619Y-98845714D01*
X112402857Y-98893333D01*
X112450476Y-98988571D01*
X112450476Y-99083809D01*
X111974285Y-99179047D01*
X113831428Y-98512380D02*
X113926666Y-98512380D01*
X114021904Y-98560000D01*
X114069523Y-98607619D01*
X114117142Y-98702857D01*
X114164761Y-98893333D01*
X114164761Y-99131428D01*
X114117142Y-99321904D01*
X114069523Y-99417142D01*
X114021904Y-99464761D01*
X113926666Y-99512380D01*
X113831428Y-99512380D01*
X113736190Y-99464761D01*
X113688571Y-99417142D01*
X113640952Y-99321904D01*
X113593333Y-99131428D01*
X113593333Y-98893333D01*
X113640952Y-98702857D01*
X113688571Y-98607619D01*
X113736190Y-98560000D01*
X113831428Y-98512380D01*
D11*
X125229010Y-103534305D02*
X125229010Y-102034305D01*
X125729010Y-103105734D01*
X126229010Y-102034305D01*
X126229010Y-103534305D01*
X126943296Y-103391448D02*
X127014725Y-103462876D01*
X126943296Y-103534305D01*
X126871868Y-103462876D01*
X126943296Y-103391448D01*
X126943296Y-103534305D01*
X127586153Y-102177162D02*
X127657582Y-102105734D01*
X127800439Y-102034305D01*
X128157582Y-102034305D01*
X128300439Y-102105734D01*
X128371868Y-102177162D01*
X128443296Y-102320019D01*
X128443296Y-102462876D01*
X128371868Y-102677162D01*
X127514725Y-103534305D01*
X128443296Y-103534305D01*
X130157582Y-103462876D02*
X130371868Y-103534305D01*
X130729010Y-103534305D01*
X130871868Y-103462876D01*
X130943296Y-103391448D01*
X131014725Y-103248591D01*
X131014725Y-103105734D01*
X130943296Y-102962876D01*
X130871868Y-102891448D01*
X130729010Y-102820019D01*
X130443296Y-102748591D01*
X130300439Y-102677162D01*
X130229010Y-102605734D01*
X130157582Y-102462876D01*
X130157582Y-102320019D01*
X130229010Y-102177162D01*
X130300439Y-102105734D01*
X130443296Y-102034305D01*
X130800439Y-102034305D01*
X131014725Y-102105734D01*
X131586153Y-103105734D02*
X132300439Y-103105734D01*
X131443296Y-103534305D02*
X131943296Y-102034305D01*
X132443296Y-103534305D01*
X132729010Y-102034305D02*
X133586153Y-102034305D01*
X133157582Y-103534305D02*
X133157582Y-102034305D01*
X134014725Y-103105734D02*
X134729011Y-103105734D01*
X133871868Y-103534305D02*
X134371868Y-102034305D01*
X134871868Y-103534305D01*
X136514725Y-103534305D02*
X136514725Y-102034305D01*
X137086153Y-102034305D01*
X137229011Y-102105734D01*
X137300439Y-102177162D01*
X137371868Y-102320019D01*
X137371868Y-102534305D01*
X137300439Y-102677162D01*
X137229011Y-102748591D01*
X137086153Y-102820019D01*
X136514725Y-102820019D01*
X138229011Y-103534305D02*
X138086153Y-103462876D01*
X138014725Y-103391448D01*
X137943296Y-103248591D01*
X137943296Y-102820019D01*
X138014725Y-102677162D01*
X138086153Y-102605734D01*
X138229011Y-102534305D01*
X138443296Y-102534305D01*
X138586153Y-102605734D01*
X138657582Y-102677162D01*
X138729011Y-102820019D01*
X138729011Y-103248591D01*
X138657582Y-103391448D01*
X138586153Y-103462876D01*
X138443296Y-103534305D01*
X138229011Y-103534305D01*
X139371868Y-103534305D02*
X139371868Y-102534305D01*
X139371868Y-102820019D02*
X139443296Y-102677162D01*
X139514725Y-102605734D01*
X139657582Y-102534305D01*
X139800439Y-102534305D01*
X140086153Y-102534305D02*
X140657582Y-102534305D01*
X140300439Y-102034305D02*
X140300439Y-103320019D01*
X140371868Y-103462876D01*
X140514725Y-103534305D01*
X140657582Y-103534305D01*
X143157582Y-103534305D02*
X142657582Y-102820019D01*
X142300439Y-103534305D02*
X142300439Y-102034305D01*
X142871868Y-102034305D01*
X143014725Y-102105734D01*
X143086153Y-102177162D01*
X143157582Y-102320019D01*
X143157582Y-102534305D01*
X143086153Y-102677162D01*
X143014725Y-102748591D01*
X142871868Y-102820019D01*
X142300439Y-102820019D01*
X144371868Y-103462876D02*
X144229011Y-103534305D01*
X143943296Y-103534305D01*
X143800439Y-103462876D01*
X143729011Y-103320019D01*
X143729011Y-102748591D01*
X143800439Y-102605734D01*
X143943296Y-102534305D01*
X144229011Y-102534305D01*
X144371868Y-102605734D01*
X144443296Y-102748591D01*
X144443296Y-102891448D01*
X143729011Y-103034305D01*
X145729011Y-103462876D02*
X145586153Y-103534305D01*
X145300439Y-103534305D01*
X145157582Y-103462876D01*
X145086153Y-103391448D01*
X145014725Y-103248591D01*
X145014725Y-102820019D01*
X145086153Y-102677162D01*
X145157582Y-102605734D01*
X145300439Y-102534305D01*
X145586153Y-102534305D01*
X145729011Y-102605734D01*
X146586153Y-103534305D02*
X146443296Y-103462876D01*
X146371868Y-103320019D01*
X146371868Y-102034305D01*
X147800439Y-103534305D02*
X147800439Y-102748591D01*
X147729011Y-102605734D01*
X147586153Y-102534305D01*
X147300439Y-102534305D01*
X147157582Y-102605734D01*
X147800439Y-103462876D02*
X147657582Y-103534305D01*
X147300439Y-103534305D01*
X147157582Y-103462876D01*
X147086153Y-103320019D01*
X147086153Y-103177162D01*
X147157582Y-103034305D01*
X147300439Y-102962876D01*
X147657582Y-102962876D01*
X147800439Y-102891448D01*
X148514725Y-103534305D02*
X148514725Y-102534305D01*
X148514725Y-102034305D02*
X148443296Y-102105734D01*
X148514725Y-102177162D01*
X148586153Y-102105734D01*
X148514725Y-102034305D01*
X148514725Y-102177162D01*
X149229011Y-103534305D02*
X149229011Y-102534305D01*
X149229011Y-102677162D02*
X149300439Y-102605734D01*
X149443296Y-102534305D01*
X149657582Y-102534305D01*
X149800439Y-102605734D01*
X149871868Y-102748591D01*
X149871868Y-103534305D01*
X149871868Y-102748591D02*
X149943296Y-102605734D01*
X150086153Y-102534305D01*
X150300439Y-102534305D01*
X150443296Y-102605734D01*
X150514725Y-102748591D01*
X150514725Y-103534305D01*
X151800439Y-103462876D02*
X151657582Y-103534305D01*
X151371868Y-103534305D01*
X151229011Y-103462876D01*
X151157582Y-103320019D01*
X151157582Y-102748591D01*
X151229011Y-102605734D01*
X151371868Y-102534305D01*
X151657582Y-102534305D01*
X151800439Y-102605734D01*
X151871868Y-102748591D01*
X151871868Y-102891448D01*
X151157582Y-103034305D01*
X152514725Y-103534305D02*
X152514725Y-102534305D01*
X152514725Y-102820019D02*
X152586153Y-102677162D01*
X152657582Y-102605734D01*
X152800439Y-102534305D01*
X152943296Y-102534305D01*
X128693296Y-104592162D02*
X128764725Y-104520734D01*
X128907582Y-104449305D01*
X129264725Y-104449305D01*
X129407582Y-104520734D01*
X129479011Y-104592162D01*
X129550439Y-104735019D01*
X129550439Y-104877876D01*
X129479011Y-105092162D01*
X128621868Y-105949305D01*
X129550439Y-105949305D01*
X130479011Y-104449305D02*
X130621868Y-104449305D01*
X130764725Y-104520734D01*
X130836153Y-104592162D01*
X130907582Y-104735019D01*
X130979011Y-105020734D01*
X130979011Y-105377876D01*
X130907582Y-105663591D01*
X130836153Y-105806448D01*
X130764725Y-105877876D01*
X130621868Y-105949305D01*
X130479011Y-105949305D01*
X130336153Y-105877876D01*
X130264725Y-105806448D01*
X130193296Y-105663591D01*
X130121868Y-105377876D01*
X130121868Y-105020734D01*
X130193296Y-104735019D01*
X130264725Y-104592162D01*
X130336153Y-104520734D01*
X130479011Y-104449305D01*
X131550439Y-104592162D02*
X131621868Y-104520734D01*
X131764725Y-104449305D01*
X132121868Y-104449305D01*
X132264725Y-104520734D01*
X132336153Y-104592162D01*
X132407582Y-104735019D01*
X132407582Y-104877876D01*
X132336153Y-105092162D01*
X131479011Y-105949305D01*
X132407582Y-105949305D01*
X132979011Y-104592162D02*
X133050439Y-104520734D01*
X133193296Y-104449305D01*
X133550439Y-104449305D01*
X133693296Y-104520734D01*
X133764725Y-104592162D01*
X133836153Y-104735019D01*
X133836153Y-104877876D01*
X133764725Y-105092162D01*
X132907582Y-105949305D01*
X133836153Y-105949305D01*
X136479011Y-105949305D02*
X135979011Y-105235019D01*
X135621868Y-105949305D02*
X135621868Y-104449305D01*
X136193296Y-104449305D01*
X136336153Y-104520734D01*
X136407582Y-104592162D01*
X136479011Y-104735019D01*
X136479011Y-104949305D01*
X136407582Y-105092162D01*
X136336153Y-105163591D01*
X136193296Y-105235019D01*
X135621868Y-105235019D01*
X137121868Y-105949305D02*
X137121868Y-104949305D01*
X137121868Y-104449305D02*
X137050439Y-104520734D01*
X137121868Y-104592162D01*
X137193296Y-104520734D01*
X137121868Y-104449305D01*
X137121868Y-104592162D01*
X138479011Y-105877876D02*
X138336153Y-105949305D01*
X138050439Y-105949305D01*
X137907582Y-105877876D01*
X137836153Y-105806448D01*
X137764725Y-105663591D01*
X137764725Y-105235019D01*
X137836153Y-105092162D01*
X137907582Y-105020734D01*
X138050439Y-104949305D01*
X138336153Y-104949305D01*
X138479011Y-105020734D01*
X139121868Y-105949305D02*
X139121868Y-104449305D01*
X139764725Y-105949305D02*
X139764725Y-105163591D01*
X139693296Y-105020734D01*
X139550439Y-104949305D01*
X139336153Y-104949305D01*
X139193296Y-105020734D01*
X139121868Y-105092162D01*
X141121868Y-105949305D02*
X141121868Y-105163591D01*
X141050439Y-105020734D01*
X140907582Y-104949305D01*
X140621868Y-104949305D01*
X140479011Y-105020734D01*
X141121868Y-105877876D02*
X140979011Y-105949305D01*
X140621868Y-105949305D01*
X140479011Y-105877876D01*
X140407582Y-105735019D01*
X140407582Y-105592162D01*
X140479011Y-105449305D01*
X140621868Y-105377876D01*
X140979011Y-105377876D01*
X141121868Y-105306448D01*
X141836153Y-105949305D02*
X141836153Y-104949305D01*
X141836153Y-105235019D02*
X141907582Y-105092162D01*
X141979011Y-105020734D01*
X142121868Y-104949305D01*
X142264725Y-104949305D01*
X143407582Y-105949305D02*
X143407582Y-104449305D01*
X143407582Y-105877876D02*
X143264725Y-105949305D01*
X142979011Y-105949305D01*
X142836153Y-105877876D01*
X142764725Y-105806448D01*
X142693296Y-105663591D01*
X142693296Y-105235019D01*
X142764725Y-105092162D01*
X142836153Y-105020734D01*
X142979011Y-104949305D01*
X143264725Y-104949305D01*
X143407582Y-105020734D01*
X144907582Y-104520734D02*
X144764725Y-104449305D01*
X144550439Y-104449305D01*
X144336153Y-104520734D01*
X144193296Y-104663591D01*
X144121868Y-104806448D01*
X144050439Y-105092162D01*
X144050439Y-105306448D01*
X144121868Y-105592162D01*
X144193296Y-105735019D01*
X144336153Y-105877876D01*
X144550439Y-105949305D01*
X144693296Y-105949305D01*
X144907582Y-105877876D01*
X144979011Y-105806448D01*
X144979011Y-105306448D01*
X144693296Y-105306448D01*
X145836153Y-105092162D02*
X145693296Y-105020734D01*
X145621868Y-104949305D01*
X145550439Y-104806448D01*
X145550439Y-104735019D01*
X145621868Y-104592162D01*
X145693296Y-104520734D01*
X145836153Y-104449305D01*
X146121868Y-104449305D01*
X146264725Y-104520734D01*
X146336153Y-104592162D01*
X146407582Y-104735019D01*
X146407582Y-104806448D01*
X146336153Y-104949305D01*
X146264725Y-105020734D01*
X146121868Y-105092162D01*
X145836153Y-105092162D01*
X145693296Y-105163591D01*
X145621868Y-105235019D01*
X145550439Y-105377876D01*
X145550439Y-105663591D01*
X145621868Y-105806448D01*
X145693296Y-105877876D01*
X145836153Y-105949305D01*
X146121868Y-105949305D01*
X146264725Y-105877876D01*
X146336153Y-105806448D01*
X146407582Y-105663591D01*
X146407582Y-105377876D01*
X146336153Y-105235019D01*
X146264725Y-105163591D01*
X146121868Y-105092162D01*
X147693296Y-104449305D02*
X147407582Y-104449305D01*
X147264725Y-104520734D01*
X147193296Y-104592162D01*
X147050439Y-104806448D01*
X146979011Y-105092162D01*
X146979011Y-105663591D01*
X147050439Y-105806448D01*
X147121868Y-105877876D01*
X147264725Y-105949305D01*
X147550439Y-105949305D01*
X147693296Y-105877876D01*
X147764725Y-105806448D01*
X147836153Y-105663591D01*
X147836153Y-105306448D01*
X147764725Y-105163591D01*
X147693296Y-105092162D01*
X147550439Y-105020734D01*
X147264725Y-105020734D01*
X147121868Y-105092162D01*
X147050439Y-105163591D01*
X146979011Y-105306448D01*
X148336153Y-104449305D02*
X149336153Y-104449305D01*
X148693296Y-105949305D01*
X117479010Y-107578591D02*
X117693296Y-107650019D01*
X117764725Y-107721448D01*
X117836153Y-107864305D01*
X117836153Y-108078591D01*
X117764725Y-108221448D01*
X117693296Y-108292876D01*
X117550439Y-108364305D01*
X116979010Y-108364305D01*
X116979010Y-106864305D01*
X117479010Y-106864305D01*
X117621868Y-106935734D01*
X117693296Y-107007162D01*
X117764725Y-107150019D01*
X117764725Y-107292876D01*
X117693296Y-107435734D01*
X117621868Y-107507162D01*
X117479010Y-107578591D01*
X116979010Y-107578591D01*
X119121868Y-108364305D02*
X119121868Y-107578591D01*
X119050439Y-107435734D01*
X118907582Y-107364305D01*
X118621868Y-107364305D01*
X118479010Y-107435734D01*
X119121868Y-108292876D02*
X118979010Y-108364305D01*
X118621868Y-108364305D01*
X118479010Y-108292876D01*
X118407582Y-108150019D01*
X118407582Y-108007162D01*
X118479010Y-107864305D01*
X118621868Y-107792876D01*
X118979010Y-107792876D01*
X119121868Y-107721448D01*
X119764725Y-108292876D02*
X119907582Y-108364305D01*
X120193296Y-108364305D01*
X120336153Y-108292876D01*
X120407582Y-108150019D01*
X120407582Y-108078591D01*
X120336153Y-107935734D01*
X120193296Y-107864305D01*
X119979010Y-107864305D01*
X119836153Y-107792876D01*
X119764725Y-107650019D01*
X119764725Y-107578591D01*
X119836153Y-107435734D01*
X119979010Y-107364305D01*
X120193296Y-107364305D01*
X120336153Y-107435734D01*
X121621868Y-108292876D02*
X121479010Y-108364305D01*
X121193296Y-108364305D01*
X121050439Y-108292876D01*
X120979010Y-108150019D01*
X120979010Y-107578591D01*
X121050439Y-107435734D01*
X121193296Y-107364305D01*
X121479010Y-107364305D01*
X121621868Y-107435734D01*
X121693296Y-107578591D01*
X121693296Y-107721448D01*
X120979010Y-107864305D01*
X122979010Y-108364305D02*
X122979010Y-106864305D01*
X122979010Y-108292876D02*
X122836153Y-108364305D01*
X122550439Y-108364305D01*
X122407582Y-108292876D01*
X122336153Y-108221448D01*
X122264725Y-108078591D01*
X122264725Y-107650019D01*
X122336153Y-107507162D01*
X122407582Y-107435734D01*
X122550439Y-107364305D01*
X122836153Y-107364305D01*
X122979010Y-107435734D01*
X125050439Y-108364305D02*
X124907582Y-108292876D01*
X124836153Y-108221448D01*
X124764725Y-108078591D01*
X124764725Y-107650019D01*
X124836153Y-107507162D01*
X124907582Y-107435734D01*
X125050439Y-107364305D01*
X125264725Y-107364305D01*
X125407582Y-107435734D01*
X125479010Y-107507162D01*
X125550439Y-107650019D01*
X125550439Y-108078591D01*
X125479010Y-108221448D01*
X125407582Y-108292876D01*
X125264725Y-108364305D01*
X125050439Y-108364305D01*
X126193296Y-107364305D02*
X126193296Y-108364305D01*
X126193296Y-107507162D02*
X126264725Y-107435734D01*
X126407582Y-107364305D01*
X126621868Y-107364305D01*
X126764725Y-107435734D01*
X126836153Y-107578591D01*
X126836153Y-108364305D01*
X128693296Y-108364305D02*
X128693296Y-106864305D01*
X129193296Y-107935734D01*
X129693296Y-106864305D01*
X129693296Y-108364305D01*
X130407582Y-108221448D02*
X130479010Y-108292876D01*
X130407582Y-108364305D01*
X130336153Y-108292876D01*
X130407582Y-108221448D01*
X130407582Y-108364305D01*
X131050439Y-107007162D02*
X131121868Y-106935734D01*
X131264725Y-106864305D01*
X131621868Y-106864305D01*
X131764725Y-106935734D01*
X131836153Y-107007162D01*
X131907582Y-107150019D01*
X131907582Y-107292876D01*
X131836153Y-107507162D01*
X130979010Y-108364305D01*
X131907582Y-108364305D01*
X134336153Y-108292876D02*
X134193296Y-108364305D01*
X133907582Y-108364305D01*
X133764725Y-108292876D01*
X133693296Y-108221448D01*
X133621868Y-108078591D01*
X133621868Y-107650019D01*
X133693296Y-107507162D01*
X133764725Y-107435734D01*
X133907582Y-107364305D01*
X134193296Y-107364305D01*
X134336153Y-107435734D01*
X135621868Y-108364305D02*
X135621868Y-107578591D01*
X135550439Y-107435734D01*
X135407582Y-107364305D01*
X135121868Y-107364305D01*
X134979011Y-107435734D01*
X135621868Y-108292876D02*
X135479011Y-108364305D01*
X135121868Y-108364305D01*
X134979011Y-108292876D01*
X134907582Y-108150019D01*
X134907582Y-108007162D01*
X134979011Y-107864305D01*
X135121868Y-107792876D01*
X135479011Y-107792876D01*
X135621868Y-107721448D01*
X136336153Y-108364305D02*
X136336153Y-107364305D01*
X136336153Y-107650019D02*
X136407582Y-107507162D01*
X136479011Y-107435734D01*
X136621868Y-107364305D01*
X136764725Y-107364305D01*
X137907582Y-108364305D02*
X137907582Y-106864305D01*
X137907582Y-108292876D02*
X137764725Y-108364305D01*
X137479011Y-108364305D01*
X137336153Y-108292876D01*
X137264725Y-108221448D01*
X137193296Y-108078591D01*
X137193296Y-107650019D01*
X137264725Y-107507162D01*
X137336153Y-107435734D01*
X137479011Y-107364305D01*
X137764725Y-107364305D01*
X137907582Y-107435734D01*
X140407582Y-108364305D02*
X140407582Y-106864305D01*
X140407582Y-108292876D02*
X140264725Y-108364305D01*
X139979011Y-108364305D01*
X139836153Y-108292876D01*
X139764725Y-108221448D01*
X139693296Y-108078591D01*
X139693296Y-107650019D01*
X139764725Y-107507162D01*
X139836153Y-107435734D01*
X139979011Y-107364305D01*
X140264725Y-107364305D01*
X140407582Y-107435734D01*
X141693296Y-108292876D02*
X141550439Y-108364305D01*
X141264725Y-108364305D01*
X141121868Y-108292876D01*
X141050439Y-108150019D01*
X141050439Y-107578591D01*
X141121868Y-107435734D01*
X141264725Y-107364305D01*
X141550439Y-107364305D01*
X141693296Y-107435734D01*
X141764725Y-107578591D01*
X141764725Y-107721448D01*
X141050439Y-107864305D01*
X142336153Y-108292876D02*
X142479011Y-108364305D01*
X142764725Y-108364305D01*
X142907582Y-108292876D01*
X142979011Y-108150019D01*
X142979011Y-108078591D01*
X142907582Y-107935734D01*
X142764725Y-107864305D01*
X142550439Y-107864305D01*
X142407582Y-107792876D01*
X142336153Y-107650019D01*
X142336153Y-107578591D01*
X142407582Y-107435734D01*
X142550439Y-107364305D01*
X142764725Y-107364305D01*
X142907582Y-107435734D01*
X143621868Y-108364305D02*
X143621868Y-107364305D01*
X143621868Y-106864305D02*
X143550439Y-106935734D01*
X143621868Y-107007162D01*
X143693296Y-106935734D01*
X143621868Y-106864305D01*
X143621868Y-107007162D01*
X144979011Y-107364305D02*
X144979011Y-108578591D01*
X144907582Y-108721448D01*
X144836153Y-108792876D01*
X144693296Y-108864305D01*
X144479011Y-108864305D01*
X144336153Y-108792876D01*
X144979011Y-108292876D02*
X144836153Y-108364305D01*
X144550439Y-108364305D01*
X144407582Y-108292876D01*
X144336153Y-108221448D01*
X144264725Y-108078591D01*
X144264725Y-107650019D01*
X144336153Y-107507162D01*
X144407582Y-107435734D01*
X144550439Y-107364305D01*
X144836153Y-107364305D01*
X144979011Y-107435734D01*
X145693296Y-107364305D02*
X145693296Y-108364305D01*
X145693296Y-107507162D02*
X145764725Y-107435734D01*
X145907582Y-107364305D01*
X146121868Y-107364305D01*
X146264725Y-107435734D01*
X146336153Y-107578591D01*
X146336153Y-108364305D01*
X146979011Y-108292876D02*
X147121868Y-108364305D01*
X147407582Y-108364305D01*
X147550439Y-108292876D01*
X147621868Y-108150019D01*
X147621868Y-108078591D01*
X147550439Y-107935734D01*
X147407582Y-107864305D01*
X147193296Y-107864305D01*
X147050439Y-107792876D01*
X146979011Y-107650019D01*
X146979011Y-107578591D01*
X147050439Y-107435734D01*
X147193296Y-107364305D01*
X147407582Y-107364305D01*
X147550439Y-107435734D01*
X149407582Y-108364305D02*
X149407582Y-106864305D01*
X149407582Y-107435734D02*
X149550439Y-107364305D01*
X149836153Y-107364305D01*
X149979011Y-107435734D01*
X150050439Y-107507162D01*
X150121868Y-107650019D01*
X150121868Y-108078591D01*
X150050439Y-108221448D01*
X149979011Y-108292876D01*
X149836153Y-108364305D01*
X149550439Y-108364305D01*
X149407582Y-108292876D01*
X150621868Y-107364305D02*
X150979011Y-108364305D01*
X151336153Y-107364305D02*
X150979011Y-108364305D01*
X150836153Y-108721448D01*
X150764725Y-108792876D01*
X150621868Y-108864305D01*
X153907582Y-108221448D02*
X153836153Y-108292876D01*
X153621868Y-108364305D01*
X153479011Y-108364305D01*
X153264725Y-108292876D01*
X153121868Y-108150019D01*
X153050439Y-108007162D01*
X152979011Y-107721448D01*
X152979011Y-107507162D01*
X153050439Y-107221448D01*
X153121868Y-107078591D01*
X153264725Y-106935734D01*
X153479011Y-106864305D01*
X153621868Y-106864305D01*
X153836153Y-106935734D01*
X153907582Y-107007162D01*
X155407582Y-108364305D02*
X154907582Y-107650019D01*
X154550439Y-108364305D02*
X154550439Y-106864305D01*
X155121868Y-106864305D01*
X155264725Y-106935734D01*
X155336153Y-107007162D01*
X155407582Y-107150019D01*
X155407582Y-107364305D01*
X155336153Y-107507162D01*
X155264725Y-107578591D01*
X155121868Y-107650019D01*
X154550439Y-107650019D01*
X156050439Y-108364305D02*
X156050439Y-106864305D01*
X156764725Y-108364305D02*
X156764725Y-107364305D01*
X156764725Y-107507162D02*
X156836153Y-107435734D01*
X156979011Y-107364305D01*
X157193296Y-107364305D01*
X157336153Y-107435734D01*
X157407582Y-107578591D01*
X157407582Y-108364305D01*
X157407582Y-107578591D02*
X157479011Y-107435734D01*
X157621868Y-107364305D01*
X157836153Y-107364305D01*
X157979011Y-107435734D01*
X158050439Y-107578591D01*
X158050439Y-108364305D01*
X158764725Y-108364305D02*
X158764725Y-107364305D01*
X158764725Y-106864305D02*
X158693296Y-106935734D01*
X158764725Y-107007162D01*
X158836153Y-106935734D01*
X158764725Y-106864305D01*
X158764725Y-107007162D01*
X160050439Y-108292876D02*
X159907582Y-108364305D01*
X159621868Y-108364305D01*
X159479011Y-108292876D01*
X159407582Y-108150019D01*
X159407582Y-107578591D01*
X159479011Y-107435734D01*
X159621868Y-107364305D01*
X159907582Y-107364305D01*
X160050439Y-107435734D01*
X160121868Y-107578591D01*
X160121868Y-107721448D01*
X159407582Y-107864305D01*
X160764725Y-108364305D02*
X160764725Y-107364305D01*
X160764725Y-107650019D02*
X160836153Y-107507162D01*
X160907582Y-107435734D01*
X161050439Y-107364305D01*
X161193296Y-107364305D01*
D12*
X174707238Y-90743494D02*
X174707238Y-97203494D01*
X174707238Y-97203494D02*
X157807238Y-97203494D01*
X157807238Y-97203494D02*
X157807238Y-90743494D01*
X157807238Y-90743494D02*
X174707238Y-90743494D01*
X103310000Y-97210000D02*
X103310000Y-90750000D01*
X120210000Y-97210000D02*
X103310000Y-97210000D01*
X103310000Y-90750000D02*
X120210000Y-90750000D01*
X120210000Y-90750000D02*
X120210000Y-97210000D01*
X156541492Y-90750000D02*
X156541492Y-97210000D01*
X139641492Y-97210000D02*
X139641492Y-90750000D01*
X156541492Y-97210000D02*
X139641492Y-97210000D01*
X139641492Y-90750000D02*
X156541492Y-90750000D01*
X138375746Y-97210000D02*
X121475746Y-97210000D01*
X121475746Y-97210000D02*
X121475746Y-90750000D01*
X138375746Y-90750000D02*
X138375746Y-97210000D01*
X121475746Y-90750000D02*
X138375746Y-90750000D01*
%LPC*%
G36*
X99625000Y-93275000D02*
G01*
X97625000Y-93275000D01*
X97625000Y-90075000D01*
X99625000Y-90075000D01*
X99625000Y-93275000D01*
G37*
D13*
X99625000Y-93275000D02*
X97625000Y-93275000D01*
X97625000Y-90075000D01*
X99625000Y-90075000D01*
X99625000Y-93275000D01*
G36*
X99625000Y-109925000D02*
G01*
X97625000Y-109925000D01*
X97625000Y-94475000D01*
X99625000Y-94475000D01*
X99625000Y-109925000D01*
G37*
X99625000Y-109925000D02*
X97625000Y-109925000D01*
X97625000Y-94475000D01*
X99625000Y-94475000D01*
X99625000Y-109925000D01*
D14*
X162447238Y-93473494D03*
X163717238Y-94473494D03*
X164987238Y-94473494D03*
X166257238Y-93473494D03*
X167527238Y-94473494D03*
X168797238Y-94473494D03*
X170067238Y-93473494D03*
D15*
X172737238Y-93973494D03*
X159777238Y-93973494D03*
D14*
X107950000Y-93480000D03*
X109220000Y-94480000D03*
X110490000Y-94480000D03*
X111760000Y-93480000D03*
X113030000Y-94480000D03*
X114300000Y-94480000D03*
X115570000Y-93480000D03*
D15*
X118240000Y-93980000D03*
X105280000Y-93980000D03*
D14*
X144281492Y-93480000D03*
X145551492Y-94480000D03*
X146821492Y-94480000D03*
X148091492Y-93480000D03*
X149361492Y-94480000D03*
X150631492Y-94480000D03*
X151901492Y-93480000D03*
D15*
X154571492Y-93980000D03*
X141611492Y-93980000D03*
D14*
X126115746Y-93480000D03*
X127385746Y-94480000D03*
X128655746Y-94480000D03*
X129925746Y-93480000D03*
X131195746Y-94480000D03*
X132465746Y-94480000D03*
X133735746Y-93480000D03*
D15*
X136405746Y-93980000D03*
X123445746Y-93980000D03*
M02*
