G04 #@! TF.GenerationSoftware,KiCad,Pcbnew,(6.0.5)*
G04 #@! TF.CreationDate,2022-11-10T21:29:13-03:00*
G04 #@! TF.ProjectId,m2sata,6d327361-7461-42e6-9b69-6361645f7063,rev?*
G04 #@! TF.SameCoordinates,Original*
G04 #@! TF.FileFunction,Copper,L2,Bot*
G04 #@! TF.FilePolarity,Positive*
%FSLAX46Y46*%
G04 Gerber Fmt 4.6, Leading zero omitted, Abs format (unit mm)*
G04 Created by KiCad (PCBNEW (6.0.5)) date 2022-11-10 21:29:13*
%MOMM*%
%LPD*%
G01*
G04 APERTURE LIST*
G04 #@! TA.AperFunction,SMDPad,CuDef*
%ADD10R,1.950000X0.350000*%
G04 #@! TD*
G04 #@! TA.AperFunction,ComponentPad*
%ADD11O,1.100000X1.300000*%
G04 #@! TD*
G04 #@! TA.AperFunction,ComponentPad*
%ADD12C,2.500000*%
G04 #@! TD*
G04 #@! TA.AperFunction,ViaPad*
%ADD13C,0.800000*%
G04 #@! TD*
G04 #@! TA.AperFunction,Conductor*
%ADD14C,0.300000*%
G04 #@! TD*
G04 APERTURE END LIST*
D10*
X99150000Y-109000000D03*
X99150000Y-108500000D03*
X99150000Y-108000000D03*
X99150000Y-107500000D03*
X99150000Y-107000000D03*
X99150000Y-106500000D03*
X99150000Y-106000000D03*
X99150000Y-105500000D03*
X99150000Y-105000000D03*
X99150000Y-104500000D03*
X99150000Y-104000000D03*
X99150000Y-103500000D03*
X99150000Y-103000000D03*
X99150000Y-102500000D03*
X99150000Y-102000000D03*
X99150000Y-101500000D03*
X99150000Y-101000000D03*
X99150000Y-100500000D03*
X99150000Y-100000000D03*
X99150000Y-99500000D03*
X99150000Y-99000000D03*
X99150000Y-98500000D03*
X99150000Y-98000000D03*
X99150000Y-97500000D03*
X99150000Y-97000000D03*
X99150000Y-96500000D03*
X99150000Y-96000000D03*
X99150000Y-95500000D03*
X99150000Y-95000000D03*
X99150000Y-92500000D03*
X99150000Y-92000000D03*
X99150000Y-91500000D03*
X99150000Y-91000000D03*
D11*
X162447238Y-93473494D03*
X163717238Y-94473494D03*
X164987238Y-94473494D03*
X166257238Y-93473494D03*
X167527238Y-94473494D03*
X168797238Y-94473494D03*
X170067238Y-93473494D03*
D12*
X172737238Y-93973494D03*
X159777238Y-93973494D03*
D11*
X107950000Y-93480000D03*
X109220000Y-94480000D03*
X110490000Y-94480000D03*
X111760000Y-93480000D03*
X113030000Y-94480000D03*
X114300000Y-94480000D03*
X115570000Y-93480000D03*
D12*
X118240000Y-93980000D03*
X105280000Y-93980000D03*
D11*
X144281492Y-93480000D03*
X145551492Y-94480000D03*
X146821492Y-94480000D03*
X148091492Y-93480000D03*
X149361492Y-94480000D03*
X150631492Y-94480000D03*
X151901492Y-93480000D03*
D12*
X154571492Y-93980000D03*
X141611492Y-93980000D03*
D11*
X126115746Y-93480000D03*
X127385746Y-94480000D03*
X128655746Y-94480000D03*
X129925746Y-93480000D03*
X131195746Y-94480000D03*
X132465746Y-94480000D03*
X133735746Y-93480000D03*
D12*
X136405746Y-93980000D03*
X123445746Y-93980000D03*
D13*
X115000000Y-97500000D03*
X132500000Y-100000000D03*
X125000000Y-110000000D03*
X175000000Y-110000000D03*
X147500000Y-105000000D03*
X115000000Y-90000000D03*
X112500000Y-90000000D03*
X142500000Y-110000000D03*
X155000000Y-97500000D03*
X102500000Y-110000000D03*
X110000000Y-90000000D03*
X127500000Y-90000000D03*
X112500000Y-110000000D03*
X122500000Y-97500000D03*
X160000000Y-97500000D03*
X137500000Y-100000000D03*
X132500000Y-90000000D03*
X125000000Y-90000000D03*
X135000000Y-100000000D03*
X132500000Y-110000000D03*
X105000000Y-110000000D03*
X162500000Y-110000000D03*
X165000000Y-110000000D03*
X150000000Y-110000000D03*
X115000000Y-110000000D03*
X150000000Y-102500000D03*
X120000000Y-97500000D03*
X102500000Y-92500000D03*
X157500000Y-90000000D03*
X170000000Y-110000000D03*
X107500000Y-110000000D03*
X140000000Y-100000000D03*
X135000000Y-110000000D03*
X157500000Y-100000000D03*
X165000000Y-105000000D03*
X152500000Y-90000000D03*
X135000000Y-97500000D03*
X172500000Y-90000000D03*
X162500000Y-90000000D03*
X120000000Y-90000000D03*
X170000000Y-90000000D03*
X110000000Y-110000000D03*
X137500000Y-90000000D03*
X137500000Y-97500000D03*
X142500000Y-90000000D03*
X155000000Y-110000000D03*
X172500000Y-97500000D03*
X152500000Y-110000000D03*
X175000000Y-90000000D03*
X122500000Y-110000000D03*
X145000000Y-90000000D03*
X102500000Y-90000000D03*
X107500000Y-90000000D03*
X175000000Y-105000000D03*
X155000000Y-90000000D03*
X145000000Y-110000000D03*
X140000000Y-110000000D03*
X102500000Y-95000000D03*
X135000000Y-90000000D03*
X160000000Y-90000000D03*
X147500000Y-90000000D03*
X105000000Y-90000000D03*
X175000000Y-107500000D03*
X150000000Y-90000000D03*
X140000000Y-97500000D03*
X170000000Y-97500000D03*
X130000000Y-90000000D03*
X122500000Y-90000000D03*
X127500000Y-110000000D03*
X167500000Y-102500000D03*
X152500000Y-97500000D03*
X120000000Y-110000000D03*
X175000000Y-97500000D03*
X165000000Y-90000000D03*
X117500000Y-90000000D03*
X157500000Y-110000000D03*
X155000000Y-102500000D03*
X167500000Y-110000000D03*
X162500000Y-107500000D03*
X170000000Y-100000000D03*
X130000000Y-110000000D03*
X175000000Y-102500000D03*
X147500000Y-110000000D03*
X117500000Y-97500000D03*
X140000000Y-90000000D03*
X137500000Y-110000000D03*
X172500000Y-110000000D03*
X142500000Y-97500000D03*
X157500000Y-97500000D03*
X152500000Y-100000000D03*
X117500000Y-110000000D03*
X125000000Y-97500000D03*
X175000000Y-95000000D03*
X152500000Y-105000000D03*
X160000000Y-110000000D03*
X167500000Y-90000000D03*
X175000000Y-92500000D03*
X175000000Y-100000000D03*
X128497974Y-101421577D03*
X126746000Y-102225000D03*
X143540011Y-104516389D03*
X141842700Y-105215900D03*
X158726332Y-107519932D03*
X157053020Y-108204000D03*
D14*
X132465746Y-95130000D02*
X132465746Y-94480000D01*
X128497974Y-101421577D02*
X128497974Y-101068051D01*
X132055746Y-95540000D02*
X132465746Y-95130000D01*
X132055064Y-97510961D02*
X132055746Y-97510961D01*
X128497974Y-101068051D02*
X132055064Y-97510961D01*
X132055746Y-97510961D02*
X132055746Y-95540000D01*
X131605746Y-95540000D02*
X131195746Y-95130000D01*
X131605746Y-97324561D02*
X131605746Y-95540000D01*
X126746000Y-102184307D02*
X131605746Y-97324561D01*
X131195746Y-95130000D02*
X131195746Y-94480000D01*
X126746000Y-102225000D02*
X126746000Y-102184307D01*
X150220810Y-97473507D02*
X143540011Y-104154306D01*
X150221492Y-97473507D02*
X150220810Y-97473507D01*
X150221492Y-95540000D02*
X150631492Y-95130000D01*
X150221492Y-97473507D02*
X150221492Y-95540000D01*
X143540011Y-104154306D02*
X143540011Y-104516389D01*
X150631492Y-95130000D02*
X150631492Y-94480000D01*
X149771492Y-97287107D02*
X141842700Y-105215900D01*
X149771492Y-95540000D02*
X149361492Y-95130000D01*
X149361492Y-95130000D02*
X149361492Y-94480000D01*
X149771492Y-97287107D02*
X149771492Y-95540000D01*
X168797238Y-94473494D02*
X168797238Y-95123494D01*
X158726332Y-107166406D02*
X158726332Y-107519932D01*
X168797238Y-95123494D02*
X168387238Y-95533494D01*
X168386556Y-97506182D02*
X158726332Y-107166406D01*
X168387238Y-97506182D02*
X168386556Y-97506182D01*
X168387238Y-95533494D02*
X168387238Y-97506182D01*
X167527238Y-95123494D02*
X167527238Y-94473494D01*
X167937238Y-97319782D02*
X167937238Y-95533494D01*
X167937238Y-95533494D02*
X167527238Y-95123494D01*
X167937238Y-97319782D02*
X157053020Y-108204000D01*
G04 #@! TA.AperFunction,Conductor*
G36*
X177383691Y-89219407D02*
G01*
X177419655Y-89268907D01*
X177424500Y-89299500D01*
X177424500Y-98172397D01*
X177405593Y-98230588D01*
X177356093Y-98266552D01*
X177346546Y-98269135D01*
X177130568Y-98316118D01*
X176895959Y-98403622D01*
X176676191Y-98523624D01*
X176630719Y-98557664D01*
X176499817Y-98655656D01*
X176475738Y-98673681D01*
X176298681Y-98850738D01*
X176148624Y-99051191D01*
X176028622Y-99270959D01*
X175941118Y-99505568D01*
X175887892Y-99750242D01*
X175870029Y-100000000D01*
X175887892Y-100249758D01*
X175941118Y-100494432D01*
X176028622Y-100729041D01*
X176148624Y-100948809D01*
X176150740Y-100951635D01*
X176275830Y-101118736D01*
X176298681Y-101149262D01*
X176475738Y-101326319D01*
X176478565Y-101328435D01*
X176478567Y-101328437D01*
X176504887Y-101348140D01*
X176676191Y-101476376D01*
X176895959Y-101596378D01*
X177130568Y-101683882D01*
X177346544Y-101730865D01*
X177399386Y-101761710D01*
X177424006Y-101817724D01*
X177424500Y-101827603D01*
X177424500Y-110700500D01*
X177405593Y-110758691D01*
X177356093Y-110794655D01*
X177325500Y-110799500D01*
X101924500Y-110799500D01*
X101866309Y-110780593D01*
X101830345Y-110731093D01*
X101825500Y-110700500D01*
X101825500Y-110459281D01*
X101828057Y-110436926D01*
X101829388Y-110431183D01*
X101830655Y-110425718D01*
X101830656Y-110425000D01*
X101828935Y-110417458D01*
X101826933Y-110405144D01*
X101815841Y-110292520D01*
X101815841Y-110292519D01*
X101815364Y-110287678D01*
X101775309Y-110155633D01*
X101759227Y-110125545D01*
X101728223Y-110067543D01*
X101710262Y-110033940D01*
X101622725Y-109927275D01*
X101516060Y-109839738D01*
X101394367Y-109774691D01*
X101262322Y-109734636D01*
X101257483Y-109734159D01*
X101257481Y-109734159D01*
X101145896Y-109723169D01*
X101133248Y-109721090D01*
X101131184Y-109720612D01*
X101131183Y-109720612D01*
X101125718Y-109719345D01*
X101125000Y-109719344D01*
X101119548Y-109720588D01*
X101119545Y-109720588D01*
X101113266Y-109722020D01*
X101091248Y-109724500D01*
X97924500Y-109724500D01*
X97866309Y-109705593D01*
X97830345Y-109656093D01*
X97825500Y-109625500D01*
X97825500Y-109339185D01*
X97844407Y-109280994D01*
X97893907Y-109245030D01*
X97955093Y-109245030D01*
X98006815Y-109284183D01*
X98030448Y-109319552D01*
X98096769Y-109363867D01*
X98106332Y-109365769D01*
X98106334Y-109365770D01*
X98129005Y-109370279D01*
X98155252Y-109375500D01*
X100144748Y-109375500D01*
X100170995Y-109370279D01*
X100193666Y-109365770D01*
X100193668Y-109365769D01*
X100203231Y-109363867D01*
X100269552Y-109319552D01*
X100313867Y-109253231D01*
X100325500Y-109194748D01*
X100325500Y-108805252D01*
X100318351Y-108769311D01*
X100318351Y-108730689D01*
X100325500Y-108694748D01*
X100325500Y-108305252D01*
X100318351Y-108269311D01*
X100318351Y-108230689D01*
X100323660Y-108204000D01*
X156447338Y-108204000D01*
X156467976Y-108360762D01*
X156528484Y-108506841D01*
X156624738Y-108632282D01*
X156750179Y-108728536D01*
X156896258Y-108789044D01*
X157053020Y-108809682D01*
X157209782Y-108789044D01*
X157355861Y-108728536D01*
X157481302Y-108632282D01*
X157577556Y-108506841D01*
X157638064Y-108360762D01*
X157658702Y-108204000D01*
X157656844Y-108189888D01*
X157652278Y-108155200D01*
X157663429Y-108095039D01*
X157680427Y-108072275D01*
X158017400Y-107735302D01*
X158071917Y-107707525D01*
X158132349Y-107717096D01*
X158175614Y-107760361D01*
X158178868Y-107767420D01*
X158201796Y-107822773D01*
X158298050Y-107948214D01*
X158423491Y-108044468D01*
X158569570Y-108104976D01*
X158726332Y-108125614D01*
X158883094Y-108104976D01*
X159029173Y-108044468D01*
X159154614Y-107948214D01*
X159250868Y-107822773D01*
X159311376Y-107676694D01*
X159332014Y-107519932D01*
X159311376Y-107363170D01*
X159252886Y-107221963D01*
X159248085Y-107160967D01*
X159274346Y-107114074D01*
X168592280Y-97796139D01*
X168599001Y-97790214D01*
X168605032Y-97786960D01*
X168610586Y-97780952D01*
X168615199Y-97777374D01*
X168619515Y-97773446D01*
X168626390Y-97769007D01*
X168651586Y-97737046D01*
X168652832Y-97735587D01*
X168654984Y-97733435D01*
X168656598Y-97731177D01*
X168684239Y-97701275D01*
X168687546Y-97693794D01*
X168690748Y-97688920D01*
X168693565Y-97683796D01*
X168698630Y-97677371D01*
X168701341Y-97669651D01*
X168701540Y-97669289D01*
X168702553Y-97666871D01*
X168705667Y-97662513D01*
X168712859Y-97638465D01*
X168717158Y-97626813D01*
X168728111Y-97602039D01*
X168728112Y-97602036D01*
X168731420Y-97594553D01*
X168732126Y-97586402D01*
X168733962Y-97579250D01*
X168733918Y-97579241D01*
X168735229Y-97573154D01*
X168737293Y-97567276D01*
X168737738Y-97562138D01*
X168737738Y-97557010D01*
X168737877Y-97554809D01*
X168739100Y-97550718D01*
X168738467Y-97534601D01*
X168738133Y-97526098D01*
X168738426Y-97513670D01*
X168740783Y-97486456D01*
X168740783Y-97486454D01*
X168741489Y-97478302D01*
X168739516Y-97470360D01*
X168738874Y-97462203D01*
X168739096Y-97462186D01*
X168737738Y-97451090D01*
X168737738Y-95719684D01*
X168756645Y-95661493D01*
X168766734Y-95649680D01*
X169011175Y-95405239D01*
X169027478Y-95392074D01*
X169029512Y-95390761D01*
X169029516Y-95390758D01*
X169036390Y-95386319D01*
X169056222Y-95361162D01*
X169060138Y-95356756D01*
X169060137Y-95356755D01*
X169062788Y-95353626D01*
X169065667Y-95350747D01*
X169068456Y-95346844D01*
X169076275Y-95335903D01*
X169079074Y-95332175D01*
X169092224Y-95315494D01*
X169108630Y-95294683D01*
X169111196Y-95287376D01*
X169111846Y-95286126D01*
X169116349Y-95279824D01*
X169116915Y-95277930D01*
X169157199Y-95236358D01*
X169164765Y-95232753D01*
X169166321Y-95232091D01*
X169171611Y-95229840D01*
X169302754Y-95133329D01*
X169307930Y-95129520D01*
X169307931Y-95129519D01*
X169312562Y-95126111D01*
X169316285Y-95121729D01*
X169316287Y-95121727D01*
X169359034Y-95071411D01*
X171793642Y-95071411D01*
X171794082Y-95074190D01*
X171796382Y-95077066D01*
X171899580Y-95162743D01*
X171906209Y-95167384D01*
X172105063Y-95283584D01*
X172112359Y-95287080D01*
X172327521Y-95369243D01*
X172335291Y-95371501D01*
X172560981Y-95417418D01*
X172569025Y-95418377D01*
X172799187Y-95426816D01*
X172807263Y-95426450D01*
X173035722Y-95397183D01*
X173043631Y-95395501D01*
X173264225Y-95329320D01*
X173271773Y-95326362D01*
X173478594Y-95225042D01*
X173485553Y-95220893D01*
X173673054Y-95087152D01*
X173677405Y-95083474D01*
X173683192Y-95072166D01*
X173682407Y-95067155D01*
X172748324Y-94133072D01*
X172736441Y-94127018D01*
X172731410Y-94127814D01*
X171799696Y-95059528D01*
X171793642Y-95071411D01*
X169359034Y-95071411D01*
X169422144Y-94997125D01*
X169422145Y-94997124D01*
X169425870Y-94992739D01*
X169469948Y-94906417D01*
X169502841Y-94842002D01*
X169502842Y-94841999D01*
X169505457Y-94836878D01*
X169525779Y-94753828D01*
X169546006Y-94671168D01*
X169546006Y-94671165D01*
X169547053Y-94666888D01*
X169547738Y-94655846D01*
X169547738Y-94329672D01*
X169546802Y-94321645D01*
X169558840Y-94261656D01*
X169603840Y-94220199D01*
X169664613Y-94213110D01*
X169694860Y-94224569D01*
X169761164Y-94263082D01*
X169771645Y-94267639D01*
X169928015Y-94314999D01*
X169939263Y-94317022D01*
X169946587Y-94317477D01*
X169959504Y-94314148D01*
X169961811Y-94311354D01*
X169962238Y-94309113D01*
X169962238Y-94300790D01*
X170172238Y-94300790D01*
X170176360Y-94313475D01*
X170176964Y-94313914D01*
X170184111Y-94314430D01*
X170274765Y-94298852D01*
X170285731Y-94295625D01*
X170436072Y-94231654D01*
X170445991Y-94225996D01*
X170577587Y-94129153D01*
X170585944Y-94121360D01*
X170691726Y-93996846D01*
X170698069Y-93987334D01*
X170721219Y-93941998D01*
X171282937Y-93941998D01*
X171296196Y-94171938D01*
X171297321Y-94179944D01*
X171347955Y-94404624D01*
X171350378Y-94412358D01*
X171437023Y-94625739D01*
X171440677Y-94632973D01*
X171561013Y-94829342D01*
X171565796Y-94835878D01*
X171630058Y-94910064D01*
X171641480Y-94916954D01*
X171644836Y-94916667D01*
X171647092Y-94915148D01*
X172577660Y-93984580D01*
X172582902Y-93974291D01*
X172890762Y-93974291D01*
X172891558Y-93979322D01*
X173825888Y-94913652D01*
X173837771Y-94919706D01*
X173842748Y-94918918D01*
X173847622Y-94913191D01*
X173982019Y-94726158D01*
X173986191Y-94719215D01*
X174088234Y-94512746D01*
X174091214Y-94505222D01*
X174158168Y-94284849D01*
X174159878Y-94276936D01*
X174190125Y-94047188D01*
X174190535Y-94041924D01*
X174192142Y-93976135D01*
X174191991Y-93970865D01*
X174173003Y-93739907D01*
X174171681Y-93731921D01*
X174115574Y-93508553D01*
X174112961Y-93500877D01*
X174021129Y-93289677D01*
X174017296Y-93282530D01*
X173892204Y-93089167D01*
X173887258Y-93082744D01*
X173845034Y-93036341D01*
X173833447Y-93029732D01*
X173829458Y-93030172D01*
X173828142Y-93031082D01*
X172896816Y-93962408D01*
X172890762Y-93974291D01*
X172582902Y-93974291D01*
X172583714Y-93972697D01*
X172582918Y-93967666D01*
X171650140Y-93034888D01*
X171638257Y-93028834D01*
X171633661Y-93029562D01*
X171633278Y-93029846D01*
X171609326Y-93054911D01*
X171604223Y-93061212D01*
X171474440Y-93251466D01*
X171470438Y-93258512D01*
X171373472Y-93467409D01*
X171370674Y-93475014D01*
X171309129Y-93696936D01*
X171307608Y-93704910D01*
X171283135Y-93933907D01*
X171282937Y-93941998D01*
X170721219Y-93941998D01*
X170772368Y-93841827D01*
X170776352Y-93831117D01*
X170815507Y-93671106D01*
X170816827Y-93662427D01*
X170817144Y-93657316D01*
X170817238Y-93654282D01*
X170817238Y-93594174D01*
X170813116Y-93581489D01*
X170808995Y-93578494D01*
X170187918Y-93578494D01*
X170175233Y-93582616D01*
X170172238Y-93586737D01*
X170172238Y-94300790D01*
X169962238Y-94300790D01*
X169962238Y-93594174D01*
X169958116Y-93581489D01*
X169953995Y-93578494D01*
X169332918Y-93578494D01*
X169320233Y-93582616D01*
X169317238Y-93586737D01*
X169317238Y-93614423D01*
X169317570Y-93620130D01*
X169318142Y-93625039D01*
X169306102Y-93685028D01*
X169261101Y-93726483D01*
X169200327Y-93733570D01*
X169170084Y-93722113D01*
X169103511Y-93683444D01*
X169103506Y-93683442D01*
X169098536Y-93680555D01*
X168993121Y-93648628D01*
X168936550Y-93631494D01*
X168936548Y-93631494D01*
X168931045Y-93629827D01*
X168797319Y-93621531D01*
X168762116Y-93619347D01*
X168762115Y-93619347D01*
X168756376Y-93618991D01*
X168583898Y-93648628D01*
X168578603Y-93650881D01*
X168454327Y-93703761D01*
X168422865Y-93717148D01*
X168281914Y-93820877D01*
X168278191Y-93825259D01*
X168278189Y-93825261D01*
X168239564Y-93870726D01*
X168187479Y-93902832D01*
X168126470Y-93898191D01*
X168096033Y-93878500D01*
X167979866Y-93768454D01*
X167974896Y-93765567D01*
X167974893Y-93765565D01*
X167833510Y-93683444D01*
X167833509Y-93683444D01*
X167828536Y-93680555D01*
X167723121Y-93648628D01*
X167666550Y-93631494D01*
X167666548Y-93631494D01*
X167661045Y-93629827D01*
X167527319Y-93621531D01*
X167492116Y-93619347D01*
X167492115Y-93619347D01*
X167486376Y-93618991D01*
X167313898Y-93648628D01*
X167152865Y-93717148D01*
X167152821Y-93717044D01*
X167095373Y-93728940D01*
X167039609Y-93703761D01*
X167009295Y-93650613D01*
X167007238Y-93630538D01*
X167007238Y-93594174D01*
X167003116Y-93581489D01*
X166998995Y-93578494D01*
X166377918Y-93578494D01*
X166365233Y-93582616D01*
X166362238Y-93586737D01*
X166362238Y-94300790D01*
X166366360Y-94313475D01*
X166366964Y-94313914D01*
X166374111Y-94314430D01*
X166464765Y-94298852D01*
X166475731Y-94295625D01*
X166626070Y-94231655D01*
X166628687Y-94230162D01*
X166630423Y-94229802D01*
X166631362Y-94229403D01*
X166631442Y-94229591D01*
X166688601Y-94217754D01*
X166744366Y-94242932D01*
X166774681Y-94296080D01*
X166776738Y-94316156D01*
X166776738Y-94617316D01*
X166777070Y-94620163D01*
X166777070Y-94620164D01*
X166777720Y-94625739D01*
X166791895Y-94747322D01*
X166793857Y-94752728D01*
X166793858Y-94752731D01*
X166824039Y-94835878D01*
X166851607Y-94911825D01*
X166854760Y-94916634D01*
X166854762Y-94916638D01*
X166894096Y-94976631D01*
X166947561Y-95058179D01*
X166951730Y-95062128D01*
X166951733Y-95062132D01*
X167057941Y-95162743D01*
X167074610Y-95178534D01*
X167079580Y-95181421D01*
X167079583Y-95181423D01*
X167172855Y-95235599D01*
X167210258Y-95274197D01*
X167213730Y-95280632D01*
X167215847Y-95284786D01*
X167233819Y-95322213D01*
X167233821Y-95322216D01*
X167236512Y-95327820D01*
X167239830Y-95331768D01*
X167241338Y-95333276D01*
X167242520Y-95334565D01*
X167243386Y-95335591D01*
X167246460Y-95341288D01*
X167252465Y-95346839D01*
X167252469Y-95346844D01*
X167283256Y-95375303D01*
X167286059Y-95377997D01*
X167557742Y-95649680D01*
X167585519Y-95704197D01*
X167586738Y-95719684D01*
X167586738Y-97133592D01*
X167567831Y-97191783D01*
X167557742Y-97203596D01*
X157184745Y-107576593D01*
X157130228Y-107604370D01*
X157101820Y-107604742D01*
X157059455Y-107599165D01*
X157059454Y-107599165D01*
X157053020Y-107598318D01*
X156896258Y-107618956D01*
X156750179Y-107679464D01*
X156624738Y-107775718D01*
X156528484Y-107901159D01*
X156467976Y-108047238D01*
X156447338Y-108204000D01*
X100323660Y-108204000D01*
X100325500Y-108194748D01*
X100325500Y-107805252D01*
X100318351Y-107769311D01*
X100318351Y-107730689D01*
X100325500Y-107694748D01*
X100325500Y-107305252D01*
X100318351Y-107269311D01*
X100318351Y-107230689D01*
X100325500Y-107194748D01*
X100325500Y-106805252D01*
X100318351Y-106769311D01*
X100318351Y-106730689D01*
X100325500Y-106694748D01*
X100325500Y-106305252D01*
X100318351Y-106269311D01*
X100318351Y-106230689D01*
X100325500Y-106194748D01*
X100325500Y-105805252D01*
X100318351Y-105769311D01*
X100318351Y-105730689D01*
X100325500Y-105694748D01*
X100325500Y-105305252D01*
X100318351Y-105269311D01*
X100318351Y-105230689D01*
X100321293Y-105215900D01*
X141237018Y-105215900D01*
X141257656Y-105372662D01*
X141318164Y-105518741D01*
X141414418Y-105644182D01*
X141539859Y-105740436D01*
X141685938Y-105800944D01*
X141842700Y-105821582D01*
X141999462Y-105800944D01*
X142145541Y-105740436D01*
X142270982Y-105644182D01*
X142367236Y-105518741D01*
X142427744Y-105372662D01*
X142448382Y-105215900D01*
X142446224Y-105199509D01*
X142441958Y-105167100D01*
X142453109Y-105106939D01*
X142470107Y-105084175D01*
X142828573Y-104725709D01*
X142883090Y-104697932D01*
X142943522Y-104707503D01*
X142986787Y-104750768D01*
X142990041Y-104757827D01*
X143015475Y-104819230D01*
X143111729Y-104944671D01*
X143237170Y-105040925D01*
X143383249Y-105101433D01*
X143540011Y-105122071D01*
X143696773Y-105101433D01*
X143842852Y-105040925D01*
X143968293Y-104944671D01*
X144064547Y-104819230D01*
X144125055Y-104673151D01*
X144145693Y-104516389D01*
X144125055Y-104359627D01*
X144087647Y-104269315D01*
X144064547Y-104213548D01*
X144067192Y-104212452D01*
X144056941Y-104164280D01*
X144085397Y-104104602D01*
X150426539Y-97763460D01*
X150433256Y-97757538D01*
X150439286Y-97754285D01*
X150444840Y-97748277D01*
X150449453Y-97744699D01*
X150453770Y-97740771D01*
X150460644Y-97736332D01*
X150485833Y-97704379D01*
X150487085Y-97702914D01*
X150489239Y-97700760D01*
X150490856Y-97698498D01*
X150518493Y-97668600D01*
X150521799Y-97661121D01*
X150525005Y-97656241D01*
X150527821Y-97651118D01*
X150532884Y-97644696D01*
X150535595Y-97636977D01*
X150535788Y-97636626D01*
X150536805Y-97634198D01*
X150539921Y-97629837D01*
X150547111Y-97605793D01*
X150551406Y-97594151D01*
X150565674Y-97561878D01*
X150566380Y-97553725D01*
X150568216Y-97546575D01*
X150568172Y-97546566D01*
X150569483Y-97540479D01*
X150571547Y-97534601D01*
X150571992Y-97529463D01*
X150571992Y-97524335D01*
X150572131Y-97522134D01*
X150573354Y-97518043D01*
X150572387Y-97493423D01*
X150572680Y-97480995D01*
X150575037Y-97453781D01*
X150575037Y-97453779D01*
X150575743Y-97445627D01*
X150573770Y-97437685D01*
X150573128Y-97429528D01*
X150573350Y-97429511D01*
X150571992Y-97418415D01*
X150571992Y-95726190D01*
X150590899Y-95667999D01*
X150600988Y-95656186D01*
X150845429Y-95411745D01*
X150861732Y-95398580D01*
X150863766Y-95397267D01*
X150863770Y-95397264D01*
X150870644Y-95392825D01*
X150890476Y-95367668D01*
X150894392Y-95363262D01*
X150894391Y-95363261D01*
X150897042Y-95360132D01*
X150899921Y-95357253D01*
X150904570Y-95350747D01*
X150910529Y-95342409D01*
X150913328Y-95338681D01*
X150930012Y-95317517D01*
X150942884Y-95301189D01*
X150945450Y-95293882D01*
X150946100Y-95292632D01*
X150950603Y-95286330D01*
X150951169Y-95284436D01*
X150991453Y-95242864D01*
X150999019Y-95239259D01*
X151000575Y-95238597D01*
X151005865Y-95236346D01*
X151137008Y-95139835D01*
X151142184Y-95136026D01*
X151142185Y-95136025D01*
X151146816Y-95132617D01*
X151150539Y-95128235D01*
X151150541Y-95128233D01*
X151193288Y-95077917D01*
X153627896Y-95077917D01*
X153628336Y-95080696D01*
X153630636Y-95083572D01*
X153733834Y-95169249D01*
X153740463Y-95173890D01*
X153939317Y-95290090D01*
X153946613Y-95293586D01*
X154161775Y-95375749D01*
X154169545Y-95378007D01*
X154395235Y-95423924D01*
X154403279Y-95424883D01*
X154633441Y-95433322D01*
X154641517Y-95432956D01*
X154869976Y-95403689D01*
X154877885Y-95402007D01*
X155098479Y-95335826D01*
X155106027Y-95332868D01*
X155312848Y-95231548D01*
X155319807Y-95227399D01*
X155507308Y-95093658D01*
X155511659Y-95089980D01*
X155517446Y-95078672D01*
X155516661Y-95073661D01*
X155514411Y-95071411D01*
X158833642Y-95071411D01*
X158834082Y-95074190D01*
X158836382Y-95077066D01*
X158939580Y-95162743D01*
X158946209Y-95167384D01*
X159145063Y-95283584D01*
X159152359Y-95287080D01*
X159367521Y-95369243D01*
X159375291Y-95371501D01*
X159600981Y-95417418D01*
X159609025Y-95418377D01*
X159839187Y-95426816D01*
X159847263Y-95426450D01*
X160075722Y-95397183D01*
X160083631Y-95395501D01*
X160304225Y-95329320D01*
X160311773Y-95326362D01*
X160518594Y-95225042D01*
X160525553Y-95220893D01*
X160713054Y-95087152D01*
X160717405Y-95083474D01*
X160723192Y-95072166D01*
X160722407Y-95067155D01*
X159788324Y-94133072D01*
X159776441Y-94127018D01*
X159771410Y-94127814D01*
X158839696Y-95059528D01*
X158833642Y-95071411D01*
X155514411Y-95071411D01*
X154582578Y-94139578D01*
X154570695Y-94133524D01*
X154565664Y-94134320D01*
X153633950Y-95066034D01*
X153627896Y-95077917D01*
X151193288Y-95077917D01*
X151256398Y-95003631D01*
X151256399Y-95003630D01*
X151260124Y-94999245D01*
X151339711Y-94843384D01*
X151351841Y-94793813D01*
X151380260Y-94677674D01*
X151380260Y-94677671D01*
X151381307Y-94673394D01*
X151381992Y-94662352D01*
X151381992Y-94336178D01*
X151381056Y-94328151D01*
X151393094Y-94268162D01*
X151438094Y-94226705D01*
X151498867Y-94219616D01*
X151529114Y-94231075D01*
X151595418Y-94269588D01*
X151605899Y-94274145D01*
X151762269Y-94321505D01*
X151773517Y-94323528D01*
X151780841Y-94323983D01*
X151793758Y-94320654D01*
X151796065Y-94317860D01*
X151796492Y-94315619D01*
X151796492Y-94307296D01*
X152006492Y-94307296D01*
X152010614Y-94319981D01*
X152011218Y-94320420D01*
X152018365Y-94320936D01*
X152109019Y-94305358D01*
X152119985Y-94302131D01*
X152270326Y-94238160D01*
X152280245Y-94232502D01*
X152411841Y-94135659D01*
X152420198Y-94127866D01*
X152525980Y-94003352D01*
X152532323Y-93993840D01*
X152555473Y-93948504D01*
X153117191Y-93948504D01*
X153130450Y-94178444D01*
X153131575Y-94186450D01*
X153182209Y-94411130D01*
X153184632Y-94418864D01*
X153271277Y-94632245D01*
X153274931Y-94639479D01*
X153395267Y-94835848D01*
X153400050Y-94842384D01*
X153464312Y-94916570D01*
X153475734Y-94923460D01*
X153479090Y-94923173D01*
X153481346Y-94921654D01*
X154411914Y-93991086D01*
X154417156Y-93980797D01*
X154725016Y-93980797D01*
X154725812Y-93985828D01*
X155660142Y-94920158D01*
X155672025Y-94926212D01*
X155677002Y-94925424D01*
X155681876Y-94919697D01*
X155816273Y-94732664D01*
X155820445Y-94725721D01*
X155922488Y-94519252D01*
X155925468Y-94511728D01*
X155992422Y-94291355D01*
X155994132Y-94283442D01*
X156024379Y-94053694D01*
X156024789Y-94048430D01*
X156026396Y-93982641D01*
X156026245Y-93977371D01*
X156023337Y-93941998D01*
X158322937Y-93941998D01*
X158336196Y-94171938D01*
X158337321Y-94179944D01*
X158387955Y-94404624D01*
X158390378Y-94412358D01*
X158477023Y-94625739D01*
X158480677Y-94632973D01*
X158601013Y-94829342D01*
X158605796Y-94835878D01*
X158670058Y-94910064D01*
X158681480Y-94916954D01*
X158684836Y-94916667D01*
X158687092Y-94915148D01*
X159617660Y-93984580D01*
X159622902Y-93974291D01*
X159930762Y-93974291D01*
X159931558Y-93979322D01*
X160865888Y-94913652D01*
X160877771Y-94919706D01*
X160882748Y-94918918D01*
X160887622Y-94913191D01*
X161022019Y-94726158D01*
X161026191Y-94719215D01*
X161128234Y-94512746D01*
X161131214Y-94505222D01*
X161198168Y-94284849D01*
X161199878Y-94276936D01*
X161230125Y-94047188D01*
X161230535Y-94041924D01*
X161232142Y-93976135D01*
X161231991Y-93970865D01*
X161213003Y-93739907D01*
X161211681Y-93731921D01*
X161182167Y-93614423D01*
X161697238Y-93614423D01*
X161697570Y-93620135D01*
X161711718Y-93741489D01*
X161714349Y-93752617D01*
X161770094Y-93906192D01*
X161775212Y-93916413D01*
X161864792Y-94053044D01*
X161872125Y-94061814D01*
X161990734Y-94174173D01*
X161999886Y-94181020D01*
X162141164Y-94263082D01*
X162151645Y-94267639D01*
X162308015Y-94314999D01*
X162319263Y-94317022D01*
X162326587Y-94317477D01*
X162339504Y-94314148D01*
X162341811Y-94311354D01*
X162342238Y-94309113D01*
X162342238Y-94300790D01*
X162552238Y-94300790D01*
X162556360Y-94313475D01*
X162556964Y-94313914D01*
X162564111Y-94314430D01*
X162654765Y-94298852D01*
X162665731Y-94295625D01*
X162816070Y-94231655D01*
X162818687Y-94230162D01*
X162820423Y-94229802D01*
X162821362Y-94229403D01*
X162821442Y-94229591D01*
X162878601Y-94217754D01*
X162934366Y-94242932D01*
X162964681Y-94296080D01*
X162966738Y-94316156D01*
X162966738Y-94617316D01*
X162967070Y-94620163D01*
X162967070Y-94620164D01*
X162967720Y-94625739D01*
X162981895Y-94747322D01*
X162983857Y-94752728D01*
X162983858Y-94752731D01*
X163014039Y-94835878D01*
X163041607Y-94911825D01*
X163044760Y-94916634D01*
X163044762Y-94916638D01*
X163084096Y-94976631D01*
X163137561Y-95058179D01*
X163141730Y-95062128D01*
X163141733Y-95062132D01*
X163247941Y-95162743D01*
X163264610Y-95178534D01*
X163269580Y-95181421D01*
X163269583Y-95181423D01*
X163410966Y-95263544D01*
X163415940Y-95266433D01*
X163476537Y-95284786D01*
X163577926Y-95315494D01*
X163577928Y-95315494D01*
X163583431Y-95317161D01*
X163694042Y-95324023D01*
X163752360Y-95327641D01*
X163752361Y-95327641D01*
X163758100Y-95327997D01*
X163930578Y-95298360D01*
X163957088Y-95287080D01*
X164086321Y-95232091D01*
X164086322Y-95232091D01*
X164091611Y-95229840D01*
X164222754Y-95133329D01*
X164227930Y-95129520D01*
X164227931Y-95129519D01*
X164232562Y-95126111D01*
X164236285Y-95121729D01*
X164236287Y-95121727D01*
X164274912Y-95076262D01*
X164326997Y-95044156D01*
X164388006Y-95048797D01*
X164418443Y-95068488D01*
X164534610Y-95178534D01*
X164539580Y-95181421D01*
X164539583Y-95181423D01*
X164680966Y-95263544D01*
X164685940Y-95266433D01*
X164746537Y-95284786D01*
X164847926Y-95315494D01*
X164847928Y-95315494D01*
X164853431Y-95317161D01*
X164964042Y-95324023D01*
X165022360Y-95327641D01*
X165022361Y-95327641D01*
X165028100Y-95327997D01*
X165200578Y-95298360D01*
X165227088Y-95287080D01*
X165356321Y-95232091D01*
X165356322Y-95232091D01*
X165361611Y-95229840D01*
X165492754Y-95133329D01*
X165497930Y-95129520D01*
X165497931Y-95129519D01*
X165502562Y-95126111D01*
X165506285Y-95121729D01*
X165506287Y-95121727D01*
X165612144Y-94997125D01*
X165612145Y-94997124D01*
X165615870Y-94992739D01*
X165659948Y-94906417D01*
X165692841Y-94842002D01*
X165692842Y-94841999D01*
X165695457Y-94836878D01*
X165715779Y-94753828D01*
X165736006Y-94671168D01*
X165736006Y-94671165D01*
X165737053Y-94666888D01*
X165737738Y-94655846D01*
X165737738Y-94329672D01*
X165736802Y-94321645D01*
X165748840Y-94261656D01*
X165793840Y-94220199D01*
X165854613Y-94213110D01*
X165884860Y-94224569D01*
X165951164Y-94263082D01*
X165961645Y-94267639D01*
X166118015Y-94314999D01*
X166129263Y-94317022D01*
X166136587Y-94317477D01*
X166149504Y-94314148D01*
X166151811Y-94311354D01*
X166152238Y-94309113D01*
X166152238Y-93594174D01*
X166148116Y-93581489D01*
X166143995Y-93578494D01*
X165522918Y-93578494D01*
X165510233Y-93582616D01*
X165507238Y-93586737D01*
X165507238Y-93614423D01*
X165507570Y-93620130D01*
X165508142Y-93625039D01*
X165496102Y-93685028D01*
X165451101Y-93726483D01*
X165390327Y-93733570D01*
X165360084Y-93722113D01*
X165293511Y-93683444D01*
X165293506Y-93683442D01*
X165288536Y-93680555D01*
X165183121Y-93648628D01*
X165126550Y-93631494D01*
X165126548Y-93631494D01*
X165121045Y-93629827D01*
X164987319Y-93621531D01*
X164952116Y-93619347D01*
X164952115Y-93619347D01*
X164946376Y-93618991D01*
X164773898Y-93648628D01*
X164768603Y-93650881D01*
X164644327Y-93703761D01*
X164612865Y-93717148D01*
X164471914Y-93820877D01*
X164468191Y-93825259D01*
X164468189Y-93825261D01*
X164429564Y-93870726D01*
X164377479Y-93902832D01*
X164316470Y-93898191D01*
X164286033Y-93878500D01*
X164169866Y-93768454D01*
X164164896Y-93765567D01*
X164164893Y-93765565D01*
X164023510Y-93683444D01*
X164023509Y-93683444D01*
X164018536Y-93680555D01*
X163913121Y-93648628D01*
X163856550Y-93631494D01*
X163856548Y-93631494D01*
X163851045Y-93629827D01*
X163717319Y-93621531D01*
X163682116Y-93619347D01*
X163682115Y-93619347D01*
X163676376Y-93618991D01*
X163503898Y-93648628D01*
X163342865Y-93717148D01*
X163342821Y-93717044D01*
X163285373Y-93728940D01*
X163229609Y-93703761D01*
X163199295Y-93650613D01*
X163197238Y-93630538D01*
X163197238Y-93594174D01*
X163193116Y-93581489D01*
X163188995Y-93578494D01*
X162567918Y-93578494D01*
X162555233Y-93582616D01*
X162552238Y-93586737D01*
X162552238Y-94300790D01*
X162342238Y-94300790D01*
X162342238Y-93594174D01*
X162338116Y-93581489D01*
X162333995Y-93578494D01*
X161712918Y-93578494D01*
X161700233Y-93582616D01*
X161697238Y-93586737D01*
X161697238Y-93614423D01*
X161182167Y-93614423D01*
X161155574Y-93508553D01*
X161152961Y-93500877D01*
X161088582Y-93352814D01*
X161697238Y-93352814D01*
X161701360Y-93365499D01*
X161705481Y-93368494D01*
X162326558Y-93368494D01*
X162339243Y-93364372D01*
X162342238Y-93360251D01*
X162342238Y-93352814D01*
X162552238Y-93352814D01*
X162556360Y-93365499D01*
X162560481Y-93368494D01*
X163181558Y-93368494D01*
X163194243Y-93364372D01*
X163197238Y-93360251D01*
X163197238Y-93352814D01*
X165507238Y-93352814D01*
X165511360Y-93365499D01*
X165515481Y-93368494D01*
X166136558Y-93368494D01*
X166149243Y-93364372D01*
X166152238Y-93360251D01*
X166152238Y-93352814D01*
X166362238Y-93352814D01*
X166366360Y-93365499D01*
X166370481Y-93368494D01*
X166991558Y-93368494D01*
X167004243Y-93364372D01*
X167007238Y-93360251D01*
X167007238Y-93352814D01*
X169317238Y-93352814D01*
X169321360Y-93365499D01*
X169325481Y-93368494D01*
X169946558Y-93368494D01*
X169959243Y-93364372D01*
X169962238Y-93360251D01*
X169962238Y-93352814D01*
X170172238Y-93352814D01*
X170176360Y-93365499D01*
X170180481Y-93368494D01*
X170801558Y-93368494D01*
X170814243Y-93364372D01*
X170817238Y-93360251D01*
X170817238Y-93332565D01*
X170816906Y-93326853D01*
X170802758Y-93205499D01*
X170800127Y-93194371D01*
X170744382Y-93040796D01*
X170739264Y-93030575D01*
X170649684Y-92893944D01*
X170642351Y-92885174D01*
X170632267Y-92875621D01*
X171791229Y-92875621D01*
X171791252Y-92877138D01*
X171794366Y-92882130D01*
X172726152Y-93813916D01*
X172738035Y-93819970D01*
X172743066Y-93819174D01*
X173675594Y-92886646D01*
X173681648Y-92874763D01*
X173681309Y-92872623D01*
X173678274Y-92868922D01*
X173545594Y-92764136D01*
X173538850Y-92759656D01*
X173337221Y-92648352D01*
X173329829Y-92645030D01*
X173112740Y-92568154D01*
X173104901Y-92566083D01*
X172878166Y-92525695D01*
X172870098Y-92524932D01*
X172639806Y-92522119D01*
X172631727Y-92522684D01*
X172404072Y-92557520D01*
X172396186Y-92559399D01*
X172177272Y-92630951D01*
X172169815Y-92634086D01*
X171965525Y-92740432D01*
X171958669Y-92744750D01*
X171798899Y-92864708D01*
X171791229Y-92875621D01*
X170632267Y-92875621D01*
X170523742Y-92772815D01*
X170514590Y-92765968D01*
X170373312Y-92683906D01*
X170362831Y-92679349D01*
X170206461Y-92631989D01*
X170195213Y-92629966D01*
X170187889Y-92629511D01*
X170174972Y-92632840D01*
X170172665Y-92635634D01*
X170172238Y-92637875D01*
X170172238Y-93352814D01*
X169962238Y-93352814D01*
X169962238Y-92646198D01*
X169958116Y-92633513D01*
X169957512Y-92633074D01*
X169950365Y-92632558D01*
X169859711Y-92648136D01*
X169848745Y-92651363D01*
X169698404Y-92715334D01*
X169688485Y-92720992D01*
X169556889Y-92817835D01*
X169548532Y-92825628D01*
X169442750Y-92950142D01*
X169436407Y-92959654D01*
X169362108Y-93105161D01*
X169358124Y-93115871D01*
X169318969Y-93275882D01*
X169317649Y-93284561D01*
X169317332Y-93289672D01*
X169317238Y-93292706D01*
X169317238Y-93352814D01*
X167007238Y-93352814D01*
X167007238Y-93332565D01*
X167006906Y-93326853D01*
X166992758Y-93205499D01*
X166990127Y-93194371D01*
X166934382Y-93040796D01*
X166929264Y-93030575D01*
X166839684Y-92893944D01*
X166832351Y-92885174D01*
X166713742Y-92772815D01*
X166704590Y-92765968D01*
X166563312Y-92683906D01*
X166552831Y-92679349D01*
X166396461Y-92631989D01*
X166385213Y-92629966D01*
X166377889Y-92629511D01*
X166364972Y-92632840D01*
X166362665Y-92635634D01*
X166362238Y-92637875D01*
X166362238Y-93352814D01*
X166152238Y-93352814D01*
X166152238Y-92646198D01*
X166148116Y-92633513D01*
X166147512Y-92633074D01*
X166140365Y-92632558D01*
X166049711Y-92648136D01*
X166038745Y-92651363D01*
X165888404Y-92715334D01*
X165878485Y-92720992D01*
X165746889Y-92817835D01*
X165738532Y-92825628D01*
X165632750Y-92950142D01*
X165626407Y-92959654D01*
X165552108Y-93105161D01*
X165548124Y-93115871D01*
X165508969Y-93275882D01*
X165507649Y-93284561D01*
X165507332Y-93289672D01*
X165507238Y-93292706D01*
X165507238Y-93352814D01*
X163197238Y-93352814D01*
X163197238Y-93332565D01*
X163196906Y-93326853D01*
X163182758Y-93205499D01*
X163180127Y-93194371D01*
X163124382Y-93040796D01*
X163119264Y-93030575D01*
X163029684Y-92893944D01*
X163022351Y-92885174D01*
X162903742Y-92772815D01*
X162894590Y-92765968D01*
X162753312Y-92683906D01*
X162742831Y-92679349D01*
X162586461Y-92631989D01*
X162575213Y-92629966D01*
X162567889Y-92629511D01*
X162554972Y-92632840D01*
X162552665Y-92635634D01*
X162552238Y-92637875D01*
X162552238Y-93352814D01*
X162342238Y-93352814D01*
X162342238Y-92646198D01*
X162338116Y-92633513D01*
X162337512Y-92633074D01*
X162330365Y-92632558D01*
X162239711Y-92648136D01*
X162228745Y-92651363D01*
X162078404Y-92715334D01*
X162068485Y-92720992D01*
X161936889Y-92817835D01*
X161928532Y-92825628D01*
X161822750Y-92950142D01*
X161816407Y-92959654D01*
X161742108Y-93105161D01*
X161738124Y-93115871D01*
X161698969Y-93275882D01*
X161697649Y-93284561D01*
X161697332Y-93289672D01*
X161697238Y-93292706D01*
X161697238Y-93352814D01*
X161088582Y-93352814D01*
X161061129Y-93289677D01*
X161057296Y-93282530D01*
X160932204Y-93089167D01*
X160927258Y-93082744D01*
X160885034Y-93036341D01*
X160873447Y-93029732D01*
X160869458Y-93030172D01*
X160868142Y-93031082D01*
X159936816Y-93962408D01*
X159930762Y-93974291D01*
X159622902Y-93974291D01*
X159623714Y-93972697D01*
X159622918Y-93967666D01*
X158690140Y-93034888D01*
X158678257Y-93028834D01*
X158673661Y-93029562D01*
X158673278Y-93029846D01*
X158649326Y-93054911D01*
X158644223Y-93061212D01*
X158514440Y-93251466D01*
X158510438Y-93258512D01*
X158413472Y-93467409D01*
X158410674Y-93475014D01*
X158349129Y-93696936D01*
X158347608Y-93704910D01*
X158323135Y-93933907D01*
X158322937Y-93941998D01*
X156023337Y-93941998D01*
X156007257Y-93746413D01*
X156005935Y-93738427D01*
X155949828Y-93515059D01*
X155947215Y-93507383D01*
X155855383Y-93296183D01*
X155851550Y-93289036D01*
X155726458Y-93095673D01*
X155721512Y-93089250D01*
X155679288Y-93042847D01*
X155667701Y-93036238D01*
X155663712Y-93036678D01*
X155662396Y-93037588D01*
X154731070Y-93968914D01*
X154725016Y-93980797D01*
X154417156Y-93980797D01*
X154417968Y-93979203D01*
X154417172Y-93974172D01*
X153484394Y-93041394D01*
X153472511Y-93035340D01*
X153467915Y-93036068D01*
X153467532Y-93036352D01*
X153443580Y-93061417D01*
X153438477Y-93067718D01*
X153308694Y-93257972D01*
X153304692Y-93265018D01*
X153207726Y-93473915D01*
X153204928Y-93481520D01*
X153143383Y-93703442D01*
X153141862Y-93711416D01*
X153117389Y-93940413D01*
X153117191Y-93948504D01*
X152555473Y-93948504D01*
X152606622Y-93848333D01*
X152610606Y-93837623D01*
X152649761Y-93677612D01*
X152651081Y-93668933D01*
X152651398Y-93663822D01*
X152651492Y-93660788D01*
X152651492Y-93600680D01*
X152647370Y-93587995D01*
X152643249Y-93585000D01*
X152022172Y-93585000D01*
X152009487Y-93589122D01*
X152006492Y-93593243D01*
X152006492Y-94307296D01*
X151796492Y-94307296D01*
X151796492Y-93600680D01*
X151792370Y-93587995D01*
X151788249Y-93585000D01*
X151167172Y-93585000D01*
X151154487Y-93589122D01*
X151151492Y-93593243D01*
X151151492Y-93620929D01*
X151151824Y-93626636D01*
X151152396Y-93631545D01*
X151140356Y-93691534D01*
X151095355Y-93732989D01*
X151034581Y-93740076D01*
X151004338Y-93728619D01*
X150937765Y-93689950D01*
X150937760Y-93689948D01*
X150932790Y-93687061D01*
X150824562Y-93654282D01*
X150770804Y-93638000D01*
X150770802Y-93638000D01*
X150765299Y-93636333D01*
X150637443Y-93628401D01*
X150596370Y-93625853D01*
X150596369Y-93625853D01*
X150590630Y-93625497D01*
X150418152Y-93655134D01*
X150412857Y-93657387D01*
X150272654Y-93717044D01*
X150257119Y-93723654D01*
X150182027Y-93778916D01*
X150125009Y-93820877D01*
X150116168Y-93827383D01*
X150112445Y-93831765D01*
X150112443Y-93831767D01*
X150073818Y-93877232D01*
X150021733Y-93909338D01*
X149960724Y-93904697D01*
X149930287Y-93885006D01*
X149814120Y-93774960D01*
X149809150Y-93772073D01*
X149809147Y-93772071D01*
X149667764Y-93689950D01*
X149667763Y-93689950D01*
X149662790Y-93687061D01*
X149554562Y-93654282D01*
X149500804Y-93638000D01*
X149500802Y-93638000D01*
X149495299Y-93636333D01*
X149367443Y-93628401D01*
X149326370Y-93625853D01*
X149326369Y-93625853D01*
X149320630Y-93625497D01*
X149148152Y-93655134D01*
X148987119Y-93723654D01*
X148987075Y-93723550D01*
X148929627Y-93735446D01*
X148873863Y-93710267D01*
X148843549Y-93657119D01*
X148841492Y-93637044D01*
X148841492Y-93600680D01*
X148837370Y-93587995D01*
X148833249Y-93585000D01*
X148212172Y-93585000D01*
X148199487Y-93589122D01*
X148196492Y-93593243D01*
X148196492Y-94307296D01*
X148200614Y-94319981D01*
X148201218Y-94320420D01*
X148208365Y-94320936D01*
X148299019Y-94305358D01*
X148309985Y-94302131D01*
X148460324Y-94238161D01*
X148462941Y-94236668D01*
X148464677Y-94236308D01*
X148465616Y-94235909D01*
X148465696Y-94236097D01*
X148522855Y-94224260D01*
X148578620Y-94249438D01*
X148608935Y-94302586D01*
X148610992Y-94322662D01*
X148610992Y-94623822D01*
X148626149Y-94753828D01*
X148685861Y-94918331D01*
X148689014Y-94923140D01*
X148689016Y-94923144D01*
X148724084Y-94976631D01*
X148781815Y-95064685D01*
X148785984Y-95068634D01*
X148785987Y-95068638D01*
X148885327Y-95162743D01*
X148908864Y-95185040D01*
X148913834Y-95187927D01*
X148913837Y-95187929D01*
X149007109Y-95242105D01*
X149044512Y-95280703D01*
X149047984Y-95287138D01*
X149050101Y-95291292D01*
X149068073Y-95328719D01*
X149068075Y-95328722D01*
X149070766Y-95334326D01*
X149074084Y-95338274D01*
X149075592Y-95339782D01*
X149076774Y-95341071D01*
X149077640Y-95342097D01*
X149080714Y-95347794D01*
X149086719Y-95353345D01*
X149086723Y-95353350D01*
X149117510Y-95381809D01*
X149120313Y-95384503D01*
X149391996Y-95656186D01*
X149419773Y-95710703D01*
X149420992Y-95726190D01*
X149420992Y-97100917D01*
X149402085Y-97159108D01*
X149391996Y-97170921D01*
X141974425Y-104588493D01*
X141919908Y-104616270D01*
X141891500Y-104616642D01*
X141849135Y-104611065D01*
X141849134Y-104611065D01*
X141842700Y-104610218D01*
X141685938Y-104630856D01*
X141539859Y-104691364D01*
X141414418Y-104787618D01*
X141318164Y-104913059D01*
X141257656Y-105059138D01*
X141237018Y-105215900D01*
X100321293Y-105215900D01*
X100325500Y-105194748D01*
X100325500Y-104805252D01*
X100318351Y-104769311D01*
X100318351Y-104730689D01*
X100325500Y-104694748D01*
X100325500Y-104305252D01*
X100318351Y-104269311D01*
X100318351Y-104230689D01*
X100325500Y-104194748D01*
X100325500Y-103805252D01*
X100318351Y-103769311D01*
X100318351Y-103730689D01*
X100325500Y-103694748D01*
X100325500Y-103305252D01*
X100318351Y-103269311D01*
X100318351Y-103230689D01*
X100325500Y-103194748D01*
X100325500Y-102805252D01*
X100318351Y-102769311D01*
X100318351Y-102730689D01*
X100325500Y-102694748D01*
X100325500Y-102305252D01*
X100318351Y-102269311D01*
X100318351Y-102230689D01*
X100319483Y-102225000D01*
X126140318Y-102225000D01*
X126160956Y-102381762D01*
X126221464Y-102527841D01*
X126317718Y-102653282D01*
X126443159Y-102749536D01*
X126589238Y-102810044D01*
X126746000Y-102830682D01*
X126902762Y-102810044D01*
X127048841Y-102749536D01*
X127174282Y-102653282D01*
X127270536Y-102527841D01*
X127331044Y-102381762D01*
X127351682Y-102225000D01*
X127348326Y-102199509D01*
X127340524Y-102140241D01*
X127351674Y-102080081D01*
X127368673Y-102057316D01*
X127789042Y-101636947D01*
X127843559Y-101609170D01*
X127903991Y-101618741D01*
X127947256Y-101662006D01*
X127950510Y-101669065D01*
X127973438Y-101724418D01*
X128069692Y-101849859D01*
X128195133Y-101946113D01*
X128341212Y-102006621D01*
X128497974Y-102027259D01*
X128654736Y-102006621D01*
X128800815Y-101946113D01*
X128926256Y-101849859D01*
X129022510Y-101724418D01*
X129083018Y-101578339D01*
X129103656Y-101421577D01*
X129083018Y-101264815D01*
X129024528Y-101123608D01*
X129019727Y-101062612D01*
X129045988Y-101015719D01*
X132260788Y-97800918D01*
X132267509Y-97794993D01*
X132273540Y-97791739D01*
X132279094Y-97785731D01*
X132283707Y-97782153D01*
X132288023Y-97778225D01*
X132294898Y-97773786D01*
X132320094Y-97741825D01*
X132321340Y-97740366D01*
X132323492Y-97738214D01*
X132325106Y-97735956D01*
X132352747Y-97706054D01*
X132356054Y-97698573D01*
X132359256Y-97693699D01*
X132362073Y-97688575D01*
X132367138Y-97682150D01*
X132369849Y-97674430D01*
X132370048Y-97674068D01*
X132371061Y-97671650D01*
X132374175Y-97667292D01*
X132381367Y-97643244D01*
X132385666Y-97631592D01*
X132396619Y-97606818D01*
X132396620Y-97606815D01*
X132399928Y-97599332D01*
X132400634Y-97591181D01*
X132402470Y-97584029D01*
X132402426Y-97584020D01*
X132403737Y-97577933D01*
X132405801Y-97572055D01*
X132406246Y-97566917D01*
X132406246Y-97561789D01*
X132406385Y-97559588D01*
X132407608Y-97555497D01*
X132407287Y-97547322D01*
X132406641Y-97530877D01*
X132406934Y-97518449D01*
X132409291Y-97491235D01*
X132409291Y-97491233D01*
X132409997Y-97483081D01*
X132408024Y-97475139D01*
X132407382Y-97466982D01*
X132407604Y-97466965D01*
X132406246Y-97455869D01*
X132406246Y-95726190D01*
X132425153Y-95667999D01*
X132435242Y-95656186D01*
X132679683Y-95411745D01*
X132695986Y-95398580D01*
X132698020Y-95397267D01*
X132698024Y-95397264D01*
X132704898Y-95392825D01*
X132724730Y-95367668D01*
X132728646Y-95363262D01*
X132728645Y-95363261D01*
X132731296Y-95360132D01*
X132734175Y-95357253D01*
X132738824Y-95350747D01*
X132744783Y-95342409D01*
X132747582Y-95338681D01*
X132764266Y-95317517D01*
X132777138Y-95301189D01*
X132779704Y-95293882D01*
X132780354Y-95292632D01*
X132784857Y-95286330D01*
X132785423Y-95284436D01*
X132825707Y-95242864D01*
X132833273Y-95239259D01*
X132834829Y-95238597D01*
X132840119Y-95236346D01*
X132971262Y-95139835D01*
X132976438Y-95136026D01*
X132976439Y-95136025D01*
X132981070Y-95132617D01*
X132984793Y-95128235D01*
X132984795Y-95128233D01*
X133027542Y-95077917D01*
X135462150Y-95077917D01*
X135462590Y-95080696D01*
X135464890Y-95083572D01*
X135568088Y-95169249D01*
X135574717Y-95173890D01*
X135773571Y-95290090D01*
X135780867Y-95293586D01*
X135996029Y-95375749D01*
X136003799Y-95378007D01*
X136229489Y-95423924D01*
X136237533Y-95424883D01*
X136467695Y-95433322D01*
X136475771Y-95432956D01*
X136704230Y-95403689D01*
X136712139Y-95402007D01*
X136932733Y-95335826D01*
X136940281Y-95332868D01*
X137147102Y-95231548D01*
X137154061Y-95227399D01*
X137341562Y-95093658D01*
X137345913Y-95089980D01*
X137351700Y-95078672D01*
X137351582Y-95077917D01*
X140667896Y-95077917D01*
X140668336Y-95080696D01*
X140670636Y-95083572D01*
X140773834Y-95169249D01*
X140780463Y-95173890D01*
X140979317Y-95290090D01*
X140986613Y-95293586D01*
X141201775Y-95375749D01*
X141209545Y-95378007D01*
X141435235Y-95423924D01*
X141443279Y-95424883D01*
X141673441Y-95433322D01*
X141681517Y-95432956D01*
X141909976Y-95403689D01*
X141917885Y-95402007D01*
X142138479Y-95335826D01*
X142146027Y-95332868D01*
X142352848Y-95231548D01*
X142359807Y-95227399D01*
X142547308Y-95093658D01*
X142551659Y-95089980D01*
X142557446Y-95078672D01*
X142556661Y-95073661D01*
X141622578Y-94139578D01*
X141610695Y-94133524D01*
X141605664Y-94134320D01*
X140673950Y-95066034D01*
X140667896Y-95077917D01*
X137351582Y-95077917D01*
X137350915Y-95073661D01*
X136416832Y-94139578D01*
X136404949Y-94133524D01*
X136399918Y-94134320D01*
X135468204Y-95066034D01*
X135462150Y-95077917D01*
X133027542Y-95077917D01*
X133090652Y-95003631D01*
X133090653Y-95003630D01*
X133094378Y-94999245D01*
X133173965Y-94843384D01*
X133186095Y-94793813D01*
X133214514Y-94677674D01*
X133214514Y-94677671D01*
X133215561Y-94673394D01*
X133216246Y-94662352D01*
X133216246Y-94336178D01*
X133215310Y-94328151D01*
X133227348Y-94268162D01*
X133272348Y-94226705D01*
X133333121Y-94219616D01*
X133363368Y-94231075D01*
X133429672Y-94269588D01*
X133440153Y-94274145D01*
X133596523Y-94321505D01*
X133607771Y-94323528D01*
X133615095Y-94323983D01*
X133628012Y-94320654D01*
X133630319Y-94317860D01*
X133630746Y-94315619D01*
X133630746Y-94307296D01*
X133840746Y-94307296D01*
X133844868Y-94319981D01*
X133845472Y-94320420D01*
X133852619Y-94320936D01*
X133943273Y-94305358D01*
X133954239Y-94302131D01*
X134104580Y-94238160D01*
X134114499Y-94232502D01*
X134246095Y-94135659D01*
X134254452Y-94127866D01*
X134360234Y-94003352D01*
X134366577Y-93993840D01*
X134389727Y-93948504D01*
X134951445Y-93948504D01*
X134964704Y-94178444D01*
X134965829Y-94186450D01*
X135016463Y-94411130D01*
X135018886Y-94418864D01*
X135105531Y-94632245D01*
X135109185Y-94639479D01*
X135229521Y-94835848D01*
X135234304Y-94842384D01*
X135298566Y-94916570D01*
X135309988Y-94923460D01*
X135313344Y-94923173D01*
X135315600Y-94921654D01*
X136246168Y-93991086D01*
X136251410Y-93980797D01*
X136559270Y-93980797D01*
X136560066Y-93985828D01*
X137494396Y-94920158D01*
X137506279Y-94926212D01*
X137511256Y-94925424D01*
X137516130Y-94919697D01*
X137650527Y-94732664D01*
X137654699Y-94725721D01*
X137756742Y-94519252D01*
X137759722Y-94511728D01*
X137826676Y-94291355D01*
X137828386Y-94283442D01*
X137858633Y-94053694D01*
X137859043Y-94048430D01*
X137860650Y-93982641D01*
X137860499Y-93977371D01*
X137858126Y-93948504D01*
X140157191Y-93948504D01*
X140170450Y-94178444D01*
X140171575Y-94186450D01*
X140222209Y-94411130D01*
X140224632Y-94418864D01*
X140311277Y-94632245D01*
X140314931Y-94639479D01*
X140435267Y-94835848D01*
X140440050Y-94842384D01*
X140504312Y-94916570D01*
X140515734Y-94923460D01*
X140519090Y-94923173D01*
X140521346Y-94921654D01*
X141451914Y-93991086D01*
X141457156Y-93980797D01*
X141765016Y-93980797D01*
X141765812Y-93985828D01*
X142700142Y-94920158D01*
X142712025Y-94926212D01*
X142717002Y-94925424D01*
X142721876Y-94919697D01*
X142856273Y-94732664D01*
X142860445Y-94725721D01*
X142962488Y-94519252D01*
X142965468Y-94511728D01*
X143032422Y-94291355D01*
X143034132Y-94283442D01*
X143064379Y-94053694D01*
X143064789Y-94048430D01*
X143066396Y-93982641D01*
X143066245Y-93977371D01*
X143047257Y-93746413D01*
X143045935Y-93738427D01*
X143016421Y-93620929D01*
X143531492Y-93620929D01*
X143531824Y-93626641D01*
X143545972Y-93747995D01*
X143548603Y-93759123D01*
X143604348Y-93912698D01*
X143609466Y-93922919D01*
X143699046Y-94059550D01*
X143706379Y-94068320D01*
X143824988Y-94180679D01*
X143834140Y-94187526D01*
X143975418Y-94269588D01*
X143985899Y-94274145D01*
X144142269Y-94321505D01*
X144153517Y-94323528D01*
X144160841Y-94323983D01*
X144173758Y-94320654D01*
X144176065Y-94317860D01*
X144176492Y-94315619D01*
X144176492Y-94307296D01*
X144386492Y-94307296D01*
X144390614Y-94319981D01*
X144391218Y-94320420D01*
X144398365Y-94320936D01*
X144489019Y-94305358D01*
X144499985Y-94302131D01*
X144650324Y-94238161D01*
X144652941Y-94236668D01*
X144654677Y-94236308D01*
X144655616Y-94235909D01*
X144655696Y-94236097D01*
X144712855Y-94224260D01*
X144768620Y-94249438D01*
X144798935Y-94302586D01*
X144800992Y-94322662D01*
X144800992Y-94623822D01*
X144816149Y-94753828D01*
X144875861Y-94918331D01*
X144879014Y-94923140D01*
X144879016Y-94923144D01*
X144914084Y-94976631D01*
X144971815Y-95064685D01*
X144975984Y-95068634D01*
X144975987Y-95068638D01*
X145075327Y-95162743D01*
X145098864Y-95185040D01*
X145103834Y-95187927D01*
X145103837Y-95187929D01*
X145243955Y-95269315D01*
X145250194Y-95272939D01*
X145310791Y-95291292D01*
X145412180Y-95322000D01*
X145412182Y-95322000D01*
X145417685Y-95323667D01*
X145545541Y-95331599D01*
X145586614Y-95334147D01*
X145586615Y-95334147D01*
X145592354Y-95334503D01*
X145764832Y-95304866D01*
X145792223Y-95293211D01*
X145920575Y-95238597D01*
X145920576Y-95238597D01*
X145925865Y-95236346D01*
X146057008Y-95139835D01*
X146062184Y-95136026D01*
X146062185Y-95136025D01*
X146066816Y-95132617D01*
X146070539Y-95128235D01*
X146070541Y-95128233D01*
X146109166Y-95082768D01*
X146161251Y-95050662D01*
X146222260Y-95055303D01*
X146252697Y-95074994D01*
X146368864Y-95185040D01*
X146373834Y-95187927D01*
X146373837Y-95187929D01*
X146513955Y-95269315D01*
X146520194Y-95272939D01*
X146580791Y-95291292D01*
X146682180Y-95322000D01*
X146682182Y-95322000D01*
X146687685Y-95323667D01*
X146815541Y-95331599D01*
X146856614Y-95334147D01*
X146856615Y-95334147D01*
X146862354Y-95334503D01*
X147034832Y-95304866D01*
X147062223Y-95293211D01*
X147190575Y-95238597D01*
X147190576Y-95238597D01*
X147195865Y-95236346D01*
X147327008Y-95139835D01*
X147332184Y-95136026D01*
X147332185Y-95136025D01*
X147336816Y-95132617D01*
X147340539Y-95128235D01*
X147340541Y-95128233D01*
X147446398Y-95003631D01*
X147446399Y-95003630D01*
X147450124Y-94999245D01*
X147529711Y-94843384D01*
X147541841Y-94793813D01*
X147570260Y-94677674D01*
X147570260Y-94677671D01*
X147571307Y-94673394D01*
X147571992Y-94662352D01*
X147571992Y-94336178D01*
X147571056Y-94328151D01*
X147583094Y-94268162D01*
X147628094Y-94226705D01*
X147688867Y-94219616D01*
X147719114Y-94231075D01*
X147785418Y-94269588D01*
X147795899Y-94274145D01*
X147952269Y-94321505D01*
X147963517Y-94323528D01*
X147970841Y-94323983D01*
X147983758Y-94320654D01*
X147986065Y-94317860D01*
X147986492Y-94315619D01*
X147986492Y-93600680D01*
X147982370Y-93587995D01*
X147978249Y-93585000D01*
X147357172Y-93585000D01*
X147344487Y-93589122D01*
X147341492Y-93593243D01*
X147341492Y-93620929D01*
X147341824Y-93626636D01*
X147342396Y-93631545D01*
X147330356Y-93691534D01*
X147285355Y-93732989D01*
X147224581Y-93740076D01*
X147194338Y-93728619D01*
X147127765Y-93689950D01*
X147127760Y-93689948D01*
X147122790Y-93687061D01*
X147014562Y-93654282D01*
X146960804Y-93638000D01*
X146960802Y-93638000D01*
X146955299Y-93636333D01*
X146827443Y-93628401D01*
X146786370Y-93625853D01*
X146786369Y-93625853D01*
X146780630Y-93625497D01*
X146608152Y-93655134D01*
X146602857Y-93657387D01*
X146462654Y-93717044D01*
X146447119Y-93723654D01*
X146372027Y-93778916D01*
X146315009Y-93820877D01*
X146306168Y-93827383D01*
X146302445Y-93831765D01*
X146302443Y-93831767D01*
X146263818Y-93877232D01*
X146211733Y-93909338D01*
X146150724Y-93904697D01*
X146120287Y-93885006D01*
X146004120Y-93774960D01*
X145999150Y-93772073D01*
X145999147Y-93772071D01*
X145857764Y-93689950D01*
X145857763Y-93689950D01*
X145852790Y-93687061D01*
X145744562Y-93654282D01*
X145690804Y-93638000D01*
X145690802Y-93638000D01*
X145685299Y-93636333D01*
X145557443Y-93628401D01*
X145516370Y-93625853D01*
X145516369Y-93625853D01*
X145510630Y-93625497D01*
X145338152Y-93655134D01*
X145177119Y-93723654D01*
X145177075Y-93723550D01*
X145119627Y-93735446D01*
X145063863Y-93710267D01*
X145033549Y-93657119D01*
X145031492Y-93637044D01*
X145031492Y-93600680D01*
X145027370Y-93587995D01*
X145023249Y-93585000D01*
X144402172Y-93585000D01*
X144389487Y-93589122D01*
X144386492Y-93593243D01*
X144386492Y-94307296D01*
X144176492Y-94307296D01*
X144176492Y-93600680D01*
X144172370Y-93587995D01*
X144168249Y-93585000D01*
X143547172Y-93585000D01*
X143534487Y-93589122D01*
X143531492Y-93593243D01*
X143531492Y-93620929D01*
X143016421Y-93620929D01*
X142989828Y-93515059D01*
X142987215Y-93507383D01*
X142922836Y-93359320D01*
X143531492Y-93359320D01*
X143535614Y-93372005D01*
X143539735Y-93375000D01*
X144160812Y-93375000D01*
X144173497Y-93370878D01*
X144176492Y-93366757D01*
X144176492Y-93359320D01*
X144386492Y-93359320D01*
X144390614Y-93372005D01*
X144394735Y-93375000D01*
X145015812Y-93375000D01*
X145028497Y-93370878D01*
X145031492Y-93366757D01*
X145031492Y-93359320D01*
X147341492Y-93359320D01*
X147345614Y-93372005D01*
X147349735Y-93375000D01*
X147970812Y-93375000D01*
X147983497Y-93370878D01*
X147986492Y-93366757D01*
X147986492Y-93359320D01*
X148196492Y-93359320D01*
X148200614Y-93372005D01*
X148204735Y-93375000D01*
X148825812Y-93375000D01*
X148838497Y-93370878D01*
X148841492Y-93366757D01*
X148841492Y-93359320D01*
X151151492Y-93359320D01*
X151155614Y-93372005D01*
X151159735Y-93375000D01*
X151780812Y-93375000D01*
X151793497Y-93370878D01*
X151796492Y-93366757D01*
X151796492Y-93359320D01*
X152006492Y-93359320D01*
X152010614Y-93372005D01*
X152014735Y-93375000D01*
X152635812Y-93375000D01*
X152648497Y-93370878D01*
X152651492Y-93366757D01*
X152651492Y-93339071D01*
X152651160Y-93333359D01*
X152637012Y-93212005D01*
X152634381Y-93200877D01*
X152578636Y-93047302D01*
X152573518Y-93037081D01*
X152483938Y-92900450D01*
X152476605Y-92891680D01*
X152466521Y-92882127D01*
X153625483Y-92882127D01*
X153625506Y-92883644D01*
X153628620Y-92888636D01*
X154560406Y-93820422D01*
X154572289Y-93826476D01*
X154577320Y-93825680D01*
X155509848Y-92893152D01*
X155515902Y-92881269D01*
X155515563Y-92879129D01*
X155512686Y-92875621D01*
X158831229Y-92875621D01*
X158831252Y-92877138D01*
X158834366Y-92882130D01*
X159766152Y-93813916D01*
X159778035Y-93819970D01*
X159783066Y-93819174D01*
X160715594Y-92886646D01*
X160721648Y-92874763D01*
X160721309Y-92872623D01*
X160718274Y-92868922D01*
X160585594Y-92764136D01*
X160578850Y-92759656D01*
X160377221Y-92648352D01*
X160369829Y-92645030D01*
X160152740Y-92568154D01*
X160144901Y-92566083D01*
X159918166Y-92525695D01*
X159910098Y-92524932D01*
X159679806Y-92522119D01*
X159671727Y-92522684D01*
X159444072Y-92557520D01*
X159436186Y-92559399D01*
X159217272Y-92630951D01*
X159209815Y-92634086D01*
X159005525Y-92740432D01*
X158998669Y-92744750D01*
X158838899Y-92864708D01*
X158831229Y-92875621D01*
X155512686Y-92875621D01*
X155512528Y-92875428D01*
X155379848Y-92770642D01*
X155373104Y-92766162D01*
X155171475Y-92654858D01*
X155164083Y-92651536D01*
X154946994Y-92574660D01*
X154939155Y-92572589D01*
X154712420Y-92532201D01*
X154704352Y-92531438D01*
X154474060Y-92528625D01*
X154465981Y-92529190D01*
X154238326Y-92564026D01*
X154230440Y-92565905D01*
X154011526Y-92637457D01*
X154004069Y-92640592D01*
X153799779Y-92746938D01*
X153792923Y-92751256D01*
X153633153Y-92871214D01*
X153625483Y-92882127D01*
X152466521Y-92882127D01*
X152357996Y-92779321D01*
X152348844Y-92772474D01*
X152207566Y-92690412D01*
X152197085Y-92685855D01*
X152040715Y-92638495D01*
X152029467Y-92636472D01*
X152022143Y-92636017D01*
X152009226Y-92639346D01*
X152006919Y-92642140D01*
X152006492Y-92644381D01*
X152006492Y-93359320D01*
X151796492Y-93359320D01*
X151796492Y-92652704D01*
X151792370Y-92640019D01*
X151791766Y-92639580D01*
X151784619Y-92639064D01*
X151693965Y-92654642D01*
X151682999Y-92657869D01*
X151532658Y-92721840D01*
X151522739Y-92727498D01*
X151391143Y-92824341D01*
X151382786Y-92832134D01*
X151277004Y-92956648D01*
X151270661Y-92966160D01*
X151196362Y-93111667D01*
X151192378Y-93122377D01*
X151153223Y-93282388D01*
X151151903Y-93291067D01*
X151151586Y-93296178D01*
X151151492Y-93299212D01*
X151151492Y-93359320D01*
X148841492Y-93359320D01*
X148841492Y-93339071D01*
X148841160Y-93333359D01*
X148827012Y-93212005D01*
X148824381Y-93200877D01*
X148768636Y-93047302D01*
X148763518Y-93037081D01*
X148673938Y-92900450D01*
X148666605Y-92891680D01*
X148547996Y-92779321D01*
X148538844Y-92772474D01*
X148397566Y-92690412D01*
X148387085Y-92685855D01*
X148230715Y-92638495D01*
X148219467Y-92636472D01*
X148212143Y-92636017D01*
X148199226Y-92639346D01*
X148196919Y-92642140D01*
X148196492Y-92644381D01*
X148196492Y-93359320D01*
X147986492Y-93359320D01*
X147986492Y-92652704D01*
X147982370Y-92640019D01*
X147981766Y-92639580D01*
X147974619Y-92639064D01*
X147883965Y-92654642D01*
X147872999Y-92657869D01*
X147722658Y-92721840D01*
X147712739Y-92727498D01*
X147581143Y-92824341D01*
X147572786Y-92832134D01*
X147467004Y-92956648D01*
X147460661Y-92966160D01*
X147386362Y-93111667D01*
X147382378Y-93122377D01*
X147343223Y-93282388D01*
X147341903Y-93291067D01*
X147341586Y-93296178D01*
X147341492Y-93299212D01*
X147341492Y-93359320D01*
X145031492Y-93359320D01*
X145031492Y-93339071D01*
X145031160Y-93333359D01*
X145017012Y-93212005D01*
X145014381Y-93200877D01*
X144958636Y-93047302D01*
X144953518Y-93037081D01*
X144863938Y-92900450D01*
X144856605Y-92891680D01*
X144737996Y-92779321D01*
X144728844Y-92772474D01*
X144587566Y-92690412D01*
X144577085Y-92685855D01*
X144420715Y-92638495D01*
X144409467Y-92636472D01*
X144402143Y-92636017D01*
X144389226Y-92639346D01*
X144386919Y-92642140D01*
X144386492Y-92644381D01*
X144386492Y-93359320D01*
X144176492Y-93359320D01*
X144176492Y-92652704D01*
X144172370Y-92640019D01*
X144171766Y-92639580D01*
X144164619Y-92639064D01*
X144073965Y-92654642D01*
X144062999Y-92657869D01*
X143912658Y-92721840D01*
X143902739Y-92727498D01*
X143771143Y-92824341D01*
X143762786Y-92832134D01*
X143657004Y-92956648D01*
X143650661Y-92966160D01*
X143576362Y-93111667D01*
X143572378Y-93122377D01*
X143533223Y-93282388D01*
X143531903Y-93291067D01*
X143531586Y-93296178D01*
X143531492Y-93299212D01*
X143531492Y-93359320D01*
X142922836Y-93359320D01*
X142895383Y-93296183D01*
X142891550Y-93289036D01*
X142766458Y-93095673D01*
X142761512Y-93089250D01*
X142719288Y-93042847D01*
X142707701Y-93036238D01*
X142703712Y-93036678D01*
X142702396Y-93037588D01*
X141771070Y-93968914D01*
X141765016Y-93980797D01*
X141457156Y-93980797D01*
X141457968Y-93979203D01*
X141457172Y-93974172D01*
X140524394Y-93041394D01*
X140512511Y-93035340D01*
X140507915Y-93036068D01*
X140507532Y-93036352D01*
X140483580Y-93061417D01*
X140478477Y-93067718D01*
X140348694Y-93257972D01*
X140344692Y-93265018D01*
X140247726Y-93473915D01*
X140244928Y-93481520D01*
X140183383Y-93703442D01*
X140181862Y-93711416D01*
X140157389Y-93940413D01*
X140157191Y-93948504D01*
X137858126Y-93948504D01*
X137841511Y-93746413D01*
X137840189Y-93738427D01*
X137784082Y-93515059D01*
X137781469Y-93507383D01*
X137689637Y-93296183D01*
X137685804Y-93289036D01*
X137560712Y-93095673D01*
X137555766Y-93089250D01*
X137513542Y-93042847D01*
X137501955Y-93036238D01*
X137497966Y-93036678D01*
X137496650Y-93037588D01*
X136565324Y-93968914D01*
X136559270Y-93980797D01*
X136251410Y-93980797D01*
X136252222Y-93979203D01*
X136251426Y-93974172D01*
X135318648Y-93041394D01*
X135306765Y-93035340D01*
X135302169Y-93036068D01*
X135301786Y-93036352D01*
X135277834Y-93061417D01*
X135272731Y-93067718D01*
X135142948Y-93257972D01*
X135138946Y-93265018D01*
X135041980Y-93473915D01*
X135039182Y-93481520D01*
X134977637Y-93703442D01*
X134976116Y-93711416D01*
X134951643Y-93940413D01*
X134951445Y-93948504D01*
X134389727Y-93948504D01*
X134440876Y-93848333D01*
X134444860Y-93837623D01*
X134484015Y-93677612D01*
X134485335Y-93668933D01*
X134485652Y-93663822D01*
X134485746Y-93660788D01*
X134485746Y-93600680D01*
X134481624Y-93587995D01*
X134477503Y-93585000D01*
X133856426Y-93585000D01*
X133843741Y-93589122D01*
X133840746Y-93593243D01*
X133840746Y-94307296D01*
X133630746Y-94307296D01*
X133630746Y-93600680D01*
X133626624Y-93587995D01*
X133622503Y-93585000D01*
X133001426Y-93585000D01*
X132988741Y-93589122D01*
X132985746Y-93593243D01*
X132985746Y-93620929D01*
X132986078Y-93626636D01*
X132986650Y-93631545D01*
X132974610Y-93691534D01*
X132929609Y-93732989D01*
X132868835Y-93740076D01*
X132838592Y-93728619D01*
X132772019Y-93689950D01*
X132772014Y-93689948D01*
X132767044Y-93687061D01*
X132658816Y-93654282D01*
X132605058Y-93638000D01*
X132605056Y-93638000D01*
X132599553Y-93636333D01*
X132471697Y-93628401D01*
X132430624Y-93625853D01*
X132430623Y-93625853D01*
X132424884Y-93625497D01*
X132252406Y-93655134D01*
X132247111Y-93657387D01*
X132106908Y-93717044D01*
X132091373Y-93723654D01*
X132016281Y-93778916D01*
X131959263Y-93820877D01*
X131950422Y-93827383D01*
X131946699Y-93831765D01*
X131946697Y-93831767D01*
X131908072Y-93877232D01*
X131855987Y-93909338D01*
X131794978Y-93904697D01*
X131764541Y-93885006D01*
X131648374Y-93774960D01*
X131643404Y-93772073D01*
X131643401Y-93772071D01*
X131502018Y-93689950D01*
X131502017Y-93689950D01*
X131497044Y-93687061D01*
X131388816Y-93654282D01*
X131335058Y-93638000D01*
X131335056Y-93638000D01*
X131329553Y-93636333D01*
X131201697Y-93628401D01*
X131160624Y-93625853D01*
X131160623Y-93625853D01*
X131154884Y-93625497D01*
X130982406Y-93655134D01*
X130821373Y-93723654D01*
X130821329Y-93723550D01*
X130763881Y-93735446D01*
X130708117Y-93710267D01*
X130677803Y-93657119D01*
X130675746Y-93637044D01*
X130675746Y-93600680D01*
X130671624Y-93587995D01*
X130667503Y-93585000D01*
X130046426Y-93585000D01*
X130033741Y-93589122D01*
X130030746Y-93593243D01*
X130030746Y-94307296D01*
X130034868Y-94319981D01*
X130035472Y-94320420D01*
X130042619Y-94320936D01*
X130133273Y-94305358D01*
X130144239Y-94302131D01*
X130294578Y-94238161D01*
X130297195Y-94236668D01*
X130298931Y-94236308D01*
X130299870Y-94235909D01*
X130299950Y-94236097D01*
X130357109Y-94224260D01*
X130412874Y-94249438D01*
X130443189Y-94302586D01*
X130445246Y-94322662D01*
X130445246Y-94623822D01*
X130460403Y-94753828D01*
X130520115Y-94918331D01*
X130523268Y-94923140D01*
X130523270Y-94923144D01*
X130558338Y-94976631D01*
X130616069Y-95064685D01*
X130620238Y-95068634D01*
X130620241Y-95068638D01*
X130719581Y-95162743D01*
X130743118Y-95185040D01*
X130748088Y-95187927D01*
X130748091Y-95187929D01*
X130841363Y-95242105D01*
X130878766Y-95280703D01*
X130882238Y-95287138D01*
X130884355Y-95291292D01*
X130902327Y-95328719D01*
X130902329Y-95328722D01*
X130905020Y-95334326D01*
X130908338Y-95338274D01*
X130909846Y-95339782D01*
X130911028Y-95341071D01*
X130911894Y-95342097D01*
X130914968Y-95347794D01*
X130920973Y-95353345D01*
X130920977Y-95353350D01*
X130951764Y-95381809D01*
X130954567Y-95384503D01*
X131226250Y-95656186D01*
X131254027Y-95710703D01*
X131255246Y-95726190D01*
X131255246Y-97138371D01*
X131236339Y-97196562D01*
X131226250Y-97208375D01*
X126841766Y-101592859D01*
X126787249Y-101620636D01*
X126758843Y-101621008D01*
X126752438Y-101620165D01*
X126752434Y-101620165D01*
X126746000Y-101619318D01*
X126739566Y-101620165D01*
X126733163Y-101621008D01*
X126589238Y-101639956D01*
X126443159Y-101700464D01*
X126317718Y-101796718D01*
X126221464Y-101922159D01*
X126160956Y-102068238D01*
X126140318Y-102225000D01*
X100319483Y-102225000D01*
X100325500Y-102194748D01*
X100325500Y-101805252D01*
X100318351Y-101769311D01*
X100318351Y-101730689D01*
X100325500Y-101694748D01*
X100325500Y-101305252D01*
X100318351Y-101269311D01*
X100318351Y-101230689D01*
X100325500Y-101194748D01*
X100325500Y-100805252D01*
X100318351Y-100769311D01*
X100318351Y-100730689D01*
X100325500Y-100694748D01*
X100325500Y-100305252D01*
X100318351Y-100269311D01*
X100318351Y-100230689D01*
X100325500Y-100194748D01*
X100325500Y-99805252D01*
X100318351Y-99769311D01*
X100318351Y-99730689D01*
X100325500Y-99694748D01*
X100325500Y-99305252D01*
X100318351Y-99269311D01*
X100318351Y-99230689D01*
X100325500Y-99194748D01*
X100325500Y-98805252D01*
X100318351Y-98769311D01*
X100318351Y-98730689D01*
X100325500Y-98694748D01*
X100325500Y-98305252D01*
X100318351Y-98269311D01*
X100318351Y-98230689D01*
X100325500Y-98194748D01*
X100325500Y-97805252D01*
X100318351Y-97769311D01*
X100318351Y-97730689D01*
X100325500Y-97694748D01*
X100325500Y-97305252D01*
X100318351Y-97269311D01*
X100318351Y-97230689D01*
X100325500Y-97194748D01*
X100325500Y-96805252D01*
X100318351Y-96769311D01*
X100318351Y-96730689D01*
X100325500Y-96694748D01*
X100325500Y-96305252D01*
X100318351Y-96269311D01*
X100318351Y-96230689D01*
X100325500Y-96194748D01*
X100325500Y-95805252D01*
X100318351Y-95769311D01*
X100318351Y-95730689D01*
X100325500Y-95694748D01*
X100325500Y-95305252D01*
X100318351Y-95269311D01*
X100318351Y-95230689D01*
X100325500Y-95194748D01*
X100325500Y-95077917D01*
X104336404Y-95077917D01*
X104336844Y-95080696D01*
X104339144Y-95083572D01*
X104442342Y-95169249D01*
X104448971Y-95173890D01*
X104647825Y-95290090D01*
X104655121Y-95293586D01*
X104870283Y-95375749D01*
X104878053Y-95378007D01*
X105103743Y-95423924D01*
X105111787Y-95424883D01*
X105341949Y-95433322D01*
X105350025Y-95432956D01*
X105578484Y-95403689D01*
X105586393Y-95402007D01*
X105806987Y-95335826D01*
X105814535Y-95332868D01*
X106021356Y-95231548D01*
X106028315Y-95227399D01*
X106215816Y-95093658D01*
X106220167Y-95089980D01*
X106225954Y-95078672D01*
X106225169Y-95073661D01*
X105291086Y-94139578D01*
X105279203Y-94133524D01*
X105274172Y-94134320D01*
X104342458Y-95066034D01*
X104336404Y-95077917D01*
X100325500Y-95077917D01*
X100325500Y-94805252D01*
X100323225Y-94793813D01*
X100330417Y-94733051D01*
X100371951Y-94688122D01*
X100420323Y-94675500D01*
X100490719Y-94675500D01*
X100513074Y-94678057D01*
X100524282Y-94680655D01*
X100525000Y-94680656D01*
X100530445Y-94679414D01*
X100536007Y-94678792D01*
X100536009Y-94678810D01*
X100536964Y-94678652D01*
X100628842Y-94668995D01*
X100692350Y-94662320D01*
X100697277Y-94660719D01*
X100697282Y-94660718D01*
X100847456Y-94611923D01*
X100847457Y-94611922D01*
X100852386Y-94610321D01*
X100856874Y-94607730D01*
X100856876Y-94607729D01*
X100993623Y-94528778D01*
X100993624Y-94528777D01*
X100998114Y-94526185D01*
X101123164Y-94413589D01*
X101222072Y-94277455D01*
X101262590Y-94186450D01*
X101288405Y-94128469D01*
X101288406Y-94128465D01*
X101290514Y-94123731D01*
X101325500Y-93959136D01*
X101325500Y-93948504D01*
X103825699Y-93948504D01*
X103838958Y-94178444D01*
X103840083Y-94186450D01*
X103890717Y-94411130D01*
X103893140Y-94418864D01*
X103979785Y-94632245D01*
X103983439Y-94639479D01*
X104103775Y-94835848D01*
X104108558Y-94842384D01*
X104172820Y-94916570D01*
X104184242Y-94923460D01*
X104187598Y-94923173D01*
X104189854Y-94921654D01*
X105120422Y-93991086D01*
X105125664Y-93980797D01*
X105433524Y-93980797D01*
X105434320Y-93985828D01*
X106368650Y-94920158D01*
X106380533Y-94926212D01*
X106385510Y-94925424D01*
X106390384Y-94919697D01*
X106524781Y-94732664D01*
X106528953Y-94725721D01*
X106630996Y-94519252D01*
X106633976Y-94511728D01*
X106700930Y-94291355D01*
X106702640Y-94283442D01*
X106732887Y-94053694D01*
X106733297Y-94048430D01*
X106734904Y-93982641D01*
X106734753Y-93977371D01*
X106715765Y-93746413D01*
X106714443Y-93738427D01*
X106684929Y-93620929D01*
X107200000Y-93620929D01*
X107200332Y-93626641D01*
X107214480Y-93747995D01*
X107217111Y-93759123D01*
X107272856Y-93912698D01*
X107277974Y-93922919D01*
X107367554Y-94059550D01*
X107374887Y-94068320D01*
X107493496Y-94180679D01*
X107502648Y-94187526D01*
X107643926Y-94269588D01*
X107654407Y-94274145D01*
X107810777Y-94321505D01*
X107822025Y-94323528D01*
X107829349Y-94323983D01*
X107842266Y-94320654D01*
X107844573Y-94317860D01*
X107845000Y-94315619D01*
X107845000Y-94307296D01*
X108055000Y-94307296D01*
X108059122Y-94319981D01*
X108059726Y-94320420D01*
X108066873Y-94320936D01*
X108157527Y-94305358D01*
X108168493Y-94302131D01*
X108318832Y-94238161D01*
X108321449Y-94236668D01*
X108323185Y-94236308D01*
X108324124Y-94235909D01*
X108324204Y-94236097D01*
X108381363Y-94224260D01*
X108437128Y-94249438D01*
X108467443Y-94302586D01*
X108469500Y-94322662D01*
X108469500Y-94623822D01*
X108484657Y-94753828D01*
X108544369Y-94918331D01*
X108547522Y-94923140D01*
X108547524Y-94923144D01*
X108582592Y-94976631D01*
X108640323Y-95064685D01*
X108644492Y-95068634D01*
X108644495Y-95068638D01*
X108743835Y-95162743D01*
X108767372Y-95185040D01*
X108772342Y-95187927D01*
X108772345Y-95187929D01*
X108912463Y-95269315D01*
X108918702Y-95272939D01*
X108979299Y-95291292D01*
X109080688Y-95322000D01*
X109080690Y-95322000D01*
X109086193Y-95323667D01*
X109214049Y-95331599D01*
X109255122Y-95334147D01*
X109255123Y-95334147D01*
X109260862Y-95334503D01*
X109433340Y-95304866D01*
X109460731Y-95293211D01*
X109589083Y-95238597D01*
X109589084Y-95238597D01*
X109594373Y-95236346D01*
X109725516Y-95139835D01*
X109730692Y-95136026D01*
X109730693Y-95136025D01*
X109735324Y-95132617D01*
X109739047Y-95128235D01*
X109739049Y-95128233D01*
X109777674Y-95082768D01*
X109829759Y-95050662D01*
X109890768Y-95055303D01*
X109921205Y-95074994D01*
X110037372Y-95185040D01*
X110042342Y-95187927D01*
X110042345Y-95187929D01*
X110182463Y-95269315D01*
X110188702Y-95272939D01*
X110249299Y-95291292D01*
X110350688Y-95322000D01*
X110350690Y-95322000D01*
X110356193Y-95323667D01*
X110484049Y-95331599D01*
X110525122Y-95334147D01*
X110525123Y-95334147D01*
X110530862Y-95334503D01*
X110703340Y-95304866D01*
X110730731Y-95293211D01*
X110859083Y-95238597D01*
X110859084Y-95238597D01*
X110864373Y-95236346D01*
X110995516Y-95139835D01*
X111000692Y-95136026D01*
X111000693Y-95136025D01*
X111005324Y-95132617D01*
X111009047Y-95128235D01*
X111009049Y-95128233D01*
X111114906Y-95003631D01*
X111114907Y-95003630D01*
X111118632Y-94999245D01*
X111198219Y-94843384D01*
X111210349Y-94793813D01*
X111238768Y-94677674D01*
X111238768Y-94677671D01*
X111239815Y-94673394D01*
X111240500Y-94662352D01*
X111240500Y-94336178D01*
X111239564Y-94328151D01*
X111251602Y-94268162D01*
X111296602Y-94226705D01*
X111357375Y-94219616D01*
X111387622Y-94231075D01*
X111453926Y-94269588D01*
X111464407Y-94274145D01*
X111620777Y-94321505D01*
X111632025Y-94323528D01*
X111639349Y-94323983D01*
X111652266Y-94320654D01*
X111654573Y-94317860D01*
X111655000Y-94315619D01*
X111655000Y-94307296D01*
X111865000Y-94307296D01*
X111869122Y-94319981D01*
X111869726Y-94320420D01*
X111876873Y-94320936D01*
X111967527Y-94305358D01*
X111978493Y-94302131D01*
X112128832Y-94238161D01*
X112131449Y-94236668D01*
X112133185Y-94236308D01*
X112134124Y-94235909D01*
X112134204Y-94236097D01*
X112191363Y-94224260D01*
X112247128Y-94249438D01*
X112277443Y-94302586D01*
X112279500Y-94322662D01*
X112279500Y-94623822D01*
X112294657Y-94753828D01*
X112354369Y-94918331D01*
X112357522Y-94923140D01*
X112357524Y-94923144D01*
X112392592Y-94976631D01*
X112450323Y-95064685D01*
X112454492Y-95068634D01*
X112454495Y-95068638D01*
X112553835Y-95162743D01*
X112577372Y-95185040D01*
X112582342Y-95187927D01*
X112582345Y-95187929D01*
X112722463Y-95269315D01*
X112728702Y-95272939D01*
X112789299Y-95291292D01*
X112890688Y-95322000D01*
X112890690Y-95322000D01*
X112896193Y-95323667D01*
X113024049Y-95331599D01*
X113065122Y-95334147D01*
X113065123Y-95334147D01*
X113070862Y-95334503D01*
X113243340Y-95304866D01*
X113270731Y-95293211D01*
X113399083Y-95238597D01*
X113399084Y-95238597D01*
X113404373Y-95236346D01*
X113535516Y-95139835D01*
X113540692Y-95136026D01*
X113540693Y-95136025D01*
X113545324Y-95132617D01*
X113549047Y-95128235D01*
X113549049Y-95128233D01*
X113587674Y-95082768D01*
X113639759Y-95050662D01*
X113700768Y-95055303D01*
X113731205Y-95074994D01*
X113847372Y-95185040D01*
X113852342Y-95187927D01*
X113852345Y-95187929D01*
X113992463Y-95269315D01*
X113998702Y-95272939D01*
X114059299Y-95291292D01*
X114160688Y-95322000D01*
X114160690Y-95322000D01*
X114166193Y-95323667D01*
X114294049Y-95331599D01*
X114335122Y-95334147D01*
X114335123Y-95334147D01*
X114340862Y-95334503D01*
X114513340Y-95304866D01*
X114540731Y-95293211D01*
X114669083Y-95238597D01*
X114669084Y-95238597D01*
X114674373Y-95236346D01*
X114805516Y-95139835D01*
X114810692Y-95136026D01*
X114810693Y-95136025D01*
X114815324Y-95132617D01*
X114819047Y-95128235D01*
X114819049Y-95128233D01*
X114861796Y-95077917D01*
X117296404Y-95077917D01*
X117296844Y-95080696D01*
X117299144Y-95083572D01*
X117402342Y-95169249D01*
X117408971Y-95173890D01*
X117607825Y-95290090D01*
X117615121Y-95293586D01*
X117830283Y-95375749D01*
X117838053Y-95378007D01*
X118063743Y-95423924D01*
X118071787Y-95424883D01*
X118301949Y-95433322D01*
X118310025Y-95432956D01*
X118538484Y-95403689D01*
X118546393Y-95402007D01*
X118766987Y-95335826D01*
X118774535Y-95332868D01*
X118981356Y-95231548D01*
X118988315Y-95227399D01*
X119175816Y-95093658D01*
X119180167Y-95089980D01*
X119185954Y-95078672D01*
X119185836Y-95077917D01*
X122502150Y-95077917D01*
X122502590Y-95080696D01*
X122504890Y-95083572D01*
X122608088Y-95169249D01*
X122614717Y-95173890D01*
X122813571Y-95290090D01*
X122820867Y-95293586D01*
X123036029Y-95375749D01*
X123043799Y-95378007D01*
X123269489Y-95423924D01*
X123277533Y-95424883D01*
X123507695Y-95433322D01*
X123515771Y-95432956D01*
X123744230Y-95403689D01*
X123752139Y-95402007D01*
X123972733Y-95335826D01*
X123980281Y-95332868D01*
X124187102Y-95231548D01*
X124194061Y-95227399D01*
X124381562Y-95093658D01*
X124385913Y-95089980D01*
X124391700Y-95078672D01*
X124390915Y-95073661D01*
X123456832Y-94139578D01*
X123444949Y-94133524D01*
X123439918Y-94134320D01*
X122508204Y-95066034D01*
X122502150Y-95077917D01*
X119185836Y-95077917D01*
X119185169Y-95073661D01*
X118251086Y-94139578D01*
X118239203Y-94133524D01*
X118234172Y-94134320D01*
X117302458Y-95066034D01*
X117296404Y-95077917D01*
X114861796Y-95077917D01*
X114924906Y-95003631D01*
X114924907Y-95003630D01*
X114928632Y-94999245D01*
X115008219Y-94843384D01*
X115020349Y-94793813D01*
X115048768Y-94677674D01*
X115048768Y-94677671D01*
X115049815Y-94673394D01*
X115050500Y-94662352D01*
X115050500Y-94336178D01*
X115049564Y-94328151D01*
X115061602Y-94268162D01*
X115106602Y-94226705D01*
X115167375Y-94219616D01*
X115197622Y-94231075D01*
X115263926Y-94269588D01*
X115274407Y-94274145D01*
X115430777Y-94321505D01*
X115442025Y-94323528D01*
X115449349Y-94323983D01*
X115462266Y-94320654D01*
X115464573Y-94317860D01*
X115465000Y-94315619D01*
X115465000Y-94307296D01*
X115675000Y-94307296D01*
X115679122Y-94319981D01*
X115679726Y-94320420D01*
X115686873Y-94320936D01*
X115777527Y-94305358D01*
X115788493Y-94302131D01*
X115938834Y-94238160D01*
X115948753Y-94232502D01*
X116080349Y-94135659D01*
X116088706Y-94127866D01*
X116194488Y-94003352D01*
X116200831Y-93993840D01*
X116223981Y-93948504D01*
X116785699Y-93948504D01*
X116798958Y-94178444D01*
X116800083Y-94186450D01*
X116850717Y-94411130D01*
X116853140Y-94418864D01*
X116939785Y-94632245D01*
X116943439Y-94639479D01*
X117063775Y-94835848D01*
X117068558Y-94842384D01*
X117132820Y-94916570D01*
X117144242Y-94923460D01*
X117147598Y-94923173D01*
X117149854Y-94921654D01*
X118080422Y-93991086D01*
X118085664Y-93980797D01*
X118393524Y-93980797D01*
X118394320Y-93985828D01*
X119328650Y-94920158D01*
X119340533Y-94926212D01*
X119345510Y-94925424D01*
X119350384Y-94919697D01*
X119484781Y-94732664D01*
X119488953Y-94725721D01*
X119590996Y-94519252D01*
X119593976Y-94511728D01*
X119660930Y-94291355D01*
X119662640Y-94283442D01*
X119692887Y-94053694D01*
X119693297Y-94048430D01*
X119694904Y-93982641D01*
X119694753Y-93977371D01*
X119692380Y-93948504D01*
X121991445Y-93948504D01*
X122004704Y-94178444D01*
X122005829Y-94186450D01*
X122056463Y-94411130D01*
X122058886Y-94418864D01*
X122145531Y-94632245D01*
X122149185Y-94639479D01*
X122269521Y-94835848D01*
X122274304Y-94842384D01*
X122338566Y-94916570D01*
X122349988Y-94923460D01*
X122353344Y-94923173D01*
X122355600Y-94921654D01*
X123286168Y-93991086D01*
X123291410Y-93980797D01*
X123599270Y-93980797D01*
X123600066Y-93985828D01*
X124534396Y-94920158D01*
X124546279Y-94926212D01*
X124551256Y-94925424D01*
X124556130Y-94919697D01*
X124690527Y-94732664D01*
X124694699Y-94725721D01*
X124796742Y-94519252D01*
X124799722Y-94511728D01*
X124866676Y-94291355D01*
X124868386Y-94283442D01*
X124898633Y-94053694D01*
X124899043Y-94048430D01*
X124900650Y-93982641D01*
X124900499Y-93977371D01*
X124881511Y-93746413D01*
X124880189Y-93738427D01*
X124850675Y-93620929D01*
X125365746Y-93620929D01*
X125366078Y-93626641D01*
X125380226Y-93747995D01*
X125382857Y-93759123D01*
X125438602Y-93912698D01*
X125443720Y-93922919D01*
X125533300Y-94059550D01*
X125540633Y-94068320D01*
X125659242Y-94180679D01*
X125668394Y-94187526D01*
X125809672Y-94269588D01*
X125820153Y-94274145D01*
X125976523Y-94321505D01*
X125987771Y-94323528D01*
X125995095Y-94323983D01*
X126008012Y-94320654D01*
X126010319Y-94317860D01*
X126010746Y-94315619D01*
X126010746Y-94307296D01*
X126220746Y-94307296D01*
X126224868Y-94319981D01*
X126225472Y-94320420D01*
X126232619Y-94320936D01*
X126323273Y-94305358D01*
X126334239Y-94302131D01*
X126484578Y-94238161D01*
X126487195Y-94236668D01*
X126488931Y-94236308D01*
X126489870Y-94235909D01*
X126489950Y-94236097D01*
X126547109Y-94224260D01*
X126602874Y-94249438D01*
X126633189Y-94302586D01*
X126635246Y-94322662D01*
X126635246Y-94623822D01*
X126650403Y-94753828D01*
X126710115Y-94918331D01*
X126713268Y-94923140D01*
X126713270Y-94923144D01*
X126748338Y-94976631D01*
X126806069Y-95064685D01*
X126810238Y-95068634D01*
X126810241Y-95068638D01*
X126909581Y-95162743D01*
X126933118Y-95185040D01*
X126938088Y-95187927D01*
X126938091Y-95187929D01*
X127078209Y-95269315D01*
X127084448Y-95272939D01*
X127145045Y-95291292D01*
X127246434Y-95322000D01*
X127246436Y-95322000D01*
X127251939Y-95323667D01*
X127379795Y-95331599D01*
X127420868Y-95334147D01*
X127420869Y-95334147D01*
X127426608Y-95334503D01*
X127599086Y-95304866D01*
X127626477Y-95293211D01*
X127754829Y-95238597D01*
X127754830Y-95238597D01*
X127760119Y-95236346D01*
X127891262Y-95139835D01*
X127896438Y-95136026D01*
X127896439Y-95136025D01*
X127901070Y-95132617D01*
X127904793Y-95128235D01*
X127904795Y-95128233D01*
X127943420Y-95082768D01*
X127995505Y-95050662D01*
X128056514Y-95055303D01*
X128086951Y-95074994D01*
X128203118Y-95185040D01*
X128208088Y-95187927D01*
X128208091Y-95187929D01*
X128348209Y-95269315D01*
X128354448Y-95272939D01*
X128415045Y-95291292D01*
X128516434Y-95322000D01*
X128516436Y-95322000D01*
X128521939Y-95323667D01*
X128649795Y-95331599D01*
X128690868Y-95334147D01*
X128690869Y-95334147D01*
X128696608Y-95334503D01*
X128869086Y-95304866D01*
X128896477Y-95293211D01*
X129024829Y-95238597D01*
X129024830Y-95238597D01*
X129030119Y-95236346D01*
X129161262Y-95139835D01*
X129166438Y-95136026D01*
X129166439Y-95136025D01*
X129171070Y-95132617D01*
X129174793Y-95128235D01*
X129174795Y-95128233D01*
X129280652Y-95003631D01*
X129280653Y-95003630D01*
X129284378Y-94999245D01*
X129363965Y-94843384D01*
X129376095Y-94793813D01*
X129404514Y-94677674D01*
X129404514Y-94677671D01*
X129405561Y-94673394D01*
X129406246Y-94662352D01*
X129406246Y-94336178D01*
X129405310Y-94328151D01*
X129417348Y-94268162D01*
X129462348Y-94226705D01*
X129523121Y-94219616D01*
X129553368Y-94231075D01*
X129619672Y-94269588D01*
X129630153Y-94274145D01*
X129786523Y-94321505D01*
X129797771Y-94323528D01*
X129805095Y-94323983D01*
X129818012Y-94320654D01*
X129820319Y-94317860D01*
X129820746Y-94315619D01*
X129820746Y-93600680D01*
X129816624Y-93587995D01*
X129812503Y-93585000D01*
X129191426Y-93585000D01*
X129178741Y-93589122D01*
X129175746Y-93593243D01*
X129175746Y-93620929D01*
X129176078Y-93626636D01*
X129176650Y-93631545D01*
X129164610Y-93691534D01*
X129119609Y-93732989D01*
X129058835Y-93740076D01*
X129028592Y-93728619D01*
X128962019Y-93689950D01*
X128962014Y-93689948D01*
X128957044Y-93687061D01*
X128848816Y-93654282D01*
X128795058Y-93638000D01*
X128795056Y-93638000D01*
X128789553Y-93636333D01*
X128661697Y-93628401D01*
X128620624Y-93625853D01*
X128620623Y-93625853D01*
X128614884Y-93625497D01*
X128442406Y-93655134D01*
X128437111Y-93657387D01*
X128296908Y-93717044D01*
X128281373Y-93723654D01*
X128206281Y-93778916D01*
X128149263Y-93820877D01*
X128140422Y-93827383D01*
X128136699Y-93831765D01*
X128136697Y-93831767D01*
X128098072Y-93877232D01*
X128045987Y-93909338D01*
X127984978Y-93904697D01*
X127954541Y-93885006D01*
X127838374Y-93774960D01*
X127833404Y-93772073D01*
X127833401Y-93772071D01*
X127692018Y-93689950D01*
X127692017Y-93689950D01*
X127687044Y-93687061D01*
X127578816Y-93654282D01*
X127525058Y-93638000D01*
X127525056Y-93638000D01*
X127519553Y-93636333D01*
X127391697Y-93628401D01*
X127350624Y-93625853D01*
X127350623Y-93625853D01*
X127344884Y-93625497D01*
X127172406Y-93655134D01*
X127011373Y-93723654D01*
X127011329Y-93723550D01*
X126953881Y-93735446D01*
X126898117Y-93710267D01*
X126867803Y-93657119D01*
X126865746Y-93637044D01*
X126865746Y-93600680D01*
X126861624Y-93587995D01*
X126857503Y-93585000D01*
X126236426Y-93585000D01*
X126223741Y-93589122D01*
X126220746Y-93593243D01*
X126220746Y-94307296D01*
X126010746Y-94307296D01*
X126010746Y-93600680D01*
X126006624Y-93587995D01*
X126002503Y-93585000D01*
X125381426Y-93585000D01*
X125368741Y-93589122D01*
X125365746Y-93593243D01*
X125365746Y-93620929D01*
X124850675Y-93620929D01*
X124824082Y-93515059D01*
X124821469Y-93507383D01*
X124757090Y-93359320D01*
X125365746Y-93359320D01*
X125369868Y-93372005D01*
X125373989Y-93375000D01*
X125995066Y-93375000D01*
X126007751Y-93370878D01*
X126010746Y-93366757D01*
X126010746Y-93359320D01*
X126220746Y-93359320D01*
X126224868Y-93372005D01*
X126228989Y-93375000D01*
X126850066Y-93375000D01*
X126862751Y-93370878D01*
X126865746Y-93366757D01*
X126865746Y-93359320D01*
X129175746Y-93359320D01*
X129179868Y-93372005D01*
X129183989Y-93375000D01*
X129805066Y-93375000D01*
X129817751Y-93370878D01*
X129820746Y-93366757D01*
X129820746Y-93359320D01*
X130030746Y-93359320D01*
X130034868Y-93372005D01*
X130038989Y-93375000D01*
X130660066Y-93375000D01*
X130672751Y-93370878D01*
X130675746Y-93366757D01*
X130675746Y-93359320D01*
X132985746Y-93359320D01*
X132989868Y-93372005D01*
X132993989Y-93375000D01*
X133615066Y-93375000D01*
X133627751Y-93370878D01*
X133630746Y-93366757D01*
X133630746Y-93359320D01*
X133840746Y-93359320D01*
X133844868Y-93372005D01*
X133848989Y-93375000D01*
X134470066Y-93375000D01*
X134482751Y-93370878D01*
X134485746Y-93366757D01*
X134485746Y-93339071D01*
X134485414Y-93333359D01*
X134471266Y-93212005D01*
X134468635Y-93200877D01*
X134412890Y-93047302D01*
X134407772Y-93037081D01*
X134318192Y-92900450D01*
X134310859Y-92891680D01*
X134300775Y-92882127D01*
X135459737Y-92882127D01*
X135459760Y-92883644D01*
X135462874Y-92888636D01*
X136394660Y-93820422D01*
X136406543Y-93826476D01*
X136411574Y-93825680D01*
X137344102Y-92893152D01*
X137349719Y-92882127D01*
X140665483Y-92882127D01*
X140665506Y-92883644D01*
X140668620Y-92888636D01*
X141600406Y-93820422D01*
X141612289Y-93826476D01*
X141617320Y-93825680D01*
X142549848Y-92893152D01*
X142555902Y-92881269D01*
X142555563Y-92879129D01*
X142552528Y-92875428D01*
X142419848Y-92770642D01*
X142413104Y-92766162D01*
X142211475Y-92654858D01*
X142204083Y-92651536D01*
X141986994Y-92574660D01*
X141979155Y-92572589D01*
X141752420Y-92532201D01*
X141744352Y-92531438D01*
X141514060Y-92528625D01*
X141505981Y-92529190D01*
X141278326Y-92564026D01*
X141270440Y-92565905D01*
X141051526Y-92637457D01*
X141044069Y-92640592D01*
X140839779Y-92746938D01*
X140832923Y-92751256D01*
X140673153Y-92871214D01*
X140665483Y-92882127D01*
X137349719Y-92882127D01*
X137350156Y-92881269D01*
X137349817Y-92879129D01*
X137346782Y-92875428D01*
X137214102Y-92770642D01*
X137207358Y-92766162D01*
X137005729Y-92654858D01*
X136998337Y-92651536D01*
X136781248Y-92574660D01*
X136773409Y-92572589D01*
X136546674Y-92532201D01*
X136538606Y-92531438D01*
X136308314Y-92528625D01*
X136300235Y-92529190D01*
X136072580Y-92564026D01*
X136064694Y-92565905D01*
X135845780Y-92637457D01*
X135838323Y-92640592D01*
X135634033Y-92746938D01*
X135627177Y-92751256D01*
X135467407Y-92871214D01*
X135459737Y-92882127D01*
X134300775Y-92882127D01*
X134192250Y-92779321D01*
X134183098Y-92772474D01*
X134041820Y-92690412D01*
X134031339Y-92685855D01*
X133874969Y-92638495D01*
X133863721Y-92636472D01*
X133856397Y-92636017D01*
X133843480Y-92639346D01*
X133841173Y-92642140D01*
X133840746Y-92644381D01*
X133840746Y-93359320D01*
X133630746Y-93359320D01*
X133630746Y-92652704D01*
X133626624Y-92640019D01*
X133626020Y-92639580D01*
X133618873Y-92639064D01*
X133528219Y-92654642D01*
X133517253Y-92657869D01*
X133366912Y-92721840D01*
X133356993Y-92727498D01*
X133225397Y-92824341D01*
X133217040Y-92832134D01*
X133111258Y-92956648D01*
X133104915Y-92966160D01*
X133030616Y-93111667D01*
X133026632Y-93122377D01*
X132987477Y-93282388D01*
X132986157Y-93291067D01*
X132985840Y-93296178D01*
X132985746Y-93299212D01*
X132985746Y-93359320D01*
X130675746Y-93359320D01*
X130675746Y-93339071D01*
X130675414Y-93333359D01*
X130661266Y-93212005D01*
X130658635Y-93200877D01*
X130602890Y-93047302D01*
X130597772Y-93037081D01*
X130508192Y-92900450D01*
X130500859Y-92891680D01*
X130382250Y-92779321D01*
X130373098Y-92772474D01*
X130231820Y-92690412D01*
X130221339Y-92685855D01*
X130064969Y-92638495D01*
X130053721Y-92636472D01*
X130046397Y-92636017D01*
X130033480Y-92639346D01*
X130031173Y-92642140D01*
X130030746Y-92644381D01*
X130030746Y-93359320D01*
X129820746Y-93359320D01*
X129820746Y-92652704D01*
X129816624Y-92640019D01*
X129816020Y-92639580D01*
X129808873Y-92639064D01*
X129718219Y-92654642D01*
X129707253Y-92657869D01*
X129556912Y-92721840D01*
X129546993Y-92727498D01*
X129415397Y-92824341D01*
X129407040Y-92832134D01*
X129301258Y-92956648D01*
X129294915Y-92966160D01*
X129220616Y-93111667D01*
X129216632Y-93122377D01*
X129177477Y-93282388D01*
X129176157Y-93291067D01*
X129175840Y-93296178D01*
X129175746Y-93299212D01*
X129175746Y-93359320D01*
X126865746Y-93359320D01*
X126865746Y-93339071D01*
X126865414Y-93333359D01*
X126851266Y-93212005D01*
X126848635Y-93200877D01*
X126792890Y-93047302D01*
X126787772Y-93037081D01*
X126698192Y-92900450D01*
X126690859Y-92891680D01*
X126572250Y-92779321D01*
X126563098Y-92772474D01*
X126421820Y-92690412D01*
X126411339Y-92685855D01*
X126254969Y-92638495D01*
X126243721Y-92636472D01*
X126236397Y-92636017D01*
X126223480Y-92639346D01*
X126221173Y-92642140D01*
X126220746Y-92644381D01*
X126220746Y-93359320D01*
X126010746Y-93359320D01*
X126010746Y-92652704D01*
X126006624Y-92640019D01*
X126006020Y-92639580D01*
X125998873Y-92639064D01*
X125908219Y-92654642D01*
X125897253Y-92657869D01*
X125746912Y-92721840D01*
X125736993Y-92727498D01*
X125605397Y-92824341D01*
X125597040Y-92832134D01*
X125491258Y-92956648D01*
X125484915Y-92966160D01*
X125410616Y-93111667D01*
X125406632Y-93122377D01*
X125367477Y-93282388D01*
X125366157Y-93291067D01*
X125365840Y-93296178D01*
X125365746Y-93299212D01*
X125365746Y-93359320D01*
X124757090Y-93359320D01*
X124729637Y-93296183D01*
X124725804Y-93289036D01*
X124600712Y-93095673D01*
X124595766Y-93089250D01*
X124553542Y-93042847D01*
X124541955Y-93036238D01*
X124537966Y-93036678D01*
X124536650Y-93037588D01*
X123605324Y-93968914D01*
X123599270Y-93980797D01*
X123291410Y-93980797D01*
X123292222Y-93979203D01*
X123291426Y-93974172D01*
X122358648Y-93041394D01*
X122346765Y-93035340D01*
X122342169Y-93036068D01*
X122341786Y-93036352D01*
X122317834Y-93061417D01*
X122312731Y-93067718D01*
X122182948Y-93257972D01*
X122178946Y-93265018D01*
X122081980Y-93473915D01*
X122079182Y-93481520D01*
X122017637Y-93703442D01*
X122016116Y-93711416D01*
X121991643Y-93940413D01*
X121991445Y-93948504D01*
X119692380Y-93948504D01*
X119675765Y-93746413D01*
X119674443Y-93738427D01*
X119618336Y-93515059D01*
X119615723Y-93507383D01*
X119523891Y-93296183D01*
X119520058Y-93289036D01*
X119394966Y-93095673D01*
X119390020Y-93089250D01*
X119347796Y-93042847D01*
X119336209Y-93036238D01*
X119332220Y-93036678D01*
X119330904Y-93037588D01*
X118399578Y-93968914D01*
X118393524Y-93980797D01*
X118085664Y-93980797D01*
X118086476Y-93979203D01*
X118085680Y-93974172D01*
X117152902Y-93041394D01*
X117141019Y-93035340D01*
X117136423Y-93036068D01*
X117136040Y-93036352D01*
X117112088Y-93061417D01*
X117106985Y-93067718D01*
X116977202Y-93257972D01*
X116973200Y-93265018D01*
X116876234Y-93473915D01*
X116873436Y-93481520D01*
X116811891Y-93703442D01*
X116810370Y-93711416D01*
X116785897Y-93940413D01*
X116785699Y-93948504D01*
X116223981Y-93948504D01*
X116275130Y-93848333D01*
X116279114Y-93837623D01*
X116318269Y-93677612D01*
X116319589Y-93668933D01*
X116319906Y-93663822D01*
X116320000Y-93660788D01*
X116320000Y-93600680D01*
X116315878Y-93587995D01*
X116311757Y-93585000D01*
X115690680Y-93585000D01*
X115677995Y-93589122D01*
X115675000Y-93593243D01*
X115675000Y-94307296D01*
X115465000Y-94307296D01*
X115465000Y-93600680D01*
X115460878Y-93587995D01*
X115456757Y-93585000D01*
X114835680Y-93585000D01*
X114822995Y-93589122D01*
X114820000Y-93593243D01*
X114820000Y-93620929D01*
X114820332Y-93626636D01*
X114820904Y-93631545D01*
X114808864Y-93691534D01*
X114763863Y-93732989D01*
X114703089Y-93740076D01*
X114672846Y-93728619D01*
X114606273Y-93689950D01*
X114606268Y-93689948D01*
X114601298Y-93687061D01*
X114493070Y-93654282D01*
X114439312Y-93638000D01*
X114439310Y-93638000D01*
X114433807Y-93636333D01*
X114305951Y-93628401D01*
X114264878Y-93625853D01*
X114264877Y-93625853D01*
X114259138Y-93625497D01*
X114086660Y-93655134D01*
X114081365Y-93657387D01*
X113941162Y-93717044D01*
X113925627Y-93723654D01*
X113850535Y-93778916D01*
X113793517Y-93820877D01*
X113784676Y-93827383D01*
X113780953Y-93831765D01*
X113780951Y-93831767D01*
X113742326Y-93877232D01*
X113690241Y-93909338D01*
X113629232Y-93904697D01*
X113598795Y-93885006D01*
X113482628Y-93774960D01*
X113477658Y-93772073D01*
X113477655Y-93772071D01*
X113336272Y-93689950D01*
X113336271Y-93689950D01*
X113331298Y-93687061D01*
X113223070Y-93654282D01*
X113169312Y-93638000D01*
X113169310Y-93638000D01*
X113163807Y-93636333D01*
X113035951Y-93628401D01*
X112994878Y-93625853D01*
X112994877Y-93625853D01*
X112989138Y-93625497D01*
X112816660Y-93655134D01*
X112655627Y-93723654D01*
X112655583Y-93723550D01*
X112598135Y-93735446D01*
X112542371Y-93710267D01*
X112512057Y-93657119D01*
X112510000Y-93637044D01*
X112510000Y-93600680D01*
X112505878Y-93587995D01*
X112501757Y-93585000D01*
X111880680Y-93585000D01*
X111867995Y-93589122D01*
X111865000Y-93593243D01*
X111865000Y-94307296D01*
X111655000Y-94307296D01*
X111655000Y-93600680D01*
X111650878Y-93587995D01*
X111646757Y-93585000D01*
X111025680Y-93585000D01*
X111012995Y-93589122D01*
X111010000Y-93593243D01*
X111010000Y-93620929D01*
X111010332Y-93626636D01*
X111010904Y-93631545D01*
X110998864Y-93691534D01*
X110953863Y-93732989D01*
X110893089Y-93740076D01*
X110862846Y-93728619D01*
X110796273Y-93689950D01*
X110796268Y-93689948D01*
X110791298Y-93687061D01*
X110683070Y-93654282D01*
X110629312Y-93638000D01*
X110629310Y-93638000D01*
X110623807Y-93636333D01*
X110495951Y-93628401D01*
X110454878Y-93625853D01*
X110454877Y-93625853D01*
X110449138Y-93625497D01*
X110276660Y-93655134D01*
X110271365Y-93657387D01*
X110131162Y-93717044D01*
X110115627Y-93723654D01*
X110040535Y-93778916D01*
X109983517Y-93820877D01*
X109974676Y-93827383D01*
X109970953Y-93831765D01*
X109970951Y-93831767D01*
X109932326Y-93877232D01*
X109880241Y-93909338D01*
X109819232Y-93904697D01*
X109788795Y-93885006D01*
X109672628Y-93774960D01*
X109667658Y-93772073D01*
X109667655Y-93772071D01*
X109526272Y-93689950D01*
X109526271Y-93689950D01*
X109521298Y-93687061D01*
X109413070Y-93654282D01*
X109359312Y-93638000D01*
X109359310Y-93638000D01*
X109353807Y-93636333D01*
X109225951Y-93628401D01*
X109184878Y-93625853D01*
X109184877Y-93625853D01*
X109179138Y-93625497D01*
X109006660Y-93655134D01*
X108845627Y-93723654D01*
X108845583Y-93723550D01*
X108788135Y-93735446D01*
X108732371Y-93710267D01*
X108702057Y-93657119D01*
X108700000Y-93637044D01*
X108700000Y-93600680D01*
X108695878Y-93587995D01*
X108691757Y-93585000D01*
X108070680Y-93585000D01*
X108057995Y-93589122D01*
X108055000Y-93593243D01*
X108055000Y-94307296D01*
X107845000Y-94307296D01*
X107845000Y-93600680D01*
X107840878Y-93587995D01*
X107836757Y-93585000D01*
X107215680Y-93585000D01*
X107202995Y-93589122D01*
X107200000Y-93593243D01*
X107200000Y-93620929D01*
X106684929Y-93620929D01*
X106658336Y-93515059D01*
X106655723Y-93507383D01*
X106591344Y-93359320D01*
X107200000Y-93359320D01*
X107204122Y-93372005D01*
X107208243Y-93375000D01*
X107829320Y-93375000D01*
X107842005Y-93370878D01*
X107845000Y-93366757D01*
X107845000Y-93359320D01*
X108055000Y-93359320D01*
X108059122Y-93372005D01*
X108063243Y-93375000D01*
X108684320Y-93375000D01*
X108697005Y-93370878D01*
X108700000Y-93366757D01*
X108700000Y-93359320D01*
X111010000Y-93359320D01*
X111014122Y-93372005D01*
X111018243Y-93375000D01*
X111639320Y-93375000D01*
X111652005Y-93370878D01*
X111655000Y-93366757D01*
X111655000Y-93359320D01*
X111865000Y-93359320D01*
X111869122Y-93372005D01*
X111873243Y-93375000D01*
X112494320Y-93375000D01*
X112507005Y-93370878D01*
X112510000Y-93366757D01*
X112510000Y-93359320D01*
X114820000Y-93359320D01*
X114824122Y-93372005D01*
X114828243Y-93375000D01*
X115449320Y-93375000D01*
X115462005Y-93370878D01*
X115465000Y-93366757D01*
X115465000Y-93359320D01*
X115675000Y-93359320D01*
X115679122Y-93372005D01*
X115683243Y-93375000D01*
X116304320Y-93375000D01*
X116317005Y-93370878D01*
X116320000Y-93366757D01*
X116320000Y-93339071D01*
X116319668Y-93333359D01*
X116305520Y-93212005D01*
X116302889Y-93200877D01*
X116247144Y-93047302D01*
X116242026Y-93037081D01*
X116152446Y-92900450D01*
X116145113Y-92891680D01*
X116135029Y-92882127D01*
X117293991Y-92882127D01*
X117294014Y-92883644D01*
X117297128Y-92888636D01*
X118228914Y-93820422D01*
X118240797Y-93826476D01*
X118245828Y-93825680D01*
X119178356Y-92893152D01*
X119183973Y-92882127D01*
X122499737Y-92882127D01*
X122499760Y-92883644D01*
X122502874Y-92888636D01*
X123434660Y-93820422D01*
X123446543Y-93826476D01*
X123451574Y-93825680D01*
X124384102Y-92893152D01*
X124390156Y-92881269D01*
X124389817Y-92879129D01*
X124386782Y-92875428D01*
X124254102Y-92770642D01*
X124247358Y-92766162D01*
X124045729Y-92654858D01*
X124038337Y-92651536D01*
X123821248Y-92574660D01*
X123813409Y-92572589D01*
X123586674Y-92532201D01*
X123578606Y-92531438D01*
X123348314Y-92528625D01*
X123340235Y-92529190D01*
X123112580Y-92564026D01*
X123104694Y-92565905D01*
X122885780Y-92637457D01*
X122878323Y-92640592D01*
X122674033Y-92746938D01*
X122667177Y-92751256D01*
X122507407Y-92871214D01*
X122499737Y-92882127D01*
X119183973Y-92882127D01*
X119184410Y-92881269D01*
X119184071Y-92879129D01*
X119181036Y-92875428D01*
X119048356Y-92770642D01*
X119041612Y-92766162D01*
X118839983Y-92654858D01*
X118832591Y-92651536D01*
X118615502Y-92574660D01*
X118607663Y-92572589D01*
X118380928Y-92532201D01*
X118372860Y-92531438D01*
X118142568Y-92528625D01*
X118134489Y-92529190D01*
X117906834Y-92564026D01*
X117898948Y-92565905D01*
X117680034Y-92637457D01*
X117672577Y-92640592D01*
X117468287Y-92746938D01*
X117461431Y-92751256D01*
X117301661Y-92871214D01*
X117293991Y-92882127D01*
X116135029Y-92882127D01*
X116026504Y-92779321D01*
X116017352Y-92772474D01*
X115876074Y-92690412D01*
X115865593Y-92685855D01*
X115709223Y-92638495D01*
X115697975Y-92636472D01*
X115690651Y-92636017D01*
X115677734Y-92639346D01*
X115675427Y-92642140D01*
X115675000Y-92644381D01*
X115675000Y-93359320D01*
X115465000Y-93359320D01*
X115465000Y-92652704D01*
X115460878Y-92640019D01*
X115460274Y-92639580D01*
X115453127Y-92639064D01*
X115362473Y-92654642D01*
X115351507Y-92657869D01*
X115201166Y-92721840D01*
X115191247Y-92727498D01*
X115059651Y-92824341D01*
X115051294Y-92832134D01*
X114945512Y-92956648D01*
X114939169Y-92966160D01*
X114864870Y-93111667D01*
X114860886Y-93122377D01*
X114821731Y-93282388D01*
X114820411Y-93291067D01*
X114820094Y-93296178D01*
X114820000Y-93299212D01*
X114820000Y-93359320D01*
X112510000Y-93359320D01*
X112510000Y-93339071D01*
X112509668Y-93333359D01*
X112495520Y-93212005D01*
X112492889Y-93200877D01*
X112437144Y-93047302D01*
X112432026Y-93037081D01*
X112342446Y-92900450D01*
X112335113Y-92891680D01*
X112216504Y-92779321D01*
X112207352Y-92772474D01*
X112066074Y-92690412D01*
X112055593Y-92685855D01*
X111899223Y-92638495D01*
X111887975Y-92636472D01*
X111880651Y-92636017D01*
X111867734Y-92639346D01*
X111865427Y-92642140D01*
X111865000Y-92644381D01*
X111865000Y-93359320D01*
X111655000Y-93359320D01*
X111655000Y-92652704D01*
X111650878Y-92640019D01*
X111650274Y-92639580D01*
X111643127Y-92639064D01*
X111552473Y-92654642D01*
X111541507Y-92657869D01*
X111391166Y-92721840D01*
X111381247Y-92727498D01*
X111249651Y-92824341D01*
X111241294Y-92832134D01*
X111135512Y-92956648D01*
X111129169Y-92966160D01*
X111054870Y-93111667D01*
X111050886Y-93122377D01*
X111011731Y-93282388D01*
X111010411Y-93291067D01*
X111010094Y-93296178D01*
X111010000Y-93299212D01*
X111010000Y-93359320D01*
X108700000Y-93359320D01*
X108700000Y-93339071D01*
X108699668Y-93333359D01*
X108685520Y-93212005D01*
X108682889Y-93200877D01*
X108627144Y-93047302D01*
X108622026Y-93037081D01*
X108532446Y-92900450D01*
X108525113Y-92891680D01*
X108406504Y-92779321D01*
X108397352Y-92772474D01*
X108256074Y-92690412D01*
X108245593Y-92685855D01*
X108089223Y-92638495D01*
X108077975Y-92636472D01*
X108070651Y-92636017D01*
X108057734Y-92639346D01*
X108055427Y-92642140D01*
X108055000Y-92644381D01*
X108055000Y-93359320D01*
X107845000Y-93359320D01*
X107845000Y-92652704D01*
X107840878Y-92640019D01*
X107840274Y-92639580D01*
X107833127Y-92639064D01*
X107742473Y-92654642D01*
X107731507Y-92657869D01*
X107581166Y-92721840D01*
X107571247Y-92727498D01*
X107439651Y-92824341D01*
X107431294Y-92832134D01*
X107325512Y-92956648D01*
X107319169Y-92966160D01*
X107244870Y-93111667D01*
X107240886Y-93122377D01*
X107201731Y-93282388D01*
X107200411Y-93291067D01*
X107200094Y-93296178D01*
X107200000Y-93299212D01*
X107200000Y-93359320D01*
X106591344Y-93359320D01*
X106563891Y-93296183D01*
X106560058Y-93289036D01*
X106434966Y-93095673D01*
X106430020Y-93089250D01*
X106387796Y-93042847D01*
X106376209Y-93036238D01*
X106372220Y-93036678D01*
X106370904Y-93037588D01*
X105439578Y-93968914D01*
X105433524Y-93980797D01*
X105125664Y-93980797D01*
X105126476Y-93979203D01*
X105125680Y-93974172D01*
X104192902Y-93041394D01*
X104181019Y-93035340D01*
X104176423Y-93036068D01*
X104176040Y-93036352D01*
X104152088Y-93061417D01*
X104146985Y-93067718D01*
X104017202Y-93257972D01*
X104013200Y-93265018D01*
X103916234Y-93473915D01*
X103913436Y-93481520D01*
X103851891Y-93703442D01*
X103850370Y-93711416D01*
X103825897Y-93940413D01*
X103825699Y-93948504D01*
X101325500Y-93948504D01*
X101325500Y-93790864D01*
X101297071Y-93657119D01*
X101291592Y-93631340D01*
X101291592Y-93631339D01*
X101290514Y-93626269D01*
X101288137Y-93620929D01*
X101224180Y-93477280D01*
X101224179Y-93477278D01*
X101222072Y-93472546D01*
X101123164Y-93336411D01*
X101119314Y-93332945D01*
X101119311Y-93332941D01*
X101001970Y-93227287D01*
X100998114Y-93223815D01*
X100993623Y-93221222D01*
X100856876Y-93142271D01*
X100856874Y-93142270D01*
X100852386Y-93139679D01*
X100847456Y-93138077D01*
X100697282Y-93089282D01*
X100697277Y-93089281D01*
X100692350Y-93087680D01*
X100655720Y-93083830D01*
X100538267Y-93071485D01*
X100536757Y-93071232D01*
X100536755Y-93071253D01*
X100531181Y-93070611D01*
X100525718Y-93069345D01*
X100525000Y-93069344D01*
X100519548Y-93070588D01*
X100519545Y-93070588D01*
X100513266Y-93072020D01*
X100491248Y-93074500D01*
X97924500Y-93074500D01*
X97866309Y-93055593D01*
X97830345Y-93006093D01*
X97825500Y-92975500D01*
X97825500Y-92882127D01*
X104333991Y-92882127D01*
X104334014Y-92883644D01*
X104337128Y-92888636D01*
X105268914Y-93820422D01*
X105280797Y-93826476D01*
X105285828Y-93825680D01*
X106218356Y-92893152D01*
X106224410Y-92881269D01*
X106224071Y-92879129D01*
X106221036Y-92875428D01*
X106088356Y-92770642D01*
X106081612Y-92766162D01*
X105879983Y-92654858D01*
X105872591Y-92651536D01*
X105655502Y-92574660D01*
X105647663Y-92572589D01*
X105420928Y-92532201D01*
X105412860Y-92531438D01*
X105182568Y-92528625D01*
X105174489Y-92529190D01*
X104946834Y-92564026D01*
X104938948Y-92565905D01*
X104720034Y-92637457D01*
X104712577Y-92640592D01*
X104508287Y-92746938D01*
X104501431Y-92751256D01*
X104341661Y-92871214D01*
X104333991Y-92882127D01*
X97825500Y-92882127D01*
X97825500Y-92839185D01*
X97844407Y-92780994D01*
X97893907Y-92745030D01*
X97955093Y-92745030D01*
X98006815Y-92784183D01*
X98030448Y-92819552D01*
X98096769Y-92863867D01*
X98106332Y-92865769D01*
X98106334Y-92865770D01*
X98122182Y-92868922D01*
X98155252Y-92875500D01*
X100144748Y-92875500D01*
X100177818Y-92868922D01*
X100193666Y-92865770D01*
X100193668Y-92865769D01*
X100203231Y-92863867D01*
X100269552Y-92819552D01*
X100313867Y-92753231D01*
X100325500Y-92694748D01*
X100325500Y-92305252D01*
X100318351Y-92269311D01*
X100318351Y-92230689D01*
X100325500Y-92194748D01*
X100325500Y-91805252D01*
X100318351Y-91769311D01*
X100318351Y-91730689D01*
X100325500Y-91694748D01*
X100325500Y-91305252D01*
X100318351Y-91269311D01*
X100318351Y-91230689D01*
X100325500Y-91194748D01*
X100325500Y-90805252D01*
X100313867Y-90746769D01*
X100269552Y-90680448D01*
X100203231Y-90636133D01*
X100193668Y-90634231D01*
X100193666Y-90634230D01*
X100170995Y-90629721D01*
X100144748Y-90624500D01*
X98155252Y-90624500D01*
X98129005Y-90629721D01*
X98106334Y-90634230D01*
X98106332Y-90634231D01*
X98096769Y-90636133D01*
X98030448Y-90680448D01*
X98025029Y-90688558D01*
X98006815Y-90715817D01*
X97958765Y-90753696D01*
X97897627Y-90756098D01*
X97846753Y-90722105D01*
X97825500Y-90660815D01*
X97825500Y-90374500D01*
X97844407Y-90316309D01*
X97893907Y-90280345D01*
X97924500Y-90275500D01*
X101090719Y-90275500D01*
X101113074Y-90278057D01*
X101124282Y-90280655D01*
X101125000Y-90280656D01*
X101132542Y-90278935D01*
X101144856Y-90276933D01*
X101257480Y-90265841D01*
X101257481Y-90265841D01*
X101262322Y-90265364D01*
X101394367Y-90225309D01*
X101516060Y-90160262D01*
X101622725Y-90072725D01*
X101639606Y-90052155D01*
X101707178Y-89969818D01*
X101707178Y-89969817D01*
X101710262Y-89966060D01*
X101759202Y-89874500D01*
X101773014Y-89848661D01*
X101773015Y-89848659D01*
X101775309Y-89844367D01*
X101815364Y-89712322D01*
X101815841Y-89707481D01*
X101826831Y-89595896D01*
X101828910Y-89583248D01*
X101829388Y-89581184D01*
X101829388Y-89581183D01*
X101830655Y-89575718D01*
X101830656Y-89575000D01*
X101829412Y-89569545D01*
X101827980Y-89563266D01*
X101825500Y-89541248D01*
X101825500Y-89299500D01*
X101844407Y-89241309D01*
X101893907Y-89205345D01*
X101924500Y-89200500D01*
X177325500Y-89200500D01*
X177383691Y-89219407D01*
G37*
G04 #@! TD.AperFunction*
M02*
