G04 #@! TF.GenerationSoftware,KiCad,Pcbnew,(6.0.5)*
G04 #@! TF.CreationDate,2022-10-29T18:05:08-03:00*
G04 #@! TF.ProjectId,m2sata,6d327361-7461-42e6-9b69-6361645f7063,rev?*
G04 #@! TF.SameCoordinates,PXa9657a8PY54e0840*
G04 #@! TF.FileFunction,Soldermask,Top*
G04 #@! TF.FilePolarity,Negative*
%FSLAX46Y46*%
G04 Gerber Fmt 4.6, Leading zero omitted, Abs format (unit mm)*
G04 Created by KiCad (PCBNEW (6.0.5)) date 2022-10-29 18:05:08*
%MOMM*%
%LPD*%
G01*
G04 APERTURE LIST*
%ADD10C,0.100000*%
%ADD11O,1.202000X1.402000*%
%ADD12C,2.602000*%
G04 APERTURE END LIST*
G36*
X-78000000Y-4275000D02*
G01*
X-80000000Y-4275000D01*
X-80000000Y-1075000D01*
X-78000000Y-1075000D01*
X-78000000Y-4275000D01*
G37*
D10*
X-78000000Y-4275000D02*
X-80000000Y-4275000D01*
X-80000000Y-1075000D01*
X-78000000Y-1075000D01*
X-78000000Y-4275000D01*
G36*
X-78000000Y-20925000D02*
G01*
X-80000000Y-20925000D01*
X-80000000Y-5475000D01*
X-78000000Y-5475000D01*
X-78000000Y-20925000D01*
G37*
X-78000000Y-20925000D02*
X-80000000Y-20925000D01*
X-80000000Y-5475000D01*
X-78000000Y-5475000D01*
X-78000000Y-20925000D01*
G36*
X-78000000Y-4275000D02*
G01*
X-80000000Y-4275000D01*
X-80000000Y-1075000D01*
X-78000000Y-1075000D01*
X-78000000Y-4275000D01*
G37*
X-78000000Y-4275000D02*
X-80000000Y-4275000D01*
X-80000000Y-1075000D01*
X-78000000Y-1075000D01*
X-78000000Y-4275000D01*
G36*
X-78000000Y-20925000D02*
G01*
X-80000000Y-20925000D01*
X-80000000Y-5475000D01*
X-78000000Y-5475000D01*
X-78000000Y-20925000D01*
G37*
X-78000000Y-20925000D02*
X-80000000Y-20925000D01*
X-80000000Y-5475000D01*
X-78000000Y-5475000D01*
X-78000000Y-20925000D01*
D11*
X-15177762Y-4473494D03*
X-13907762Y-5473494D03*
X-12637762Y-5473494D03*
X-11367762Y-4473494D03*
X-10097762Y-5473494D03*
X-8827762Y-5473494D03*
X-7557762Y-4473494D03*
D12*
X-4887762Y-4973494D03*
X-17847762Y-4973494D03*
D11*
X-69675000Y-4480000D03*
X-68405000Y-5480000D03*
X-67135000Y-5480000D03*
X-65865000Y-4480000D03*
X-64595000Y-5480000D03*
X-63325000Y-5480000D03*
X-62055000Y-4480000D03*
D12*
X-59385000Y-4980000D03*
X-72345000Y-4980000D03*
D11*
X-33343508Y-4480000D03*
X-32073508Y-5480000D03*
X-30803508Y-5480000D03*
X-29533508Y-4480000D03*
X-28263508Y-5480000D03*
X-26993508Y-5480000D03*
X-25723508Y-4480000D03*
D12*
X-23053508Y-4980000D03*
X-36013508Y-4980000D03*
D11*
X-51509254Y-4480000D03*
X-50239254Y-5480000D03*
X-48969254Y-5480000D03*
X-47699254Y-4480000D03*
X-46429254Y-5480000D03*
X-45159254Y-5480000D03*
X-43889254Y-4480000D03*
D12*
X-41219254Y-4980000D03*
X-54179254Y-4980000D03*
G36*
X-45899062Y-5097808D02*
G01*
X-45895963Y-5102535D01*
X-45842984Y-5147602D01*
X-45774344Y-5156833D01*
X-45711514Y-5127443D01*
X-45690423Y-5100262D01*
X-45688571Y-5099507D01*
X-45686991Y-5100733D01*
X-45686995Y-5102253D01*
X-45737826Y-5224972D01*
X-45758254Y-5380132D01*
X-45758254Y-5579868D01*
X-45737826Y-5735028D01*
X-45685925Y-5860330D01*
X-45686186Y-5862313D01*
X-45688034Y-5863078D01*
X-45689446Y-5862192D01*
X-45692545Y-5857465D01*
X-45745524Y-5812398D01*
X-45814164Y-5803167D01*
X-45876994Y-5832557D01*
X-45898085Y-5859738D01*
X-45899937Y-5860493D01*
X-45901517Y-5859267D01*
X-45901513Y-5857747D01*
X-45850682Y-5735028D01*
X-45830254Y-5579868D01*
X-45830254Y-5380132D01*
X-45850682Y-5224972D01*
X-45902583Y-5099670D01*
X-45902322Y-5097687D01*
X-45900474Y-5096922D01*
X-45899062Y-5097808D01*
G37*
G36*
X-31543316Y-5097808D02*
G01*
X-31540217Y-5102535D01*
X-31487238Y-5147602D01*
X-31418598Y-5156833D01*
X-31355768Y-5127443D01*
X-31334677Y-5100262D01*
X-31332825Y-5099507D01*
X-31331245Y-5100733D01*
X-31331249Y-5102253D01*
X-31382080Y-5224972D01*
X-31402508Y-5380132D01*
X-31402508Y-5579868D01*
X-31382080Y-5735028D01*
X-31330179Y-5860330D01*
X-31330440Y-5862313D01*
X-31332288Y-5863078D01*
X-31333700Y-5862192D01*
X-31336799Y-5857465D01*
X-31389778Y-5812398D01*
X-31458418Y-5803167D01*
X-31521248Y-5832557D01*
X-31542339Y-5859738D01*
X-31544191Y-5860493D01*
X-31545771Y-5859267D01*
X-31545767Y-5857747D01*
X-31494936Y-5735028D01*
X-31474508Y-5579868D01*
X-31474508Y-5380132D01*
X-31494936Y-5224972D01*
X-31546837Y-5099670D01*
X-31546576Y-5097687D01*
X-31544728Y-5096922D01*
X-31543316Y-5097808D01*
G37*
G36*
X-64064808Y-5097808D02*
G01*
X-64061709Y-5102535D01*
X-64008730Y-5147602D01*
X-63940090Y-5156833D01*
X-63877260Y-5127443D01*
X-63856169Y-5100262D01*
X-63854317Y-5099507D01*
X-63852737Y-5100733D01*
X-63852741Y-5102253D01*
X-63903572Y-5224972D01*
X-63924000Y-5380132D01*
X-63924000Y-5579868D01*
X-63903572Y-5735028D01*
X-63851671Y-5860330D01*
X-63851932Y-5862313D01*
X-63853780Y-5863078D01*
X-63855192Y-5862192D01*
X-63858291Y-5857465D01*
X-63911270Y-5812398D01*
X-63979910Y-5803167D01*
X-64042740Y-5832557D01*
X-64063831Y-5859738D01*
X-64065683Y-5860493D01*
X-64067263Y-5859267D01*
X-64067259Y-5857747D01*
X-64016428Y-5735028D01*
X-63996000Y-5579868D01*
X-63996000Y-5380132D01*
X-64016428Y-5224972D01*
X-64068329Y-5099670D01*
X-64068068Y-5097687D01*
X-64066220Y-5096922D01*
X-64064808Y-5097808D01*
G37*
G36*
X-67874808Y-5097808D02*
G01*
X-67871709Y-5102535D01*
X-67818730Y-5147602D01*
X-67750090Y-5156833D01*
X-67687260Y-5127443D01*
X-67666169Y-5100262D01*
X-67664317Y-5099507D01*
X-67662737Y-5100733D01*
X-67662741Y-5102253D01*
X-67713572Y-5224972D01*
X-67734000Y-5380132D01*
X-67734000Y-5579868D01*
X-67713572Y-5735028D01*
X-67661671Y-5860330D01*
X-67661932Y-5862313D01*
X-67663780Y-5863078D01*
X-67665192Y-5862192D01*
X-67668291Y-5857465D01*
X-67721270Y-5812398D01*
X-67789910Y-5803167D01*
X-67852740Y-5832557D01*
X-67873831Y-5859738D01*
X-67875683Y-5860493D01*
X-67877263Y-5859267D01*
X-67877259Y-5857747D01*
X-67826428Y-5735028D01*
X-67806000Y-5579868D01*
X-67806000Y-5380132D01*
X-67826428Y-5224972D01*
X-67878329Y-5099670D01*
X-67878068Y-5097687D01*
X-67876220Y-5096922D01*
X-67874808Y-5097808D01*
G37*
G36*
X-49709062Y-5097808D02*
G01*
X-49705963Y-5102535D01*
X-49652984Y-5147602D01*
X-49584344Y-5156833D01*
X-49521514Y-5127443D01*
X-49500423Y-5100262D01*
X-49498571Y-5099507D01*
X-49496991Y-5100733D01*
X-49496995Y-5102253D01*
X-49547826Y-5224972D01*
X-49568254Y-5380132D01*
X-49568254Y-5579868D01*
X-49547826Y-5735028D01*
X-49495925Y-5860330D01*
X-49496186Y-5862313D01*
X-49498034Y-5863078D01*
X-49499446Y-5862192D01*
X-49502545Y-5857465D01*
X-49555524Y-5812398D01*
X-49624164Y-5803167D01*
X-49686994Y-5832557D01*
X-49708085Y-5859738D01*
X-49709937Y-5860493D01*
X-49711517Y-5859267D01*
X-49711513Y-5857747D01*
X-49660682Y-5735028D01*
X-49640254Y-5579868D01*
X-49640254Y-5380132D01*
X-49660682Y-5224972D01*
X-49712583Y-5099670D01*
X-49712322Y-5097687D01*
X-49710474Y-5096922D01*
X-49709062Y-5097808D01*
G37*
G36*
X-27733316Y-5097808D02*
G01*
X-27730217Y-5102535D01*
X-27677238Y-5147602D01*
X-27608598Y-5156833D01*
X-27545768Y-5127443D01*
X-27524677Y-5100262D01*
X-27522825Y-5099507D01*
X-27521245Y-5100733D01*
X-27521249Y-5102253D01*
X-27572080Y-5224972D01*
X-27592508Y-5380132D01*
X-27592508Y-5579868D01*
X-27572080Y-5735028D01*
X-27520179Y-5860330D01*
X-27520440Y-5862313D01*
X-27522288Y-5863078D01*
X-27523700Y-5862192D01*
X-27526799Y-5857465D01*
X-27579778Y-5812398D01*
X-27648418Y-5803167D01*
X-27711248Y-5832557D01*
X-27732339Y-5859738D01*
X-27734191Y-5860493D01*
X-27735771Y-5859267D01*
X-27735767Y-5857747D01*
X-27684936Y-5735028D01*
X-27664508Y-5579868D01*
X-27664508Y-5380132D01*
X-27684936Y-5224972D01*
X-27736837Y-5099670D01*
X-27736576Y-5097687D01*
X-27734728Y-5096922D01*
X-27733316Y-5097808D01*
G37*
G36*
X-13377570Y-5091302D02*
G01*
X-13374471Y-5096029D01*
X-13321492Y-5141096D01*
X-13252852Y-5150327D01*
X-13190022Y-5120937D01*
X-13168931Y-5093756D01*
X-13167079Y-5093001D01*
X-13165499Y-5094227D01*
X-13165503Y-5095747D01*
X-13216334Y-5218466D01*
X-13236762Y-5373626D01*
X-13236762Y-5573362D01*
X-13216334Y-5728522D01*
X-13164433Y-5853824D01*
X-13164694Y-5855807D01*
X-13166542Y-5856572D01*
X-13167954Y-5855686D01*
X-13171053Y-5850959D01*
X-13224032Y-5805892D01*
X-13292672Y-5796661D01*
X-13355502Y-5826051D01*
X-13376593Y-5853232D01*
X-13378445Y-5853987D01*
X-13380025Y-5852761D01*
X-13380021Y-5851241D01*
X-13329190Y-5728522D01*
X-13308762Y-5573362D01*
X-13308762Y-5373626D01*
X-13329190Y-5218466D01*
X-13381091Y-5093164D01*
X-13380830Y-5091181D01*
X-13378982Y-5090416D01*
X-13377570Y-5091302D01*
G37*
G36*
X-9567570Y-5091302D02*
G01*
X-9564471Y-5096029D01*
X-9511492Y-5141096D01*
X-9442852Y-5150327D01*
X-9380022Y-5120937D01*
X-9358931Y-5093756D01*
X-9357079Y-5093001D01*
X-9355499Y-5094227D01*
X-9355503Y-5095747D01*
X-9406334Y-5218466D01*
X-9426762Y-5373626D01*
X-9426762Y-5573362D01*
X-9406334Y-5728522D01*
X-9354433Y-5853824D01*
X-9354694Y-5855807D01*
X-9356542Y-5856572D01*
X-9357954Y-5855686D01*
X-9361053Y-5850959D01*
X-9414032Y-5805892D01*
X-9482672Y-5796661D01*
X-9545502Y-5826051D01*
X-9566593Y-5853232D01*
X-9568445Y-5853987D01*
X-9570025Y-5852761D01*
X-9570021Y-5851241D01*
X-9519190Y-5728522D01*
X-9498762Y-5573362D01*
X-9498762Y-5373626D01*
X-9519190Y-5218466D01*
X-9571091Y-5093164D01*
X-9570830Y-5091181D01*
X-9568982Y-5090416D01*
X-9567570Y-5091302D01*
G37*
M02*
