G04 #@! TF.GenerationSoftware,KiCad,Pcbnew,(6.0.5)*
G04 #@! TF.CreationDate,2022-10-29T18:05:08-03:00*
G04 #@! TF.ProjectId,m2sata,6d327361-7461-42e6-9b69-6361645f7063,rev?*
G04 #@! TF.SameCoordinates,PXa9657a8PY54e0840*
G04 #@! TF.FileFunction,Legend,Bot*
G04 #@! TF.FilePolarity,Positive*
%FSLAX46Y46*%
G04 Gerber Fmt 4.6, Leading zero omitted, Abs format (unit mm)*
G04 Created by KiCad (PCBNEW (6.0.5)) date 2022-10-29 18:05:08*
%MOMM*%
%LPD*%
G01*
G04 APERTURE LIST*
%ADD10C,0.100000*%
%ADD11O,1.202000X1.402000*%
%ADD12C,2.602000*%
G04 APERTURE END LIST*
%LPC*%
G36*
X-77500000Y-20925000D02*
G01*
X-80000000Y-20925000D01*
X-80000000Y-5475000D01*
X-77500000Y-5475000D01*
X-77500000Y-20925000D01*
G37*
D10*
X-77500000Y-20925000D02*
X-80000000Y-20925000D01*
X-80000000Y-5475000D01*
X-77500000Y-5475000D01*
X-77500000Y-20925000D01*
G36*
X-77500000Y-4275000D02*
G01*
X-80000000Y-4275000D01*
X-80000000Y-1075000D01*
X-77500000Y-1075000D01*
X-77500000Y-4275000D01*
G37*
X-77500000Y-4275000D02*
X-80000000Y-4275000D01*
X-80000000Y-1075000D01*
X-77500000Y-1075000D01*
X-77500000Y-4275000D01*
D11*
X-15177762Y-4473494D03*
X-13907762Y-5473494D03*
X-12637762Y-5473494D03*
X-11367762Y-4473494D03*
X-10097762Y-5473494D03*
X-8827762Y-5473494D03*
X-7557762Y-4473494D03*
D12*
X-4887762Y-4973494D03*
X-17847762Y-4973494D03*
D11*
X-69675000Y-4480000D03*
X-68405000Y-5480000D03*
X-67135000Y-5480000D03*
X-65865000Y-4480000D03*
X-64595000Y-5480000D03*
X-63325000Y-5480000D03*
X-62055000Y-4480000D03*
D12*
X-59385000Y-4980000D03*
X-72345000Y-4980000D03*
D11*
X-33343508Y-4480000D03*
X-32073508Y-5480000D03*
X-30803508Y-5480000D03*
X-29533508Y-4480000D03*
X-28263508Y-5480000D03*
X-26993508Y-5480000D03*
X-25723508Y-4480000D03*
D12*
X-23053508Y-4980000D03*
X-36013508Y-4980000D03*
D11*
X-51509254Y-4480000D03*
X-50239254Y-5480000D03*
X-48969254Y-5480000D03*
X-47699254Y-4480000D03*
X-46429254Y-5480000D03*
X-45159254Y-5480000D03*
X-43889254Y-4480000D03*
D12*
X-41219254Y-4980000D03*
X-54179254Y-4980000D03*
M02*
