%FSLAX45Y45*%
G04 Gerber Fmt 4.5, Leading zero omitted, Abs format (unit mm)*
G04 Created by KiCad (PCBNEW (6.0.5)) date 2022-11-10 21:30:56*
%MOMM*%
%LPD*%
G01*
G04 APERTURE LIST*
%TA.AperFunction,Profile*%
%ADD10C,0.050000*%
%TD*%
%ADD11C,0.200000*%
G04 APERTURE END LIST*
D10*
X10162500Y-11100000D02*
X17762500Y-11100000D01*
X17762500Y-11100000D02*
X17762500Y-10155000D01*
X17762500Y-9845000D02*
X17762500Y-8900000D01*
X17762500Y-8900000D02*
X10162500Y-8900000D01*
X17762500Y-9845000D02*
G75*
G03*
X17762500Y-10155000I0J-155000D01*
G01*
D11*
X10017619Y-11412976D02*
X10017619Y-11212976D01*
X10065238Y-11212976D01*
X10093810Y-11222500D01*
X10112857Y-11241548D01*
X10122381Y-11260595D01*
X10131905Y-11298690D01*
X10131905Y-11327262D01*
X10122381Y-11365357D01*
X10112857Y-11384405D01*
X10093810Y-11403452D01*
X10065238Y-11412976D01*
X10017619Y-11412976D01*
X10217619Y-11412976D02*
X10217619Y-11279643D01*
X10217619Y-11317738D02*
X10227143Y-11298690D01*
X10236667Y-11289167D01*
X10255714Y-11279643D01*
X10274762Y-11279643D01*
X10341429Y-11412976D02*
X10341429Y-11279643D01*
X10341429Y-11212976D02*
X10331905Y-11222500D01*
X10341429Y-11232024D01*
X10350952Y-11222500D01*
X10341429Y-11212976D01*
X10341429Y-11232024D01*
X10465238Y-11412976D02*
X10446190Y-11403452D01*
X10436667Y-11384405D01*
X10436667Y-11212976D01*
X10570000Y-11412976D02*
X10550952Y-11403452D01*
X10541429Y-11384405D01*
X10541429Y-11212976D01*
X10798571Y-11412976D02*
X10798571Y-11212976D01*
X10865238Y-11355833D01*
X10931905Y-11212976D01*
X10931905Y-11412976D01*
X11112857Y-11412976D02*
X11112857Y-11308214D01*
X11103333Y-11289167D01*
X11084286Y-11279643D01*
X11046190Y-11279643D01*
X11027143Y-11289167D01*
X11112857Y-11403452D02*
X11093810Y-11412976D01*
X11046190Y-11412976D01*
X11027143Y-11403452D01*
X11017619Y-11384405D01*
X11017619Y-11365357D01*
X11027143Y-11346309D01*
X11046190Y-11336786D01*
X11093810Y-11336786D01*
X11112857Y-11327262D01*
X11208095Y-11279643D02*
X11208095Y-11479643D01*
X11208095Y-11289167D02*
X11227143Y-11279643D01*
X11265238Y-11279643D01*
X11284286Y-11289167D01*
X11293809Y-11298690D01*
X11303333Y-11317738D01*
X11303333Y-11374881D01*
X11293809Y-11393928D01*
X11284286Y-11403452D01*
X11265238Y-11412976D01*
X11227143Y-11412976D01*
X11208095Y-11403452D01*
X11389048Y-11393928D02*
X11398571Y-11403452D01*
X11389048Y-11412976D01*
X11379524Y-11403452D01*
X11389048Y-11393928D01*
X11389048Y-11412976D01*
X11389048Y-11289167D02*
X11398571Y-11298690D01*
X11389048Y-11308214D01*
X11379524Y-11298690D01*
X11389048Y-11289167D01*
X11389048Y-11308214D01*
M02*
