M48
; DRILL file {KiCad (6.0.5)} date Thu Nov 10 21:29:27 2022
; FORMAT={-:-/ absolute / metric / decimal}
; #@! TF.CreationDate,2022-11-10T21:29:27-03:00
; #@! TF.GenerationSoftware,Kicad,Pcbnew,(6.0.5)
; #@! TF.FileFunction,Plated,1,2,PTH
FMAT,2
METRIC
; #@! TA.AperFunction,Plated,PTH,ViaDrill
T1C0.400
; #@! TA.AperFunction,Plated,PTH,ComponentDrill
T2C0.740
; #@! TA.AperFunction,Plated,PTH,ComponentDrill
T3C1.350
%
G90
G05
T1
X102.5Y-90.0
X102.5Y-92.5
X102.5Y-95.0
X102.5Y-110.0
X105.0Y-90.0
X105.0Y-110.0
X107.5Y-90.0
X107.5Y-110.0
X110.0Y-90.0
X110.0Y-110.0
X112.5Y-90.0
X112.5Y-110.0
X115.0Y-90.0
X115.0Y-97.5
X115.0Y-110.0
X117.5Y-90.0
X117.5Y-97.5
X117.5Y-110.0
X120.0Y-90.0
X120.0Y-97.5
X120.0Y-110.0
X122.5Y-90.0
X122.5Y-97.5
X122.5Y-110.0
X125.0Y-90.0
X125.0Y-97.5
X125.0Y-110.0
X126.746Y-102.225
X127.5Y-90.0
X127.5Y-110.0
X128.498Y-101.422
X130.0Y-90.0
X130.0Y-110.0
X132.5Y-90.0
X132.5Y-100.0
X132.5Y-110.0
X135.0Y-90.0
X135.0Y-97.5
X135.0Y-100.0
X135.0Y-110.0
X137.5Y-90.0
X137.5Y-97.5
X137.5Y-100.0
X137.5Y-110.0
X140.0Y-90.0
X140.0Y-97.5
X140.0Y-100.0
X140.0Y-110.0
X141.843Y-105.216
X142.5Y-90.0
X142.5Y-97.5
X142.5Y-110.0
X143.54Y-104.516
X145.0Y-90.0
X145.0Y-110.0
X147.5Y-90.0
X147.5Y-105.0
X147.5Y-110.0
X150.0Y-90.0
X150.0Y-102.5
X150.0Y-110.0
X152.5Y-90.0
X152.5Y-97.5
X152.5Y-100.0
X152.5Y-105.0
X152.5Y-110.0
X155.0Y-90.0
X155.0Y-97.5
X155.0Y-102.5
X155.0Y-110.0
X157.053Y-108.204
X157.5Y-90.0
X157.5Y-97.5
X157.5Y-100.0
X157.5Y-110.0
X158.726Y-107.52
X160.0Y-90.0
X160.0Y-97.5
X160.0Y-110.0
X162.5Y-90.0
X162.5Y-107.5
X162.5Y-110.0
X165.0Y-90.0
X165.0Y-105.0
X165.0Y-110.0
X167.5Y-90.0
X167.5Y-102.5
X167.5Y-110.0
X170.0Y-90.0
X170.0Y-97.5
X170.0Y-100.0
X170.0Y-110.0
X172.5Y-90.0
X172.5Y-97.5
X172.5Y-110.0
X175.0Y-90.0
X175.0Y-92.5
X175.0Y-95.0
X175.0Y-97.5
X175.0Y-100.0
X175.0Y-102.5
X175.0Y-105.0
X175.0Y-107.5
X175.0Y-110.0
T2
X107.95Y-93.48
X109.22Y-94.48
X110.49Y-94.48
X111.76Y-93.48
X113.03Y-94.48
X114.3Y-94.48
X115.57Y-93.48
X126.116Y-93.48
X127.386Y-94.48
X128.656Y-94.48
X129.926Y-93.48
X131.196Y-94.48
X132.466Y-94.48
X133.736Y-93.48
X144.281Y-93.48
X145.551Y-94.48
X146.821Y-94.48
X148.091Y-93.48
X149.361Y-94.48
X150.631Y-94.48
X151.901Y-93.48
X162.447Y-93.473
X163.717Y-94.473
X164.987Y-94.473
X166.257Y-93.473
X167.527Y-94.473
X168.797Y-94.473
X170.067Y-93.473
T3
X105.28Y-93.98
X118.24Y-93.98
X123.446Y-93.98
X136.406Y-93.98
X141.611Y-93.98
X154.571Y-93.98
X159.777Y-93.973
X172.737Y-93.973
T0
M30
