G04 #@! TF.GenerationSoftware,KiCad,Pcbnew,(6.0.5)*
G04 #@! TF.CreationDate,2022-11-11T14:25:18-03:00*
G04 #@! TF.ProjectId,m2sata,6d327361-7461-42e6-9b69-6361645f7063,rev?*
G04 #@! TF.SameCoordinates,Original*
G04 #@! TF.FileFunction,Legend,Bot*
G04 #@! TF.FilePolarity,Positive*
%FSLAX46Y46*%
G04 Gerber Fmt 4.6, Leading zero omitted, Abs format (unit mm)*
G04 Created by KiCad (PCBNEW (6.0.5)) date 2022-11-11 14:25:18*
%MOMM*%
%LPD*%
G01*
G04 APERTURE LIST*
%ADD10C,0.100000*%
%ADD11O,1.202000X1.402000*%
%ADD12C,2.602000*%
G04 APERTURE END LIST*
%LPC*%
G36*
X100125000Y-109925000D02*
G01*
X97625000Y-109925000D01*
X97625000Y-94475000D01*
X100125000Y-94475000D01*
X100125000Y-109925000D01*
G37*
D10*
X100125000Y-109925000D02*
X97625000Y-109925000D01*
X97625000Y-94475000D01*
X100125000Y-94475000D01*
X100125000Y-109925000D01*
G36*
X100125000Y-93275000D02*
G01*
X97625000Y-93275000D01*
X97625000Y-90075000D01*
X100125000Y-90075000D01*
X100125000Y-93275000D01*
G37*
X100125000Y-93275000D02*
X97625000Y-93275000D01*
X97625000Y-90075000D01*
X100125000Y-90075000D01*
X100125000Y-93275000D01*
D11*
X162447238Y-93473494D03*
X163717238Y-94473494D03*
X164987238Y-94473494D03*
X166257238Y-93473494D03*
X167527238Y-94473494D03*
X168797238Y-94473494D03*
X170067238Y-93473494D03*
D12*
X172737238Y-93973494D03*
X159777238Y-93973494D03*
D11*
X107950000Y-93480000D03*
X109220000Y-94480000D03*
X110490000Y-94480000D03*
X111760000Y-93480000D03*
X113030000Y-94480000D03*
X114300000Y-94480000D03*
X115570000Y-93480000D03*
D12*
X118240000Y-93980000D03*
X105280000Y-93980000D03*
D11*
X144281492Y-93480000D03*
X145551492Y-94480000D03*
X146821492Y-94480000D03*
X148091492Y-93480000D03*
X149361492Y-94480000D03*
X150631492Y-94480000D03*
X151901492Y-93480000D03*
D12*
X154571492Y-93980000D03*
X141611492Y-93980000D03*
D11*
X126115746Y-93480000D03*
X127385746Y-94480000D03*
X128655746Y-94480000D03*
X129925746Y-93480000D03*
X131195746Y-94480000D03*
X132465746Y-94480000D03*
X133735746Y-93480000D03*
D12*
X136405746Y-93980000D03*
X123445746Y-93980000D03*
M02*
